<svg width="91" height="20" viewBox="0 0 91 20" fill="none" xmlns="http://www.w3.org/2000/svg">
<path d="M4.2358 16.5108H12.0971V19.485H0.533447V1.51622H4.2358V16.5108Z" fill="white"/>
<path d="M22.0831 19.485C21.9186 19.1641 21.7993 18.7651 21.7252 18.2879C20.8613 19.2505 19.7383 19.7318 18.3561 19.7318C17.0479 19.7318 15.9619 19.3533 15.098 18.5964C14.2424 17.8395 13.8145 16.8851 13.8145 15.7333C13.8145 14.3181 14.337 13.2321 15.3819 12.4752C16.435 11.7183 17.9529 11.3357 19.9358 11.3275H21.5771V10.5623C21.5771 9.94525 21.4167 9.4516 21.0958 9.08137C20.7832 8.71113 20.2854 8.52601 19.6025 8.52601C19.0019 8.52601 18.5289 8.66999 18.1833 8.95795C17.846 9.24592 17.6773 9.64083 17.6773 10.1427H14.1107C14.1107 9.36933 14.3493 8.65354 14.8265 7.99534C15.3037 7.33715 15.9783 6.82293 16.8505 6.4527C17.7226 6.07423 18.7016 5.885 19.7877 5.885C21.4331 5.885 22.7372 6.30049 23.6998 7.13146C24.6707 7.95421 25.1561 9.11428 25.1561 10.6117V16.3997C25.1643 17.6667 25.3412 18.6252 25.6867 19.2752V19.485H22.0831ZM19.1336 17.0044C19.6601 17.0044 20.1456 16.8892 20.5898 16.6588C21.0341 16.4203 21.3632 16.1035 21.5771 15.7086V13.4131H20.2443C18.4589 13.4131 17.5087 14.0302 17.3935 15.2643L17.3811 15.4741C17.3811 15.9184 17.5375 16.2845 17.8501 16.5725C18.1627 16.8604 18.5906 17.0044 19.1336 17.0044Z" fill="white"/>
<path d="M31.5878 6.13182L31.6989 7.62511C32.645 6.46504 33.9244 5.885 35.537 5.885C37.2565 5.885 38.4372 6.56377 39.0789 7.9213C40.0168 6.56377 41.3538 5.885 43.0898 5.885C44.5378 5.885 45.6156 6.30872 46.3232 7.15614C47.0307 7.99534 47.3845 9.26237 47.3845 10.9572V19.485H43.8056V10.9696C43.8056 10.2126 43.6575 9.6614 43.3613 9.31585C43.0651 8.96207 42.5427 8.78518 41.794 8.78518C40.7244 8.78518 39.9839 9.29528 39.5725 10.3155L39.5849 19.485H36.0183V10.9819C36.0183 10.2085 35.8661 9.64906 35.5617 9.30351C35.2572 8.95795 34.7389 8.78518 34.0067 8.78518C32.9947 8.78518 32.2624 9.20478 31.8099 10.044V19.485H28.2433V6.13182H31.5878Z" fill="white"/>
<path d="M49.9288 12.7097C49.9288 10.6281 50.3936 8.9703 51.3233 7.73618C52.2612 6.50206 53.5406 5.885 55.1614 5.885C56.4614 5.885 57.535 6.37042 58.3825 7.34126V0.528931H61.9614V19.485H58.7404L58.5676 18.0657C57.679 19.1764 56.5354 19.7318 55.1367 19.7318C53.5653 19.7318 52.3024 19.1147 51.348 17.8806C50.4018 16.6383 49.9288 14.9146 49.9288 12.7097ZM53.4954 12.9688C53.4954 14.2194 53.7134 15.1779 54.1494 15.8443C54.5855 16.5108 55.219 16.844 56.05 16.844C57.1525 16.844 57.93 16.3791 58.3825 15.4494V10.1797C57.9382 9.25003 57.1689 8.78518 56.0747 8.78518C54.3551 8.78518 53.4954 10.1797 53.4954 12.9688Z" fill="white"/>
<path d="M71.2193 19.7318C69.2611 19.7318 67.665 19.1312 66.4309 17.93C65.205 16.7288 64.5921 15.1285 64.5921 13.1293V12.7837C64.5921 11.4426 64.8512 10.2456 65.3696 9.19244C65.8879 8.1311 66.6201 7.31658 67.5663 6.74888C68.5207 6.17296 69.6067 5.885 70.8243 5.885C72.6508 5.885 74.0865 6.46092 75.1314 7.61277C76.1845 8.76461 76.7111 10.3978 76.7111 12.5122V13.9685H68.208C68.3232 14.8406 68.6688 15.5399 69.2447 16.0665C69.8288 16.593 70.5652 16.8563 71.4538 16.8563C72.8277 16.8563 73.9014 16.3585 74.6748 15.363L76.4272 17.3253C75.8925 18.0822 75.1684 18.6746 74.2552 19.1024C73.3419 19.522 72.33 19.7318 71.2193 19.7318ZM70.812 8.77284C70.1044 8.77284 69.5285 9.01143 69.0842 9.48863C68.6482 9.96582 68.3685 10.6487 68.245 11.5373H73.2062V11.2534C73.1897 10.4636 72.9758 9.85475 72.5645 9.42692C72.1531 8.99086 71.5689 8.77284 70.812 8.77284Z" fill="white"/>
<path d="M82.3777 6.13182L82.4887 7.67447C83.4431 6.48149 84.7225 5.885 86.3268 5.885C87.742 5.885 88.7951 6.30049 89.4862 7.13146C90.1773 7.96243 90.5311 9.20478 90.5475 10.8585V19.485H86.9809V10.9449C86.9809 10.188 86.8164 9.64083 86.4873 9.30351C86.1582 8.95795 85.6111 8.78518 84.8459 8.78518C83.8421 8.78518 83.0893 9.21301 82.5875 10.0687V19.485H79.0209V6.13182H82.3777Z" fill="white"/>
</svg>
