<?xml version="1.0" encoding="UTF-8" standalone="no"?>
<!-- Created with Inkscape (http://www.inkscape.org/) -->

<svg
   xmlns:dc="http://purl.org/dc/elements/1.1/"
   xmlns:cc="http://creativecommons.org/ns#"
   xmlns:rdf="http://www.w3.org/1999/02/22-rdf-syntax-ns#"
   xmlns:svg="http://www.w3.org/2000/svg"
   xmlns="http://www.w3.org/2000/svg"
   xmlns:sodipodi="http://sodipodi.sourceforge.net/DTD/sodipodi-0.dtd"
   xmlns:inkscape="http://www.inkscape.org/namespaces/inkscape"
   version="1.1"
   id="svg3713"
   width="325"
   height="299"
   viewBox="0 0 325 299"
   sodipodi:docname="clove-logo.svg"
   inkscape:version="0.92.4 (5da689c313, 2019-01-14)">
  <metadata
     id="metadata3719">
    <rdf:RDF>
      <cc:Work
         rdf:about="">
        <dc:format>image/svg+xml</dc:format>
        <dc:type
           rdf:resource="http://purl.org/dc/dcmitype/StillImage" />
        <dc:title></dc:title>
      </cc:Work>
    </rdf:RDF>
  </metadata>
  <defs
     id="defs3717" />
  <sodipodi:namedview
     pagecolor="#ffffff"
     bordercolor="#666666"
     borderopacity="1"
     objecttolerance="10"
     gridtolerance="10"
     guidetolerance="10"
     inkscape:pageopacity="0"
     inkscape:pageshadow="2"
     inkscape:window-width="1366"
     inkscape:window-height="705"
     id="namedview3715"
     showgrid="false"
     inkscape:zoom="1.2675894"
     inkscape:cx="21.042516"
     inkscape:cy="100.1067"
     inkscape:window-x="-8"
     inkscape:window-y="-8"
     inkscape:window-maximized="1"
     inkscape:current-layer="svg3713" />
  <path
     style="fill:#da2e7b;stroke-width:1.00263727"
     d="m 3.3785012,234.22334 -0.051728,-65.92341 h 0.7578531 0.7578533 l 31.8278604,31.83952 31.827859,31.83952 -0.01845,0.99685 -0.01845,0.99686 -32.515536,33.08703 -32.5155377,33.08703 -0.051728,-65.9234 z m 285.9505588,32.08464 -32.33505,-32.3467 v -1.00281 -1.00282 l 32.04555,-32.03381 32.04554,-32.03381 0.54753,0.54753 0.54754,0.54753 -0.25802,64.83579 -0.25803,64.8358 z M 47.056194,190.47269 15.098248,158.50304 l 0.690578,-1.11738 0.690577,-1.11738 h 63.047806 63.047811 l 0.69057,1.11738 0.69058,1.11738 -31.95795,31.96965 -31.957943,31.96966 H 79.527209 79.01414 Z m 166.437796,0 -31.95795,-31.96965 0.69057,-1.11738 0.69058,-1.11738 h 63.04781 63.04781 l 0.69058,1.11738 0.69057,1.11738 -31.95795,31.96965 -31.95794,31.96966 h -0.51307 -0.51307 z m -197.70665,-48.35848 -0.692063,-1.11977 32.215966,-32.21597 32.215966,-32.215959 32.215971,32.215959 32.21596,32.21597 -0.69206,1.11977 -0.69206,1.11979 H 79.527209 16.479403 Z m 166.43779,0 -0.69206,-1.11977 32.21596,-32.21597 32.21597,-32.215959 32.21597,32.215959 32.21596,32.21597 -0.69206,1.11977 -0.69206,1.11979 H 245.965 182.91719 Z M 122.38408,99.362835 90.556219,67.523316 V 66.520679 65.518043 L 123.14193,32.9439 155.72764,0.36975615 V 65.786057 131.20235 h -0.75785 -0.75786 z M 169.76456,65.715227 V 0.22809653 l 32.33506,32.42918547 32.33505,32.429185 0.37454,1.094507 0.37452,1.094508 -31.95172,31.963437 -31.95174,31.963431 h -0.75785 -0.75786 z"
     id="path3828"
     inkscape:connector-curvature="0" />
  <path
     style="fill:#c22c78;fill-opacity:1;stroke-width:0.79097956"
     d="M 47.475844,190.54555 C 28.617888,171.68328 15.762816,158.24074 16.084727,157.71987 c 0.838608,-1.35689 127.008533,-1.24732 127.008533,0.1103 0,0.54582 -14.32826,15.31736 -31.84056,32.82568 l -31.840578,31.83328 z"
     id="path3832"
     inkscape:connector-curvature="0" />
  <path
     style="fill:#c22c78;fill-opacity:1;stroke-width:0.79097956"
     d="m 3.923201,233.76055 c -0.02329,-35.78194 0.2262779,-65.05807 0.5545962,-65.05807 1.1779304,0 63.4724018,62.91697 63.4724018,64.10667 0,0.66906 -14.396547,15.79489 -31.992326,33.61297 l -31.9923257,32.3965 z"
     id="path3834"
     inkscape:connector-curvature="0" />
  <path
     style="fill:#e4307e;fill-opacity:1;stroke-width:0.79097956"
     d="M 16.084727,141.71806 C 15.762816,141.1972 28.617888,127.75465 47.475844,108.89239 L 79.412122,76.948804 111.2527,108.78209 c 17.5123,17.50831 31.84056,32.27987 31.84056,32.82567 0,1.35763 -126.169925,1.4672 -127.008533,0.1103 z"
     id="path3836"
     inkscape:connector-curvature="0" />
  <path
     style="fill:#e4307e;fill-opacity:1;stroke-width:0.79097956"
     d="M 122.72187,98.894917 C 105.21358,81.382613 90.888606,66.698428 90.888606,66.26339 c 0,-0.43504 14.593574,-15.381297 32.430154,-33.213907 L 155.74893,0.62655607 V 65.681007 c 0,35.779953 -0.2686,65.054453 -0.59689,65.054453 -0.3283,0 -14.92187,-14.32825 -32.43017,-31.840543 z"
     id="path3838"
     inkscape:connector-curvature="0" />
  <path
     style="fill:#e4307e;fill-opacity:1;stroke-width:0.79097956"
     d="m 169.98656,65.875134 c 0,-35.673177 0.12888,-64.860323 0.28639,-64.860323 0.15752,0 14.81374,14.796235 32.56939,32.880523 l 32.283,32.880523 -31.97249,31.9798 c -17.58488,17.588893 -32.2411,31.979803 -32.56939,31.979803 -0.3283,0 -0.5969,-29.18715 -0.5969,-64.860326 z"
     id="path3840"
     inkscape:connector-curvature="0" />
  <path
     style="fill:#e4307e;fill-opacity:1;stroke-width:0.79097956"
     d="m 182.33871,141.95798 c -0.21829,-0.3532 13.99834,-15.0341 31.59251,-32.62424 l 31.98938,-31.982078 31.98939,31.982078 c 17.59416,17.59014 31.81078,32.27104 31.5925,32.62424 -0.5189,0.83958 -126.64489,0.83958 -127.16378,0 z"
     id="path3842"
     inkscape:connector-curvature="0" />
  <path
     style="fill:#e4307e;fill-opacity:1;stroke-width:0.79097956"
     d="m 213.65338,189.82641 c -17.52543,-17.52943 -31.61311,-32.123 -31.30595,-32.43016 0.99085,-0.99084 126.68842,-0.67132 127.30332,0.3236 0.5649,0.91404 -61.86487,63.97826 -63.33462,63.97826 -0.43909,0 -15.13732,-14.34227 -32.66275,-31.8717 z"
     id="path3844"
     inkscape:connector-curvature="0" />
  <path
     style="fill:#e4307e;fill-opacity:1;stroke-width:0.79097956"
     d="m 288.63715,264.81341 -32.031,-32.04159 32.02734,-32.03467 c 17.61505,-17.61907 32.29595,-32.03467 32.62425,-32.03467 0.69851,0 0.62383,85.79322 -0.0966,110.94179 l -0.493,17.21072 z"
     id="path3846"
     inkscape:connector-curvature="0" />
</svg>
