<svg id="Layer_1" data-name="Layer 1" xmlns="http://www.w3.org/2000/svg" viewBox="0 0 1164.26 1164.23">
<defs>
<style>
.cls-0{fill:#fff;}
.cls-1{fill:rgb(62,134,79);}
.cls-2{fill:rgb(58,120,87);}
.cls-3{fill:rgb(54,102,91);}
.cls-4{fill:rgb(46,83,95);}
.cls-5{fill:rgb(39,68,94);}
.cls-6{fill:rgb(37,49,93);}
.cls-7{fill:rgb(59,41,96);}
.cls-8{fill:rgb(89,45,101);}
.cls-9{fill:rgb(117,46,104);}
.cls-10{fill:rgb(147,52,110);}
.cls-11{fill:rgb(179,59,117);}
.cls-12{fill:rgb(211,66,123);}
</style>
</defs>
<title>logo_lamden</title>
<polygon id='l__1-1' class="cls-1" points="717.3 122.39 594.91 0 594.91 244.78 717.3 122.39"/>
<polygon id='l__1-2' class="cls-1" points="612.98 262.86 857.76 262.86 735.38 140.46 612.98 262.86"/>
<polygon id='l__2-1' class="cls-2" points="735.37 410.8 857.76 288.42 612.99 288.42 735.37 410.8"/>
<polygon id='l__2-2' class="cls-2" points="753.45 428.88 875.84 551.27 875.84 306.49 753.45 428.88"/>
<polygon id='l__3-1' class="cls-3" points="1023.78 428.88 901.39 306.49 901.39 551.25 1023.78 428.88"/>
<polygon id='l__3-2' class="cls-3" points="1041.86 446.95 919.44 569.35 1164.26 569.35 1041.86 446.95"/>
<polygon id='l__4-1' class="cls-4" points="1041.86 717.29 1164.23 594.9 919.47 594.9 1041.86 717.29"/>
<polygon id='l__4-2' class="cls-4" points="901.4 612.97 901.4 857.74 1023.79 735.36 901.4 612.97"/>
<polygon id='l__5-1' class="cls-5" points="753.45 735.36 875.84 857.75 875.84 612.96 753.45 735.36"/>
<polygon id='l__5-2' class="cls-5" points="735.37 753.44 612.99 875.81 857.75 875.81 735.37 753.44"/>
<polygon id='l__6-1' class="cls-6" points="735.37 1023.77 857.78 901.36 612.96 901.36 735.37 1023.77"/>
<polygon id='l__6-2' class="cls-6" points="594.92 919.46 594.92 1164.22 717.3 1041.85 594.92 919.46"/>
<polygon id='l__7-1' class="cls-7" points="446.97 1041.85 569.35 1164.23 569.35 919.45 446.97 1041.85"/>
<polygon id='l__7-2' class="cls-7" points="551.3 901.36 306.49 901.36 428.88 1023.77 551.3 901.36"/>
<polygon id='l__8-1' class="cls-8" points="428.89 753.44 306.51 875.81 551.26 875.81 428.89 753.44"/>
<polygon id='l__8-2' class="cls-8" points="410.82 735.36 288.42 612.97 288.42 857.75 410.82 735.36"/>
<polygon id='l__9-1' class="cls-9" points="140.49 735.36 262.87 857.74 262.87 612.97 140.49 735.36"/>
<polygon id='l__9-2' class="cls-9" points="244.78 594.91 0.04 594.91 122.4 717.29 244.78 594.91"/>
<polygon id='l__10-1' class="cls-10" points="122.41 446.95 0 569.35 244.81 569.35 122.41 446.95"/>
<polygon id='l__10-2' class="cls-10" points="262.87 551.26 262.87 306.48 140.48 428.88 262.87 551.26"/>
<polygon id='l__11-1' class="cls-11" points="410.82 428.88 288.42 306.49 288.42 551.26 410.82 428.88"/>
<polygon id='l__11-2' class="cls-11" points="428.89 410.8 551.27 288.42 306.5 288.42 428.89 410.8"/>
<polygon id='l__12-1' class="cls-12" points="428.89 140.47 306.48 262.87 551.29 262.87 428.89 140.47"/>
<polygon id='l__12-2' class="cls-12" points="569.35 244.78 569.35 0 446.96 122.39 569.35 244.78"/>
<polygon class="cls-0" points="293.72 275.63 293.73 275.65 293.73 275.63 293.72 275.63"/>
<polygon class="cls-0" points="888.6 564.03 888.62 564.05 888.63 564.03 888.6 564.03"/>
<path class="cls-0" d="M888.61,870.52Z" transform="translate(0 0)"/>
<path class="cls-0" d="M888.61,600.19Z" transform="translate(0 0)"/>
</svg>
