<svg width="24" height="24" viewBox="0 0 24 24" fill="none" xmlns="http://www.w3.org/2000/svg"><rect width="24" height="24" fill="none" rx="0" ry="0"></rect><path fill-rule="evenodd" clip-rule="evenodd" d="M14.8049 12.145L14.1851 9.81494L11.7051 9.15497L10.365 5.17493C9.9751 5.27496 9.59497 5.41498 9.245 5.59497L10.595 9.61493L10.615 9.60498L9.01501 11.205L9.63501 13.5049L6.60498 16.265C6.83496 16.585 7.10498 16.895 7.40503 17.155L10.4651 14.3649L12.8049 14.985L14.4851 13.3049L18.855 14.5649C19.015 14.205 19.125 13.8149 19.2051 13.4249L14.8049 12.145ZM12.4451 13.655L10.795 13.205L10.355 11.5649L11.5649 10.355L13.2051 10.8049L13.645 12.4449L12.4451 13.655Z
" fill="#22a6b3"></path><path fill-rule="evenodd" clip-rule="evenodd" d="M22.005 12.745V11.245H20.505C20.415 10.235 20.135 9.28503 19.7151 8.41504L20.395 8.02502C20.755 7.815 20.875 7.35504 20.665 6.995C20.525 6.755 20.275 6.625 20.025 6.625C19.895 6.625 19.765 6.65503 19.645 6.72504L18.9451 7.125C18.365 6.33502 17.665 5.64502 16.845 5.10504L17.655 3.70502L16.355 2.95502L15.525 4.38501C14.665 4.01501 13.7351 3.79504 12.755 3.73505V2.745C12.755 2.32501 12.415 1.995 12.005 1.995C11.585 1.995 11.255 2.32501 11.255 2.745V3.78503C10.3049 3.89502 9.40503 4.17499 8.58496 4.58502L7.64502 2.95502L6.34497 3.70502L7.30493 5.36499C6.57495 5.91504 5.93506 6.57501 5.41504 7.33502L4.36499 6.72504C4.005 6.51501 3.54504 6.63501 3.33496 6.995C3.26501 7.11499 3.23511 7.245 3.23511 7.36499C3.23511 7.625 3.375 7.88501 3.61499 8.02502L4.68506 8.64502C4.30493 9.495 4.06494 10.425 3.995 11.395V11.245H1.995V12.745H3.995V12.615C4.06494 13.585 4.30493 14.505 4.68506 15.355L3.61499 15.975C3.255 16.185 3.125 16.645 3.33496 17.005C3.54504 17.365 4.005 17.485 4.36499 17.275L5.40503 16.675C5.92505 17.425 6.57495 18.085 7.30493 18.635L6.34497 20.285L7.64502 21.035L8.58496 19.425C9.40503 19.835 10.3049 20.115 11.255 20.225V21.255C11.255 21.665 11.585 22.005 12.005 22.005C12.415 22.005 12.755 21.665 12.755 21.255V20.275C13.7351 20.215 14.675 19.985 15.535 19.615L16.355 21.035L17.655 20.285L16.855 18.905C17.665 18.355 18.375 17.665 18.9451 16.875L19.645 17.275C20.005 17.485 20.4551 17.365 20.665 17.005C20.875 16.645 20.755 16.185 20.395 15.975L19.7251 15.585C20.145 14.715 20.415 13.765 20.505 12.745H22.005ZM19.2051 13.425C19.125 13.815 19.015 14.205 18.855 14.565C17.835 17.215 15.265 19.095 12.255 19.095C10.375 19.095 8.66504 18.365 7.40503 17.155C7.10498 16.895 6.83496 16.585 6.60498 16.265C5.69507 15.085 5.16504 13.605 5.16504 12.005C5.16504 9.17499 6.83496 6.72504 9.245 5.59503C9.59497 5.41504 9.9751 5.27502 10.365 5.17499C10.9651 5.00501 11.595 4.91504 12.255 4.91504C16.165 4.91504 19.345 8.09503 19.345 12.005C19.345 12.495 19.295 12.965 19.2051 13.425Z
" fill="#ffffff"></path><path fill-rule="evenodd" clip-rule="evenodd" d="M15.4566 12.3345L14.8049 12.145V12.7697L14.4851 13.3049L15.1788 13.5049L15.5831 13.002L15.4566 12.3345ZM10.4651 14.3649L9.7991 14.1147L9.63501 13.5049L9.01501 14.0697L9.22693 14.6746L9.865 14.9121L10.4651 14.3649ZM10.595 9.61492L10.615 9.60498L11.0643 9.08804L11.7051 9.15496L11.4081 8.33191H10.7256L10.2974 8.71986L10.595 9.61492Z
" fill="black" fill-opacity="0.3"></path></svg>