<svg width="24" height="24" viewBox="0 0 24 24" fill="none" xmlns="http://www.w3.org/2000/svg"><rect width="24" height="24" fill="none" rx="0" ry="0"></rect><path fill-rule="evenodd" clip-rule="evenodd" d="M4.86665 8.86988H9.05824C9.61824 8.86988 10.0582 8.41988 10.0582 7.86988C10.0582 7.31988 9.60824 6.86988 9.05824 6.86988H7.11538C8.3366 5.91712 9.84976 5.38012 11.4283 5.38012C13.3683 5.38012 15.1783 6.16012 16.5183 7.57012C17.7483 8.87012 18.4283 10.5801 18.4283 12.3801C18.4283 16.2401 15.2883 19.3801 11.4283 19.3801C9.62829 19.3801 7.91829 18.7001 6.61829 17.4701C6.21829 17.0901 5.58829 17.1101 5.20829 17.5101C4.82829 17.9101 4.84829 18.5401 5.24829 18.9201C6.92829 20.5001 9.12829 21.3701 11.4383 21.3701C16.3983 21.3701 20.4383 17.3301 20.4283 12.3701C20.4283 10.0601 19.5583 7.86012 17.9683 6.18012C16.2383 4.37012 13.9183 3.37012 11.4283 3.37012C9.37239 3.37012 7.3985 4.07926 5.81824 5.33673V3.62988C5.81824 3.07988 5.36824 2.62988 4.81824 2.62988C4.26824 2.62988 3.81824 3.07988 3.81824 3.62988V7.76065C3.78417 8.09075 3.91655 8.43011 4.19642 8.65162C4.28369 8.72126 4.38276 8.77667 4.49003 8.81423C4.61312 8.85763 4.74105 8.87558 4.86665 8.86988Z" fill="#4fb8ff"></path></svg>