<svg width="45" height="36" viewBox="0 0 45 36" fill="none" xmlns="http://www.w3.org/2000/svg">
<path d="M14.1522 36C31.1344 36 40.4207 22.1511 40.4207 10.1422C40.4207 9.74884 40.4126 9.35725 40.3947 8.96744C42.1974 7.68461 43.7643 6.08372 45 4.26135C43.3458 4.98516 41.5656 5.47243 39.6981 5.69214C41.6043 4.567 43.0677 2.78715 43.758 0.66533C41.9742 1.7063 39.9987 2.4629 37.8953 2.87131C36.2105 1.10476 33.812 0 31.1561 0C26.0575 0 21.9229 4.06999 21.9229 9.08704C21.9229 9.80022 22.0039 10.4939 22.1623 11.1592C14.4888 10.7792 7.68473 7.16279 3.13159 1.66379C2.33868 3.00687 1.88148 4.567 1.88148 6.23167C1.88148 9.38472 3.51139 12.1683 5.99002 13.7967C4.4753 13.7506 3.05239 13.3413 1.80858 12.66C1.80722 12.6982 1.80722 12.7353 1.80722 12.7761C1.80722 17.1774 4.98965 20.8523 9.21429 21.685C8.43849 21.8932 7.62218 22.0049 6.77977 22.0049C6.18576 22.0049 5.60705 21.9473 5.04455 21.841C6.21996 25.4521 9.6283 28.0797 13.6693 28.1533C10.5094 30.5914 6.52867 32.0434 2.20233 32.0434C1.45802 32.0434 0.722707 32.0017 0 31.9176C4.08604 34.4957 8.93752 36 14.1522 36Z" class="fill-font-primary"/>
</svg>
