<svg width="14" height="14" viewBox="0 0 14 14" fill="none" xmlns="http://www.w3.org/2000/svg">
<path d="M6.3 3.68421V7.44947L9.597 9.50526L10.15 8.56211L7.35 6.81579V3.68421H6.3ZM7.35 0C4.879 0 2.737 1.41474 1.589 3.51474L0 1.84211V6.63158H4.55L2.625 4.60526C3.472 2.74842 5.25 1.47368 7.35 1.47368C8.74239 1.47368 10.0777 2.05592 11.0623 3.0923C12.0469 4.12869 12.6 5.53433 12.6 7C12.6 8.46567 12.0469 9.87131 11.0623 10.9077C10.0777 11.9441 8.74239 12.5263 7.35 12.5263C5.061 12.5263 3.129 10.9863 2.408 8.8421H0.938C1.708 11.8116 4.277 14 7.35 14C11.018 14 14 10.8684 14 7C14 6.08075 13.828 5.1705 13.4938 4.32122C13.1596 3.47194 12.6698 2.70026 12.0523 2.05025C11.4347 1.40024 10.7017 0.884626 9.89484 0.532843C9.08803 0.18106 8.22329 0 7.35 0Z" class="fill-font-primary"/>
</svg>
