<svg width="24" height="24" viewBox="0 0 24 24" fill="none" xmlns="http://www.w3.org/2000/svg"><rect width="24" height="24" fill="none" rx="0" ry="0"></rect><path fill-rule="evenodd" clip-rule="evenodd" d="M21 12C21 16.9706 16.9706 21 12 21C7.02944 21 3 16.9706 3 12C3 7.02944 7.02944 3 12 3C16.9706 3 21 7.02944 21 12ZM19.8 12C19.8 16.3078 16.3078 19.8 12 19.8C7.69218 19.8 4.2 16.3078 4.2 12C4.2 7.69218 7.69218 4.2 12 4.2C16.3078 4.2 19.8 7.69218 19.8 12Z" fill="#4fb8ff"></path><path fill-rule="evenodd" clip-rule="evenodd" d="M11.4 5.6C11.4 5.26863 11.6686 5 12 5C12.3314 5 12.6 5.26863 12.6 5.6V11.1999C12.6758 11.2568 12.7432 11.3242 12.8001 11.4H16.4C16.7314 11.4 17 11.6686 17 12C17 12.3314 16.7314 12.6 16.4 12.6H12.8001C12.6176 12.8429 12.3272 13 12 13C11.4477 13 11 12.5523 11 12C11 11.6728 11.1571 11.3824 11.4 11.1999V5.6Z" fill="#ffffff"></path><path fill-rule="evenodd" clip-rule="evenodd" d="M12 13C12.5523 13 13 12.5523 13 12C13 11.4477 12.5523 11 12 11C11.4477 11 11 11.4477 11 12C11 12.5523 11.4477 13 12 13Z" fill="black" fill-opacity="0.3"></path></svg>