<svg height='100px' width='100px' viewBox="0 0 336 297" x="0px" y="0px" fill-rule="evenodd" clip-rule="evenodd">
  <g>
    <path class="fill-warning" d="M194 15l138 237c12,20 -2,45 -26,45l-276 0c-23,0 -38,-25 -26,-45l0 0 138 -237c12,-20 41,-20 52,0zm-21 12c-2,-3 -7,-3 -9,0l-138 238 0 0c-2,3 0,8 4,8l276 0c4,0 7,-5 5,-8l-138 -238z"></path>
    <path class="fill-warning" d="M162 88l12 0c4,0 7,1 10,4 3,3 4,6 4,10l-6 91c0,7 -6,13 -13,13l-2 0c-7,0 -12,-6 -13,-13l-5 -91c-1,-4 1,-7 3,-10 3,-3 6,-4 10,-4z"></path>
    <circle class="fill-warning" cx="168" cy="235" r="19"></circle>
  </g>
</svg>