<?xml version="1.0" encoding="UTF-8" standalone="no"?>
<svg
   xmlns:dc="http://purl.org/dc/elements/1.1/"
   xmlns:cc="http://creativecommons.org/ns#"
   xmlns:rdf="http://www.w3.org/1999/02/22-rdf-syntax-ns#"
   xmlns:svg="http://www.w3.org/2000/svg"
   xmlns="http://www.w3.org/2000/svg"
   height="32"
   width="32"
   id="svg302"
   xml:space="preserve"
   viewBox="0 0 32 32"
   y="0px"
   x="0px"
   version="1.1"><metadata
     id="metadata308"><rdf:RDF><cc:Work
         rdf:about=""><dc:format>image/svg+xml</dc:format><dc:type
           rdf:resource="http://purl.org/dc/dcmitype/StillImage" /><dc:title></dc:title></cc:Work></rdf:RDF></metadata><defs
     id="defs306" /><style
     id="style2"
     type="text/css">
	.st0{display:none;}
	.st1{display:inline;}
</style><g
     transform="translate(-20,-4)"
     style="display:none"
     id="g16"
     class="st0"><g
       style="display:inline"
       id="g6"
       class="st1"><path
         id="path4"
         d="M 24,9 C 22.9,9 22,8.1 22,7 V 3 c 0,-1.1 0.9,-2 2,-2 1.1,0 2,0.9 2,2 v 4 c 0,1.1 -0.9,2 -2,2 z" /></g><g
       style="display:inline"
       id="g10"
       class="st1"><path
         id="path8"
         d="M 40,41 H 8 C 7.2,41 6.5,40.5 6.2,39.8 5.8,39 6,38.2 6.6,37.6 L 10,34.2 V 19 c 0,-7.7 6.3,-14 14,-14 7.7,0 14,6.3 14,14 v 15.2 l 3.4,3.4 c 0.6,0.6 0.7,1.4 0.4,2.2 -0.3,0.7 -1,1.2 -1.8,1.2 z M 12.8,37 H 35.1 L 34.5,36.4 C 34.2,36 34,35.5 34,35 V 19 C 34,13.5 29.5,9 24,9 18.5,9 14,13.5 14,19 v 16 c 0,0.5 -0.2,1 -0.6,1.4 z" /></g><g
       style="display:inline"
       id="g14"
       class="st1"><path
         id="path12"
         d="m 24,47 c -4.4,0 -8,-3.6 -8,-8 0,-1.1 0.9,-2 2,-2 1.1,0 2,0.9 2,2 0,2.2 1.8,4 4,4 2.2,0 4,-1.8 4,-4 0,-1.1 0.9,-2 2,-2 1.1,0 2,0.9 2,2 0,4.4 -3.6,8 -8,8 z" /></g></g><g
     transform="translate(-20,-4)"
     style="display:none"
     id="g26"
     class="st0"><g
       style="display:inline"
       id="g20"
       class="st1"><path
         id="path18"
         d="M 20,38 C 10.1,38 2,29.9 2,20 2,10.1 10.1,2 20,2 c 9.9,0 18,8.1 18,18 0,9.9 -8.1,18 -18,18 z M 20,6 C 12.3,6 6,12.3 6,20 6,27.7 12.3,34 20,34 27.7,34 34,27.7 34,20 34,12.3 27.7,6 20,6 Z" /></g><g
       style="display:inline"
       id="g24"
       class="st1"><path
         id="path22"
         d="m 40,42 c -0.5,0 -1,-0.2 -1.4,-0.6 l -8,-8 c -0.8,-0.8 -0.8,-2 0,-2.8 0.8,-0.8 2,-0.8 2.8,0 l 8,8 c 0.8,0.8 0.8,2 0,2.8 C 41,41.8 40.5,42 40,42 Z" /></g></g><g
     transform="translate(-20,-4)"
     style="display:none"
     id="g36"
     class="st0"><g
       style="display:inline"
       id="g30"
       class="st1"><path
         id="path28"
         d="M 24,26 C 17.4,26 12,20.6 12,14 12,7.4 17.4,2 24,2 30.6,2 36,7.4 36,14 36,20.6 30.6,26 24,26 Z M 24,6 c -4.4,0 -8,3.6 -8,8 0,4.4 3.6,8 8,8 4.4,0 8,-3.6 8,-8 0,-4.4 -3.6,-8 -8,-8 z" /></g><g
       style="display:inline"
       id="g34"
       class="st1"><path
         id="path32"
         d="M 44,46 C 42.9,46 42,45.1 42,44 42,34.1 33.9,26 24,26 14.1,26 6,34.1 6,44 6,45.1 5.1,46 4,46 2.9,46 2,45.1 2,44 2,31.9 11.9,22 24,22 c 12.1,0 22,9.9 22,22 0,1.1 -0.9,2 -2,2 z" /></g></g><g
     transform="translate(-20,-4)"
     style="display:none"
     id="g94"
     class="st0"><g
       style="display:inline"
       id="g40"
       class="st1"><path
         id="path38"
         d="M 24,42 C 14.1,42 6,33.9 6,24 6,14.1 14.1,6 24,6 c 9.9,0 18,8.1 18,18 0,9.9 -8.1,18 -18,18 z m 0,-32 c -7.7,0 -14,6.3 -14,14 0,7.7 6.3,14 14,14 7.7,0 14,-6.3 14,-14 0,-7.7 -6.3,-14 -14,-14 z" /></g><g
       style="display:inline"
       id="g44"
       class="st1"><path
         id="path42"
         d="m 24,34 c -5.5,0 -10,-4.5 -10,-10 0,-5.5 4.5,-10 10,-10 5.5,0 10,4.5 10,10 0,5.5 -4.5,10 -10,10 z m 0,-16 c -3.3,0 -6,2.7 -6,6 0,3.3 2.7,6 6,6 3.3,0 6,-2.7 6,-6 0,-3.3 -2.7,-6 -6,-6 z" /></g><g
       style="display:inline"
       id="g48"
       class="st1"><path
         id="path46"
         d="M 24,10 C 22.9,10 22,9.1 22,8 V 4 c 0,-1.1 0.9,-2 2,-2 1.1,0 2,0.9 2,2 v 4 c 0,1.1 -0.9,2 -2,2 z" /></g><g
       style="display:inline"
       id="g52"
       class="st1"><path
         id="path50"
         d="m 16,12.1 c -0.7,0 -1.4,-0.4 -1.7,-1 l -2,-3.5 C 11.7,6.6 12.1,5.4 13,4.9 14,4.3 15.2,4.7 15.7,5.6 l 2,3.5 c 0.6,1 0.2,2.2 -0.7,2.7 -0.3,0.3 -0.7,0.3 -1,0.3 z" /></g><g
       style="display:inline"
       id="g56"
       class="st1"><path
         id="path54"
         d="m 10.1,18 c -0.3,0 -0.7,-0.1 -1,-0.3 l -3.5,-2 C 4.6,15.1 4.3,13.9 4.9,13 5.5,12 6.7,11.7 7.6,12.3 l 3.5,2 c 1,0.6 1.3,1.8 0.7,2.7 -0.3,0.6 -1,1 -1.7,1 z" /></g><g
       style="display:inline"
       id="g60"
       class="st1"><path
         id="path58"
         d="M 8,26 H 4 C 2.9,26 2,25.1 2,24 2,22.9 2.9,22 4,22 h 4 c 1.1,0 2,0.9 2,2 0,1.1 -0.9,2 -2,2 z" /></g><g
       style="display:inline"
       id="g64"
       class="st1"><path
         id="path62"
         d="M 6.7,36 C 6,36 5.3,35.6 5,35 4.4,34 4.8,32.8 5.7,32.3 l 3.5,-2 c 1,-0.6 2.2,-0.2 2.7,0.7 0.6,1 0.2,2.2 -0.7,2.7 l -3.5,2 C 7.4,35.9 7,36 6.7,36 Z" /></g><g
       style="display:inline"
       id="g68"
       class="st1"><path
         id="path66"
         d="m 14,43.3 c -0.3,0 -0.7,-0.1 -1,-0.3 -1,-0.6 -1.3,-1.8 -0.7,-2.7 l 2,-3.5 c 0.6,-1 1.8,-1.3 2.7,-0.7 0.9,0.6 1.3,1.8 0.7,2.7 l -2,3.5 c -0.3,0.7 -1,1 -1.7,1 z" /></g><g
       style="display:inline"
       id="g72"
       class="st1"><path
         id="path70"
         d="m 24,46 c -1.1,0 -2,-0.9 -2,-2 v -4 c 0,-1.1 0.9,-2 2,-2 1.1,0 2,0.9 2,2 v 4 c 0,1.1 -0.9,2 -2,2 z" /></g><g
       style="display:inline"
       id="g76"
       class="st1"><path
         id="path74"
         d="m 34,43.3 c -0.7,0 -1.4,-0.4 -1.7,-1 l -2,-3.5 c -0.6,-1 -0.2,-2.2 0.7,-2.7 1,-0.6 2.2,-0.2 2.7,0.7 l 2,3.5 c 0.6,1 0.2,2.2 -0.7,2.7 -0.3,0.2 -0.7,0.3 -1,0.3 z" /></g><g
       style="display:inline"
       id="g80"
       class="st1"><path
         id="path78"
         d="m 41.3,36 c -0.3,0 -0.7,-0.1 -1,-0.3 l -3.5,-2 c -1,-0.6 -1.3,-1.8 -0.7,-2.7 0.6,-1 1.8,-1.3 2.7,-0.7 l 3.5,2 c 1,0.6 1.3,1.8 0.7,2.7 -0.3,0.6 -1,1 -1.7,1 z" /></g><g
       style="display:inline"
       id="g84"
       class="st1"><path
         id="path82"
         d="m 44,26 h -4 c -1.1,0 -2,-0.9 -2,-2 0,-1.1 0.9,-2 2,-2 h 4 c 1.1,0 2,0.9 2,2 0,1.1 -0.9,2 -2,2 z" /></g><g
       style="display:inline"
       id="g88"
       class="st1"><path
         id="path86"
         d="m 37.9,18 c -0.7,0 -1.4,-0.4 -1.7,-1 -0.6,-1 -0.2,-2.2 0.7,-2.7 l 3.5,-2 c 1,-0.6 2.2,-0.2 2.7,0.7 0.6,1 0.2,2.2 -0.7,2.7 l -3.5,2 c -0.4,0.2 -0.7,0.3 -1,0.3 z" /></g><g
       style="display:inline"
       id="g92"
       class="st1"><path
         id="path90"
         d="M 32,12.1 C 31.7,12.1 31.3,12 31,11.8 30,11.2 29.7,10 30.3,9.1 l 2,-3.5 c 0.6,-1 1.8,-1.3 2.7,-0.7 1,0.6 1.3,1.8 0.7,2.7 l -2,3.5 c -0.3,0.7 -1,1 -1.7,1 z" /></g></g><g
     transform="translate(-20,-4)"
     style="display:none"
     id="g120"
     class="st0"><g
       style="display:inline"
       id="g98"
       class="st1"><path
         id="path96"
         d="m 24,30 c -5.5,0 -10,-4.5 -10,-10 0,-5.5 4.5,-10 10,-10 5.5,0 10,4.5 10,10 0,5.5 -4.5,10 -10,10 z m 0,-16 c -3.3,0 -6,2.7 -6,6 0,3.3 2.7,6 6,6 3.3,0 6,-2.7 6,-6 0,-3.3 -2.7,-6 -6,-6 z" /></g><g
       style="display:inline"
       id="g102"
       class="st1"><path
         id="path100"
         d="m 36,42 c -1.1,0 -2,-0.9 -2,-2 0,-5.5 -4.5,-10 -10,-10 -5.5,0 -10,4.5 -10,10 0,1.1 -0.9,2 -2,2 -1.1,0 -2,-0.9 -2,-2 0,-7.7 6.3,-14 14,-14 7.7,0 14,6.3 14,14 0,1.1 -0.9,2 -2,2 z" /></g><g
       style="display:inline"
       id="g106"
       class="st1"><path
         id="path104"
         d="m 12,26 c -4.4,0 -8,-3.6 -8,-8 0,-4.4 3.6,-8 8,-8 1.1,0 2,0.9 2,2 0,1.1 -0.9,2 -2,2 -2.2,0 -4,1.8 -4,4 0,2.2 1.8,4 4,4 1.1,0 2,0.9 2,2 0,1.1 -0.9,2 -2,2 z" /></g><g
       style="display:inline"
       id="g110"
       class="st1"><path
         id="path108"
         d="M 2,36 C 0.9,36 0,35.1 0,34 0,27.4 5.4,22 12,22 c 1.1,0 2,0.9 2,2 0,1.1 -0.9,2 -2,2 -4.4,0 -8,3.6 -8,8 0,1.1 -0.9,2 -2,2 z" /></g><g
       style="display:inline"
       id="g114"
       class="st1"><path
         id="path112"
         d="m 36,26 c -1.1,0 -2,-0.9 -2,-2 0,-1.1 0.9,-2 2,-2 2.2,0 4,-1.8 4,-4 0,-2.2 -1.8,-4 -4,-4 -1.1,0 -2,-0.9 -2,-2 0,-1.1 0.9,-2 2,-2 4.4,0 8,3.6 8,8 0,4.4 -3.6,8 -8,8 z" /></g><g
       style="display:inline"
       id="g118"
       class="st1"><path
         id="path116"
         d="m 46,36 c -1.1,0 -2,-0.9 -2,-2 0,-4.4 -3.6,-8 -8,-8 -1.1,0 -2,-0.9 -2,-2 0,-1.1 0.9,-2 2,-2 6.6,0 12,5.4 12,12 0,1.1 -0.9,2 -2,2 z" /></g></g><g
     transform="translate(-20,-4)"
     style="display:none"
     id="g130"
     class="st0"><g
       style="display:inline"
       id="g124"
       class="st1"><path
         id="path122"
         d="m 24,42 c -1.1,0 -2,-0.9 -2,-2 V 8 c 0,-1.1 0.9,-2 2,-2 1.1,0 2,0.9 2,2 v 32 c 0,1.1 -0.9,2 -2,2 z" /></g><g
       style="display:inline"
       id="g128"
       class="st1"><path
         id="path126"
         d="M 40,26 H 8 C 6.9,26 6,25.1 6,24 6,22.9 6.9,22 8,22 h 32 c 1.1,0 2,0.9 2,2 0,1.1 -0.9,2 -2,2 z" /></g></g><g
     style="fill:#ffffff;fill-opacity:1"
     transform="translate(-8.3050848,-4)"
     id="g144"><g
       style="fill:#ffffff;fill-opacity:1"
       id="g134"><circle
         style="fill:#ffffff;fill-opacity:1"
         id="circle132"
         r="4"
         cy="8"
         cx="24" /></g><g
       style="fill:#ffffff;fill-opacity:1"
       id="g138"><circle
         style="fill:#ffffff;fill-opacity:1"
         id="circle136"
         r="4"
         cy="20"
         cx="24" /></g><g
       style="fill:#ffffff;fill-opacity:1"
       id="g142"><circle
         style="fill:#ffffff;fill-opacity:1"
         id="circle140"
         r="4"
         cy="32"
         cx="24" /></g></g><g
     transform="translate(-20,-4)"
     style="display:none"
     id="g156"
     class="st0"><g
       style="display:inline"
       id="g148"
       class="st1"><path
         id="path146"
         d="m 2.7,22.5 c 0.1,0 0.1,-0.1 0.2,-0.1 -0.1,0.1 -0.2,0.2 -0.3,0.2 z" /></g><g
       style="display:inline"
       id="g154"
       class="st1"><path
         id="path150"
         d="m 38,24 c 0,1.1 -0.9,2 -2,2 H 8.8 l 8.6,8.6 c 0.8,0.8 0.8,2 0,2.8 C 17,37.8 16.5,38 16,38 15.5,38 15,37.8 14.6,37.4 l -12,-12 C 2.5,25.3 2.4,25.2 2.4,25.1 c 0,0 0,0 0,0 C 2.3,25 2.3,24.9 2.2,24.8 c 0,0 0,0 0,0 -0.1,-0.1 -0.1,-0.2 -0.1,-0.4 0,0 0,0 0,0 0,-0.1 0,-0.2 0,-0.4 0,-0.2 0,-0.3 0,-0.4 0,0 0,0 0,0 0,-0.1 0.1,-0.2 0.1,-0.3 0,0 0,0 0,0 0.1,-0.1 0.1,-0.2 0.2,-0.3 0,0 0,0 0,0 0.1,-0.1 0.2,-0.2 0.2,-0.3 0.1,-0.1 0.2,-0.2 0.3,-0.2 0,0 -0.1,0.1 -0.2,0.1 L 14.6,10.7 c 0.8,-0.8 2,-0.8 2.8,0 0.8,0.8 0.8,2 0,2.8 L 8.8,22 H 36 c 1.1,0 2,0.9 2,2 z" /><path
         id="path152"
         d="m 2.7,22.5 c 0.1,0 0.1,-0.1 0.2,-0.1 -0.1,0.1 -0.2,0.2 -0.3,0.2 z" /></g></g><g
     transform="translate(-20,-4)"
     style="display:none"
     id="g186"
     class="st0"><g
       style="display:inline"
       id="g160"
       class="st1"><path
         id="path158"
         d="M 40,10 H 34 V 4 C 34,2.9 33.1,2 32,2 30.9,2 30,2.9 30,4 v 6 H 18 V 4 C 18,2.9 17.1,2 16,2 14.9,2 14,2.9 14,4 v 6 H 8 c -3.3,0 -6,2.7 -6,6 v 24 c 0,3.3 2.7,6 6,6 h 32 c 3.3,0 6,-2.7 6,-6 V 16 c 0,-3.3 -2.7,-6 -6,-6 z m 2,30 c 0,1.1 -0.9,2 -2,2 H 8 C 6.9,42 6,41.1 6,40 V 16 c 0,-1.1 0.9,-2 2,-2 h 6 v 2 c 0,1.1 0.9,2 2,2 1.1,0 2,-0.9 2,-2 v -2 h 12 v 2 c 0,1.1 0.9,2 2,2 1.1,0 2,-0.9 2,-2 v -2 h 6 c 1.1,0 2,0.9 2,2 z" /></g><g
       style="display:inline"
       id="g164"
       class="st1"><path
         id="path162"
         d="m 20,28 c -1.1,0 -2,-0.9 -2,-2 0,-1.1 0.9,-2 2,-2 v 0 c 1.1,0 2,0.9 2,2 0,1.1 -0.9,2 -2,2 z" /></g><g
       style="display:inline"
       id="g168"
       class="st1"><path
         id="path166"
         d="m 28,28 c -1.1,0 -2,-0.9 -2,-2 0,-1.1 0.9,-2 2,-2 v 0 c 1.1,0 2,0.9 2,2 0,1.1 -0.9,2 -2,2 z" /></g><g
       style="display:inline"
       id="g172"
       class="st1"><path
         id="path170"
         d="m 36,28 c -1.1,0 -2,-0.9 -2,-2 0,-1.1 0.9,-2 2,-2 v 0 c 1.1,0 2,0.9 2,2 0,1.1 -0.9,2 -2,2 z" /></g><g
       style="display:inline"
       id="g176"
       class="st1"><path
         id="path174"
         d="m 12,36 c -1.1,0 -2,-0.9 -2,-2 0,-1.1 0.9,-2 2,-2 v 0 c 1.1,0 2,0.9 2,2 0,1.1 -0.9,2 -2,2 z" /></g><g
       style="display:inline"
       id="g180"
       class="st1"><path
         id="path178"
         d="m 20,36 c -1.1,0 -2,-0.9 -2,-2 0,-1.1 0.9,-2 2,-2 v 0 c 1.1,0 2,0.9 2,2 0,1.1 -0.9,2 -2,2 z" /></g><g
       style="display:inline"
       id="g184"
       class="st1"><path
         id="path182"
         d="m 28,36 c -1.1,0 -2,-0.9 -2,-2 0,-1.1 0.9,-2 2,-2 v 0 c 1.1,0 2,0.9 2,2 0,1.1 -0.9,2 -2,2 z" /></g></g><g
     transform="translate(-20,-4)"
     style="display:none"
     id="g192"
     class="st0"><g
       style="display:inline"
       id="g190"
       class="st1"><path
         id="path188"
         d="M 4,42 C 3.7,42 3.5,42 3.2,41.8 2.5,41.5 2,40.8 2,40 V 4 C 2,2.9 2.9,2 4,2 h 40 c 1.1,0 2,0.9 2,2 v 24 c 0,1.1 -0.9,2 -2,2 H 16.8 L 5.4,41.4 C 5,41.8 4.5,42 4,42 Z M 6,6 v 29.2 l 8.6,-8.6 C 15,26.2 15.5,26 16,26 H 42 V 6 Z" /></g></g><g
     transform="translate(-20,-4)"
     style="display:none"
     id="g198"
     class="st0"><g
       style="display:inline"
       id="g196"
       class="st1"><path
         id="path194"
         d="m 24,42 v 0 c -0.7,0 -1.4,-0.4 -1.7,-1 l -4,-7 H 8 C 7.3,34 6.6,33.6 6.3,33 5.9,32.4 5.9,31.6 6.3,31 l 5.1,-9 -5.1,-9 c -0.4,-0.6 -0.4,-1.4 0,-2 0.4,-0.6 1,-1 1.7,-1 h 10.3 l 4,-7 c 0.4,-0.6 1,-1 1.7,-1 0.7,0 1.4,0.4 1.7,1 l 4,7 H 40 c 0.7,0 1.4,0.4 1.7,1 0.4,0.6 0.4,1.4 0,2 l -5.1,9 5.1,9 c 0.4,0.6 0.4,1.4 0,2 -0.4,0.6 -1,1 -1.7,1 H 29.7 l -4,7 c -0.3,0.6 -1,1 -1.7,1 z M 11.4,30 h 8 c 0.7,0 1.4,0.4 1.7,1 l 2.8,5 2.8,-5 c 0.4,-0.6 1,-1 1.7,-1 h 8 l -4,-7 C 32,22.4 32,21.6 32.4,21 l 4,-7 h -8 C 27.7,14 27,13.6 26.7,13 L 24,8 21.2,13 c -0.4,0.6 -1,1 -1.7,1 h -8 l 4,7 c 0.4,0.6 0.4,1.4 0,2 z" /></g></g><g
     transform="translate(-20,-4)"
     style="display:none"
     id="g212"
     class="st0"><g
       style="display:inline"
       id="g202"
       class="st1"><path
         id="path200"
         d="m 38,15.6 c 0,0 0,0 0,0 0,-0.1 -0.1,-0.2 -0.1,-0.3 0,0 0,0 0,-0.1 -0.1,-0.1 -0.1,-0.2 -0.2,-0.3 0,0 0,0 0,0 -0.1,-0.1 -0.2,-0.2 -0.2,-0.3 0,0 -0.1,-0.1 -0.1,-0.1 L 25.5,2.7 c 0,0 -0.1,-0.1 -0.1,-0.1 -0.1,-0.1 -0.2,-0.2 -0.3,-0.2 0,0 0,0 0,0 C 25,2.3 24.9,2.3 24.8,2.2 c 0,0 0,0 -0.1,0 -0.1,-0.1 -0.2,-0.1 -0.3,-0.1 0,0 0,0 0,0 -0.1,0 -0.3,0 -0.4,0 H 8 C 6.9,2 6,2.9 6,4 v 40 c 0,1.1 0.9,2 2,2 h 28 c 1.1,0 2,-0.9 2,-2 V 16 c 0,-0.1 0,-0.3 0,-0.4 z M 26,8.8 31.2,14 H 26 Z M 34,42 H 10 V 6 h 12 v 10 c 0,1.1 0.9,2 2,2 h 10 z" /></g><g
       style="display:inline"
       id="g206"
       class="st1"><path
         id="path204"
         d="M 28,28 H 16 c -1.1,0 -2,-0.9 -2,-2 0,-1.1 0.9,-2 2,-2 h 12 c 1.1,0 2,0.9 2,2 0,1.1 -0.9,2 -2,2 z" /></g><g
       style="display:inline"
       id="g210"
       class="st1"><path
         id="path208"
         d="M 28,36 H 16 c -1.1,0 -2,-0.9 -2,-2 0,-1.1 0.9,-2 2,-2 h 12 c 1.1,0 2,0.9 2,2 0,1.1 -0.9,2 -2,2 z" /></g></g><g
     transform="translate(-20,-4)"
     style="display:none"
     id="g230"
     class="st0"><g
       style="display:inline"
       id="g216"
       class="st1"><path
         id="path214"
         d="M 44,34 H 16 c -1.1,0 -2,-0.9 -2,-2 v -7 c 0,-1.1 0.9,-2 2,-2 1.1,0 2,0.9 2,2 v 5 H 42 V 14 H 18 v 5 c 0,1.1 -0.9,2 -2,2 -1.1,0 -2,-0.9 -2,-2 v -7 c 0,-1.1 0.9,-2 2,-2 h 28 c 1.1,0 2,0.9 2,2 v 20 c 0,1.1 -0.9,2 -2,2 z" /></g><g
       style="display:inline"
       id="g220"
       class="st1"><path
         id="path218"
         d="M 4,34 C 2.9,34 2,33.1 2,32 V 12 c 0,-1.1 0.9,-2 2,-2 1.1,0 2,0.9 2,2 v 20 c 0,1.1 -0.9,2 -2,2 z" /></g><g
       style="display:inline"
       id="g224"
       class="st1"><path
         id="path222"
         d="M 4,34 C 3.3,34 2.6,33.6 2.3,33 1.7,32 2.1,30.8 3,30.3 l 12,-7 c 1,-0.6 2.2,-0.2 2.7,0.7 0.6,1 0.2,2.2 -0.7,2.7 l -12,7 C 4.7,33.9 4.3,34 4,34 Z" /></g><g
       style="display:inline"
       id="g228"
       class="st1"><path
         id="path226"
         d="m 16,21 c -0.3,0 -0.7,-0.1 -1,-0.3 L 3,13.7 C 2,13.1 1.7,11.9 2.3,11 2.9,10.1 4.1,9.7 5,10.3 l 12,7 c 1,0.6 1.3,1.8 0.7,2.7 -0.3,0.6 -1,1 -1.7,1 z" /></g></g><g
     transform="translate(-20,-4)"
     style="display:none"
     id="g236"
     class="st0"><g
       style="display:inline"
       id="g234"
       class="st1"><path
         id="path232"
         d="M 44,2 H 4 C 2.9,2 2,2.9 2,4 v 40 c 0,1.1 0.9,2 2,2 h 40 c 1.1,0 2,-0.9 2,-2 V 4 C 46,2.9 45.1,2 44,2 Z M 6,6 h 36 v 17.2 l -8.6,-8.6 c -0.1,-0.1 -0.2,-0.2 -0.3,-0.2 0,0 0,0 -0.1,0 -0.1,-0.1 -0.2,-0.1 -0.3,-0.2 -0.1,0 -0.2,-0.1 -0.4,-0.1 -0.1,0 -0.2,0 -0.4,0 -0.2,0 -0.3,0 -0.4,0 v 0 c -0.1,0 -0.2,0.1 -0.4,0.1 -0.1,0.1 -0.2,0.1 -0.3,0.2 0,0 0,0 0,0 -0.1,0.1 -0.2,0.2 -0.3,0.2 -0.1,0.1 -0.2,0.2 -0.2,0.3 0,0 0,0 0,0 l -9.5,13.8 -5.2,-6 -0.1,-0.1 c -0.1,-0.1 -0.2,-0.2 -0.2,-0.2 -0.1,-0.1 -0.1,-0.1 -0.2,-0.2 0,0 -0.1,0 -0.1,0 -0.1,0 -0.1,-0.1 -0.2,-0.1 0,0 -0.1,0 -0.1,0 0,0 0,0 0,0 -0.1,0 -0.2,0 -0.2,-0.1 -0.1,0 -0.2,0 -0.3,0 -0.1,0 -0.2,0 -0.3,0 -0.1,0 -0.2,0 -0.3,0.1 -0.2,0 -0.3,0.1 -0.4,0.2 -0.1,0 -0.1,0.1 -0.2,0.1 0,0 0,0 0,0 -0.1,0.1 -0.2,0.2 -0.3,0.3 L 6,30.5 Z M 42,42 H 6 v -5.3 l 8,-9.6 5.5,6.2 c 0.1,0.1 0.1,0.1 0.2,0.2 0.1,0.1 0.1,0.1 0.2,0.2 0.2,0.1 0.3,0.2 0.5,0.2 0,0 0.1,0 0.1,0 0.1,0 0.1,0 0.2,0 0.1,0 0.2,0 0.3,0 0.1,0 0.2,0 0.3,0 0.1,0 0.2,0 0.4,-0.1 0.1,-0.1 0.2,-0.1 0.3,-0.2 0.1,-0.1 0.2,-0.1 0.3,-0.2 0.1,0 0.1,-0.1 0.2,-0.2 0.1,-0.1 0.1,-0.1 0.2,-0.2 v 0 l 9.6,-14 9.7,9.7 z" /></g></g><g
     transform="translate(-20,-4)"
     style="display:none"
     id="g248"
     class="st0"><g
       style="display:inline"
       id="g242"
       class="st1"><g
         id="g240"><path
           id="path238"
           d="M 30.5,30.7 30,29.2 c -0.3,-0.8 -1,-1.3 -1.9,-1.3 h -7.5 c -0.8,0 -1.6,0.5 -1.9,1.3 l -0.5,1.5 c -0.3,0.8 -1,1.3 -1.9,1.3 h -1.5 c -1.4,0 -2.4,-1.4 -1.9,-2.7 l 7.7,-20 C 20.9,8.5 21.6,8 22.5,8 h 3.7 C 27,8 27.7,8.5 28,9.3 l 7.7,20 c 0.5,1.3 -0.5,2.7 -1.9,2.7 h -1.5 c -0.8,0 -1.5,-0.5 -1.8,-1.3 z m -8.1,-12.4 -0.9,2.5 c -0.5,1.3 0.5,2.7 1.9,2.7 h 1.8 c 1.4,0 2.4,-1.4 1.9,-2.7 l -0.9,-2.5 c -0.6,-1.8 -3.1,-1.8 -3.8,0 z" /></g></g><g
       style="display:inline"
       id="g246"
       class="st1"><path
         id="path244"
         d="M 36,38 H 12 c -1.1,0 -2,-0.9 -2,-2 0,-1.1 0.9,-2 2,-2 h 24 c 1.1,0 2,0.9 2,2 0,1.1 -0.9,2 -2,2 z" /></g></g><g
     transform="translate(-20,-4)"
     style="display:none"
     id="g254"
     class="st0"><g
       style="display:inline"
       id="g252"
       class="st1"><path
         id="path250"
         d="M 28,2 H 16 c -1.1,0 -2,0.9 -2,2 v 32 c 0,0.1 0,0.2 0,0.2 0,0 0,0.1 0,0.1 0,0.2 0.1,0.4 0.2,0.6 0,0.1 0.1,0.1 0.1,0.2 0,0 0,0 0,0 l 0.1,0.1 5.9,7.9 c 0.1,0.1 0.2,0.3 0.4,0.4 0.4,0.3 0.8,0.4 1.2,0.4 0.6,0 1.2,-0.3 1.6,-0.8 l 5.9,-7.9 0.1,-0.1 c 0,0 0,0 0,0 0,-0.1 0.1,-0.1 0.1,-0.2 0.1,-0.2 0.2,-0.4 0.2,-0.6 0,0 0,-0.1 0,-0.1 0,-0.1 0,-0.2 0,-0.2 V 4 C 30,2.9 29.1,2 28,2 Z M 18,6 h 8 v 4 H 18 Z M 22,40.7 20,38 h 4 z M 26,34 H 18 V 14 h 8 z" /></g></g><g
     transform="translate(-20,-4)"
     style="display:none"
     id="g264"
     class="st0"><g
       style="display:inline"
       id="g258"
       class="st1"><path
         id="path256"
         d="M 26.8,27.3 C 28.8,25.5 30,22.9 30,20 30,14.5 25.5,10 20,10 c -5.5,0 -10,4.5 -10,10 0,2.9 1.2,5.5 3.2,7.3 C 6.6,30 2,36.5 2,44 c 0,1.1 0.9,2 2,2 1.1,0 2,-0.9 2,-2 0,-7.7 6.3,-14 14,-14 7.7,0 14,6.3 14,14 0,1.1 0.9,2 2,2 1.1,0 2,-0.9 2,-2 C 38,36.5 33.4,30 26.8,27.3 Z M 14,20 c 0,-3.3 2.7,-6 6,-6 3.3,0 6,2.7 6,6 0,3.3 -2.7,6 -6,6 -3.3,0 -6,-2.7 -6,-6 z" /></g><g
       style="display:inline"
       id="g262"
       class="st1"><path
         id="path260"
         d="m 48,14 c 0,1.1 -0.9,2 -2,2 h -4 v 4 c 0,1.1 -0.9,2 -2,2 -1.1,0 -2,-0.9 -2,-2 v -4 h -4 c -1.1,0 -2,-0.9 -2,-2 0,-1.1 0.9,-2 2,-2 h 4 V 8 c 0,-1.1 0.9,-2 2,-2 1.1,0 2,0.9 2,2 v 4 h 4 c 1.1,0 2,0.9 2,2 z" /></g></g><g
     transform="translate(-20,-4)"
     style="display:none"
     id="g274"
     class="st0"><g
       style="display:inline"
       id="g268"
       class="st1"><path
         id="path266"
         d="M 44,10 H 38 V 4 C 38,2.9 37.1,2 36,2 H 4 C 2.9,2 2,2.9 2,4 v 28 c 0,0.8 0.4,1.5 1.1,1.8 C 3.4,33.9 3.7,34 4,34 4.4,34 4.8,33.9 5.2,33.6 L 10,30 v 10 c 0,0.8 0.4,1.5 1.1,1.8 0.3,0.1 0.6,0.2 0.9,0.2 0.5,0 0.9,-0.2 1.2,-0.4 l 10,-8 c 0.9,-0.7 1,-2 0.3,-2.8 -0.7,-0.8 -2,-1 -2.8,-0.3 L 14,35.8 V 14 h 28 v 12 c 0,1.1 0.9,2 2,2 1.1,0 2,-0.9 2,-2 V 12 c 0,-1.1 -0.9,-2 -2,-2 z m -32,0 c -1.1,0 -2,0.9 -2,2 V 25 L 6,28 V 6 h 28 v 4 z" /></g><g
       style="display:inline"
       id="g272"
       class="st1"><path
         id="path270"
         d="m 46,32 c 0,1.1 -0.9,2 -2,2 h -6 v 6 c 0,1.1 -0.9,2 -2,2 -1.1,0 -2,-0.9 -2,-2 v -6 h -6 c -1.1,0 -2,-0.9 -2,-2 0,-1.1 0.9,-2 2,-2 h 6 v -6 c 0,-1.1 0.9,-2 2,-2 1.1,0 2,0.9 2,2 v 6 h 6 c 1.1,0 2,0.9 2,2 z" /></g></g><g
     transform="translate(-20,-4)"
     style="display:none"
     id="g284"
     class="st0"><g
       style="display:inline"
       id="g278"
       class="st1"><path
         id="path276"
         d="M 24,46 C 11.9,46 2,36.1 2,24 2,11.9 11.9,2 24,2 36.1,2 46,11.9 46,24 46,36.1 36.1,46 24,46 Z M 24,6 C 14.1,6 6,14.1 6,24 6,33.9 14.1,42 24,42 33.9,42 42,33.9 42,24 42,14.1 33.9,6 24,6 Z" /></g><g
       style="display:inline"
       id="g282"
       class="st1"><path
         id="path280"
         d="M 16,34 C 15.6,34 15.3,33.9 14.9,33.7 14.3,33.3 14,32.7 14,32 V 16 c 0,-0.7 0.4,-1.3 0.9,-1.7 0.6,-0.4 1.3,-0.4 1.9,-0.1 l 16,8 c 0.7,0.3 1.1,1 1.1,1.8 0,0.8 -0.4,1.5 -1.1,1.8 l -16,8 C 16.6,33.9 16.3,34 16,34 Z m 2,-14.8 v 9.5 l 9.5,-4.8 z" /></g></g><g
     transform="translate(-20,-4)"
     style="display:none"
     id="g290"
     class="st0"><g
       style="display:inline"
       id="g288"
       class="st1"><path
         id="path286"
         d="M 38,10 V 34 C 38,41.7 31.7,48 24,48 16.3,48 10,41.7 10,34 V 2 c 0,-1.1 0.9,-2 2,-2 1.1,0 2,0.9 2,2 v 32 c 0,5.5 4.5,10 10,10 5.5,0 10,-4.5 10,-10 V 10 C 34,6.7 31.3,4 28,4 24.7,4 22,6.7 22,10 v 24 c 0,1.1 0.9,2 2,2 1.1,0 2,-0.9 2,-2 V 16 c 0,-1.1 0.9,-2 2,-2 1.1,0 2,0.9 2,2 v 18 c 0,3.2 -2.6,5.9 -5.8,6 -0.1,0 -0.1,0 -0.2,0 -3.3,0 -6,-2.7 -6,-6 V 10 C 18,4.5 22.5,0 28,0 33.5,0 38,4.5 38,10 Z" /></g></g><g
     transform="translate(-20,-4)"
     style="display:none"
     id="g296"
     class="st0"><g
       style="display:inline"
       id="g294"
       class="st1"><path
         id="path292"
         d="m 45.7,10.9 c -0.3,-0.5 -0.8,-0.8 -1.3,-0.9 0,0 -0.1,0 -0.1,0 -0.4,-0.1 -0.9,0.1 -1.3,0.3 h -0.1 l -8.9,6 V 12 c 0,-1.1 -0.9,-2 -2,-2 H 4 c -1.1,0 -2,0.9 -2,2 v 24 c 0,1.1 0.9,2 2,2 h 28 c 1.1,0 2,-0.9 2,-2 v -4.3 l 8.8,5.9 h 0.1 c 0.3,0.2 0.7,0.3 1.1,0.3 0.1,0 0.1,0 0.2,0 0,0 0.1,0 0.1,0 0.5,-0.1 1,-0.4 1.3,-0.9 0.2,-0.3 0.3,-0.7 0.3,-1.1 V 12 c 0.1,-0.4 0,-0.8 -0.2,-1.1 z M 30,34 H 6 V 14 h 24 z m 4,-12.9 8,-5.3 V 32.3 L 34,27 Z" /></g></g></svg>