<svg width="24" height="24" viewBox="0 0 24 24" fill="none" xmlns="http://www.w3.org/2000/svg">
    <rect width="24" height="24" fill="none" rx="0" ry="0"></rect>
    <path fill-rule="evenodd" clip-rule="evenodd" d="M18.3191 15.5084L16.2391 12.3884L18.1891 9.44844C18.3691 9.16844 18.2991 8.79844 18.0191 8.61844C17.7391 8.43844 17.3691 8.50844 17.1891 8.78844L15.5091 11.3084L13.8291 8.78844C13.6491 8.50844 13.2691 8.43844 12.9991 8.61844C12.7191 8.79844 12.6491 9.17844 12.8291 9.44844L14.7791 12.3884L12.6991 15.5084C12.5191 15.7884 12.5891 16.1584 12.8691 16.3384C12.9691 16.4084 13.0891 16.4384 13.1991 16.4384C13.3891 16.4384 13.5791 16.3484 13.6991 16.1684L15.4991 13.4684L17.2991 16.1684C17.4191 16.3384 17.6091 16.4384 17.7991 16.4384C17.9091 16.4384 18.0291 16.4084 18.1291 16.3384C18.4291 16.1584 18.4991 15.7784 18.3191 15.5084Z" 
            class="fill-accent"></path>
    <path fill-rule="evenodd" clip-rule="evenodd" d="M12.2291 4.41831C11.9291 4.27831 11.5691 4.39831 11.4291 4.69831C11.3291 4.89831 9.09912 9.58831 9.09912 12.8383C9.09912 15.9926 11.1927 19.8447 11.4216 20.266L11.4391 20.2983C11.5491 20.4983 11.7491 20.6083 11.9591 20.6083C12.0591 20.6083 12.1591 20.5883 12.2491 20.5283C12.5391 20.3683 12.6391 19.9983 12.4791 19.7083L12.4705 19.6924C12.3204 19.4172 10.2891 15.6925 10.2891 12.8383C10.2891 10.003 12.285 5.68215 12.4834 5.25261C12.4928 5.2322 12.4982 5.22058 12.4991 5.21831C12.6591 4.91831 12.5291 4.55831 12.2291 4.41831ZM8.51912 7.44835C7.56913 7.03835 6.76913 7.00835 6.14913 7.34835C5.16913 7.88835 4.88913 9.15835 4.81913 10.6284H3.89913C3.56913 10.6284 3.29912 10.8984 3.29912 11.2284C3.29912 11.5584 3.56913 11.8284 3.89913 11.8284H4.79912C4.79912 11.9784 4.80162 12.1284 4.80412 12.2784C4.80662 12.4284 4.80912 12.5784 4.80912 12.7284C4.85912 15.1084 4.33912 16.3084 3.88912 16.6184C3.80912 16.6684 3.51912 16.6884 2.91912 16.4084C2.61912 16.2684 2.25912 16.3884 2.11912 16.6884C1.97912 16.9884 2.09913 17.3484 2.39913 17.4884C2.89913 17.7284 3.34913 17.8484 3.73913 17.8484C4.04913 17.8484 4.31912 17.7684 4.55912 17.6184C5.54912 16.9584 6.06913 15.2084 6.01913 12.7084C6.00913 12.4284 6.00912 12.1284 6.00912 11.8284H7.14913C7.47913 11.8284 7.74912 11.5584 7.74912 11.2284C7.74912 10.8984 7.47913 10.6284 7.14913 10.6284H6.03913C6.08913 9.58835 6.26913 8.66835 6.73913 8.39835C7.09913 8.19835 7.65912 8.36835 8.05912 8.54835C8.36912 8.67835 8.71913 8.53835 8.84913 8.23835C8.95913 7.92835 8.81913 7.57835 8.51912 7.44835ZM18.8192 4.41831C19.1192 4.27831 19.4791 4.39831 19.6192 4.69831C19.6227 4.70613 19.6295 4.72082 19.6393 4.74201C19.8801 5.26285 21.9392 9.71538 21.9392 12.8383C21.9392 16.0983 19.6992 20.1283 19.5992 20.2983C19.4892 20.4983 19.2892 20.6083 19.0792 20.6083C18.9792 20.6083 18.8792 20.5783 18.7892 20.5283C18.4992 20.3583 18.3992 19.9983 18.5592 19.7083C18.5792 19.6783 20.7492 15.7883 20.7492 12.8383C20.7492 10.003 18.7533 5.68226 18.5549 5.25262C18.5454 5.23221 18.5401 5.22058 18.5392 5.21831C18.3992 4.91831 18.5192 4.55831 18.8192 4.41831Z"
            class="fill-font-primary"></path>
    <path fill-rule="evenodd" clip-rule="evenodd" d="M15.4991 13.4684L14.7418 12.4445L12.6991 15.5084C12.5191 15.7884 12.5891 16.1584 12.8691 16.3384C12.9691 16.4084 13.0891 16.4384 13.1991 16.4384C13.3891 16.4384 13.5791 16.3484 13.6991 16.1684L15.4991 13.4684ZM15.5091 11.3084L16.2391 12.3884L18.1891 9.44844C18.3691 9.16844 18.2991 8.79844 18.0191 8.61844C17.7391 8.43844 17.3691 8.50844 17.1891 8.78844L15.5091 11.3084Z"
            class="fill-font-secondary" fill-opacity="0.3"></path>
</svg>