<svg width="89" height="89" viewBox="0 0 89 89" fill="none" xmlns="http://www.w3.org/2000/svg">
<path d="M64.1225 4.44474L69.3775 7.47883L62.4173 19.5351L57.1623 16.501L64.1225 4.44474ZM84.5553 24.8775L81.5212 19.6225L69.4649 26.5827L72.499 31.8377L84.5553 24.8775ZM75.0796 47.5341H89V41.4659H75.0796V47.5341ZM69.4649 62.4173L81.5212 69.3775L84.5553 64.1225L72.499 57.1623L69.4649 62.4173ZM57.1623 72.499L64.1225 84.5553L69.3775 81.5212L62.4173 69.4649L57.1623 72.499ZM41.4659 89H47.5341V75.0796H41.4659V89ZM19.6225 81.5212L24.8775 84.5553L31.8377 72.499L26.5827 69.4649L19.6225 81.5212ZM4.44474 64.1225L7.47883 69.3775L19.5351 62.4173L16.501 57.1623L4.44474 64.1225ZM0 47.5341H13.9204V41.4659H0V47.5341ZM19.5347 26.5827L7.47883 19.6225L4.44474 24.8775L16.5006 31.8377L19.5347 26.5827ZM19.6225 7.47883L26.5827 19.5347L31.8377 16.5006L24.8775 4.44474L19.6225 7.47883ZM41.4659 13.92H47.5341V0H41.4659V13.92Z" fill="white"/>
</svg>
