<svg width="48" height="47" viewBox="0 0 48 47" fill="none" xmlns="http://www.w3.org/2000/svg">
<path d="M44.7611 11.9976C42.6159 8.30671 39.7061 5.38466 36.0308 3.23075C32.355 1.07673 28.3422 0 23.9894 0C19.6371 0 15.6229 1.07706 11.9479 3.23075C8.27234 5.38455 5.3626 8.30671 3.21739 11.9976C1.0725 15.6883 0 19.7186 0 24.0884C0 29.3375 1.52511 34.0576 4.57609 38.25C7.62674 42.4426 11.5677 45.3438 16.3987 46.9538C16.9611 47.0586 17.3774 46.9849 17.648 46.7345C17.9188 46.4838 18.054 46.1698 18.054 45.7939C18.054 45.7312 18.0487 45.1668 18.0383 44.1002C18.0276 43.0336 18.0225 42.1031 18.0225 41.3091L17.3041 41.4339C16.846 41.5182 16.2681 41.5539 15.5704 41.5438C14.8731 41.534 14.1491 41.4606 13.3996 41.3242C12.6497 41.1889 11.9523 40.8753 11.3067 40.3839C10.6614 39.8925 10.2033 39.2492 9.93256 38.4552L9.62021 37.7334C9.41201 37.2529 9.08423 36.7191 8.63644 36.1339C8.18864 35.5483 7.73582 35.1513 7.27774 34.9422L7.05904 34.785C6.91331 34.6805 6.77808 34.5545 6.65303 34.4083C6.52809 34.262 6.43455 34.1157 6.37208 33.9692C6.3095 33.8225 6.36136 33.7022 6.5282 33.6078C6.69504 33.5135 6.99657 33.4677 7.43408 33.4677L8.05856 33.5614C8.47507 33.6452 8.99025 33.8956 9.60478 34.314C10.219 34.7321 10.7239 35.2757 11.1196 35.9445C11.5988 36.8021 12.1761 37.4556 12.8532 37.9052C13.5298 38.3549 14.2119 38.5793 14.899 38.5793C15.5861 38.5793 16.1795 38.527 16.6795 38.423C17.1789 38.3184 17.6475 38.1612 18.085 37.9522C18.2724 36.5506 18.7827 35.4739 19.6154 34.7213C18.4285 34.596 17.3615 34.4074 16.4137 34.1566C15.4665 33.9054 14.4876 33.4979 13.4778 32.9327C12.4675 32.3684 11.6293 31.6676 10.9632 30.8316C10.2969 29.9951 9.75007 28.8969 9.3235 27.5381C8.89671 26.1787 8.68326 24.6105 8.68326 22.8332C8.68326 20.3026 9.50599 18.1491 11.1511 16.3716C10.3805 14.4691 10.4532 12.3363 11.3696 9.97339C11.9735 9.78498 12.8691 9.92637 14.0559 10.3967C15.243 10.8672 16.1121 11.2703 16.6641 11.6045C17.2162 11.9386 17.6585 12.2217 17.9918 12.4513C19.9288 11.9078 21.9277 11.636 23.9891 11.636C26.0506 11.636 28.0499 11.9078 29.9871 12.4513L31.174 11.6988C31.9857 11.1968 32.9442 10.7367 34.0472 10.3185C35.1509 9.90044 35.9948 9.78531 36.5782 9.97372C37.5149 12.3367 37.5984 14.4694 36.8275 16.3719C38.4725 18.1495 39.2956 20.3035 39.2956 22.8336C39.2956 24.6109 39.0814 26.184 38.6552 27.5538C38.2285 28.9239 37.677 30.0209 37.0005 30.8473C36.3232 31.6735 35.4796 32.3688 34.4698 32.9331C33.4598 33.4978 32.4806 33.9053 31.5334 34.1565C30.5857 34.4076 29.5187 34.5964 28.3319 34.7218C29.4143 35.6624 29.9557 37.1472 29.9557 39.1754V45.793C29.9557 46.169 30.0859 46.4828 30.3465 46.7336C30.6067 46.984 31.0178 47.0577 31.5801 46.9528C36.4118 45.343 40.3528 42.4418 43.4033 38.2491C46.4535 34.0567 47.9792 29.3366 47.9792 24.0875C47.9781 19.7183 46.905 15.6883 44.7611 11.9976Z" class="fill-font-primary"/>
</svg>
