<svg width="46" height="38" viewBox="0 0 46 38" fill="none" xmlns="http://www.w3.org/2000/svg">
<path d="M15.3257 36.4892C15.3257 37.7929 14.3271 38.3313 13.2212 37.7929L1.28417 31.9531C0.923833 31.7862 0.621 31.5066 0.37375 31.1146C0.1265 30.7225 0 30.3323 0 29.9477V1.38259C0 0.317045 0.653583 -0.165074 2.13133 0.555291L15.249 6.97105C15.4387 7.15677 15.2988 5.88112 15.3257 36.4892ZM16.9682 9.62552L30.6762 31.3265L16.9682 24.6613V9.62552ZM46 10.0776V36.4892C46 36.9075 45.8812 37.2452 45.6397 37.5041C45.4001 37.7629 45.0742 37.8924 44.6641 37.8924C44.2539 37.8924 43.8514 37.7836 43.4585 37.566L32.1387 32.0525L46 10.0776ZM45.9233 7.07048C45.9233 7.12113 43.7287 10.6254 39.3396 17.5814C34.9504 24.5375 32.3783 28.612 31.625 29.7976L21.6143 13.9102L29.9307 0.705368C30.383 -0.0225018 31.3107 -0.150067 31.9336 0.153838L45.8217 6.9204C45.8888 6.95229 45.9233 7.00294 45.9233 7.07048Z" class="fill-font-primary"/>
</svg>
