<svg width="48" height="48" viewBox="0 0 24 24" fill="none" xmlns="http://www.w3.org/2000/svg"><rect width="24" height="24" fill="none" rx="0" ry="0"></rect><path fill-rule="evenodd" clip-rule="evenodd" d="M16.398 8.65005L20.478 4.57005C20.648 4.40005 20.698 4.14005 20.608 3.92005C20.518 3.70005 20.298 3.55005 20.058 3.55005H6.05801C5.72801 3.55005 5.45801 3.82005 5.45801 4.15005V13.15C5.45801 13.48 5.72801 13.75 6.05801 13.75H20.058C20.298 13.75 20.518 13.6 20.608 13.38C20.698 13.16 20.648 12.9 20.478 12.73L16.398 8.65005ZM6.64801 12.55V4.75005H18.598L15.118 8.23005C14.888 8.46005 14.888 8.84005 15.118 9.08005L18.598 12.56H6.64801V12.55Z" fill="#4fb8ff"></path><path fill-rule="evenodd" clip-rule="evenodd" d="M5.448 2.6C5.448 2.27 5.718 2 6.048 2C6.378 2 6.648 2.27 6.648 2.6V20.8H8.1479C8.4779 20.8 8.7479 21.07 8.7479 21.4C8.7479 21.73 8.4779 22 8.1479 22H3.9479C3.6179 22 3.3479 21.73 3.3479 21.4C3.3479 21.07 3.6179 20.8 3.9479 20.8H5.448V2.6Z" fill="#ffffff"></path><path fill-rule="evenodd" clip-rule="evenodd" d="M8.1479 20.8H3.9479C3.6179 20.8 3.3479 21.07 3.3479 21.4C3.3479 21.73 3.6179 22 3.9479 22H8.1479C8.4779 22 8.7479 21.73 8.7479 21.4C8.7479 21.07 8.4779 20.8 8.1479 20.8Z" fill="black" fill-opacity="0.2"></path></svg>