<svg width="32" height="30" viewBox="0 0 32 30" fill="none" xmlns="http://www.w3.org/2000/svg">
<path d="M30.104 3.21715L28.0512 2.35925V16.193L31.7739 7.21562C32.402 5.653 31.682 3.86059 30.104 3.21715ZM0.230454 8.88548L7.82907 27.1926C8.30398 28.3722 9.42232 29.0923 10.6019 29.1229C11.0003 29.1229 11.4139 29.0463 11.8122 28.8778L23.1029 24.2053C24.2519 23.7303 24.9566 22.5967 24.9872 21.463C25.0025 21.0647 24.9259 20.6204 24.7881 20.2221L17.1282 1.91497C16.6839 0.73535 15.5502 0.0153198 14.3553 0C13.957 0 13.5587 0.0919188 13.1757 0.229797L1.90031 4.90233C0.337692 5.54576 -0.412977 7.33818 0.230454 8.88548ZM24.9719 3.06396C24.9719 2.25134 24.6491 1.47202 24.0745 0.897412C23.4999 0.322809 22.7206 0 21.9079 0H19.6866L24.9719 12.7767" fill="#979797"/>
</svg>
