<svg height='100px' width='100px'  fill="#4fb8ff" xmlns="http://www.w3.org/2000/svg" xmlns:xlink="http://www.w3.org/1999/xlink" version="1.1" x="0px" y="0px" viewBox="0 0 100 100" style="enable-background:new 0 0 100 100;" xml:space="preserve"><path d="M45.7,84c4.6,0,8.6-1.4,11.5-4.3l9.3-9.3c3-3,4.5-7.4,4.3-12.6c-0.1-1.1-1-1.9-2.1-1.9  c-1.1,0.1-2,1-1.9,2.1c0.2,4-0.9,7.3-3.1,9.6c-6.7,6.7-22.4,2.1-34.4-9.9c-12-12-16.5-27.8-9.9-34.4c5.6-5.6,17.8-3.5,29,5.1  c0.9,0.7,2.1,0.5,2.8-0.4c0.7-0.9,0.5-2.1-0.4-2.8c-13-10-27.1-11.9-34.3-4.8l-9.3,9.3c-8.5,8.5-4.1,26.1,9.9,40.1  C26.3,78.9,37.1,84,45.7,84z M10.2,53.3l6.3-6.3c0.7,1.4,1.6,2.9,2.5,4.3l-6.4,6.4C11.7,56.2,10.9,54.8,10.2,53.3z M7.4,44.8  l5.9-5.9c0.4,1.4,0.8,2.8,1.4,4.2l-6.2,6.2C8,47.8,7.7,46.3,7.4,44.8z M21.4,54.6c1.1,1.5,2.4,2.9,3.7,4.4l-6.5,6.5  c-1.3-1.4-2.6-2.9-3.7-4.4L21.4,54.6z M32.2,65.4l-6.5,6.5c-1.5-1.1-2.9-2.3-4.3-3.6l6.5-6.5C29.4,63.1,30.8,64.3,32.2,65.4z   M39.8,70.4l-6.4,6.4c-1.5-0.7-2.9-1.5-4.4-2.5l6.4-6.4C37,68.8,38.4,69.6,39.8,70.4z M37.5,78.4l6.2-6.2c1.4,0.6,2.8,1,4.2,1.4  l-6,6c-0.7-0.1-1.4-0.3-2.1-0.5C39,78.9,38.2,78.6,37.5,78.4z M56.7,74.5l-2.3,2.3c-1.8,1.8-4.2,2.8-7.2,3.1l5.4-5.4  c0.8,0.1,1.7,0.1,2.5,0.1C55.6,74.6,56.2,74.6,56.7,74.5z M12.4,34.1l-5.3,5.3c0.3-2.8,1.2-5.2,3-6.9l2.3-2.3  C12.3,31.5,12.3,32.8,12.4,34.1z"></path><path d="M96.4,40.7L77.7,21.8c-0.8-0.8-2-0.8-2.8,0c-0.4,0.4-0.6,1-0.6,1.6c0,0.1,0,0.1,0,0.2v9.6h-6.4  c-1.1,0-2,0.9-2,2c0,1.1,0.9,2,2,2h8.4c1.1,0,2-0.9,2-2v-7.1l13.9,14l-13.9,14v-6.7c0-1.1-0.9-2-2-2h-8.4c-1.1,0-2,0.9-2,2  s0.9,2,2,2h6.4v9.6c0,0,0,0,0,0c0,0.1,0,0.3,0,0.4c0,0.1,0,0.1,0.1,0.2c0,0.1,0,0.1,0.1,0.2c0,0.1,0.1,0.1,0.1,0.2  c0,0,0,0.1,0.1,0.1c0.1,0.1,0.2,0.2,0.3,0.3l0,0c0,0,0,0,0,0c0.1,0.1,0.2,0.2,0.3,0.2c0,0,0.1,0.1,0.1,0.1c0.1,0,0.1,0.1,0.2,0.1  c0.1,0,0.1,0,0.2,0.1c0.1,0,0.1,0,0.2,0.1c0.1,0,0.3,0,0.4,0c0.1,0,0.3,0,0.4,0c0.1,0,0.1,0,0.2-0.1c0.1,0,0.1,0,0.2-0.1  c0.1,0,0.1-0.1,0.2-0.1c0.1,0,0.1,0,0.2-0.1c0.1-0.1,0.2-0.2,0.3-0.3l0,0l18.7-18.8C97.2,42.7,97.2,41.4,96.4,40.7z"></path><path d="M61.1,47.3h-4.2c-1.1,0-2,0.9-2,2s0.9,2,2,2h4.2c1.1,0,2-0.9,2-2S62.2,47.3,61.1,47.3z"></path><path d="M61.1,33.2h-4.2c-1.1,0-2,0.9-2,2c0,1.1,0.9,2,2,2h4.2c1.1,0,2-0.9,2-2C63.1,34.1,62.2,33.2,61.1,33.2z"></path><path d="M47.5,47.3h-1.8c-1.1,0-2,0.9-2,2s0.9,2,2,2h1.8c1.1,0,2-0.9,2-2S48.6,47.3,47.5,47.3z"></path><path d="M47.5,33.2h-1.8c-1.1,0-2,0.9-2,2c0,1.1,0.9,2,2,2h1.8c1.1,0,2-0.9,2-2C49.5,34.1,48.6,33.2,47.5,33.2z"></path><path d="M34.7,47.3h-0.2c-1.1,0-2,0.9-2,2s0.9,2,2,2h0.2c1.1,0,2-0.9,2-2S35.8,47.3,34.7,47.3z"></path><path d="M34.7,33.2h-0.2c-1.1,0-2,0.9-2,2c0,1.1,0.9,2,2,2h0.2c1.1,0,2-0.9,2-2C36.7,34.1,35.8,33.2,34.7,33.2z"></path></svg>