<svg height='100px' width='100px'  class="fill-accent" xmlns="http://www.w3.org/2000/svg" data-name="Layer 1" viewBox="0 0 128 128" x="0px" y="0px">
<path d="M64,0a64,64,0,1,0,64,64A64.07215,64.07215,0,0,0,64,0ZM95.13,21.27a2.00083,2.00083,0,0,1,2.81-.31c1.06.86,2.1,1.75995,3.09,2.69a1.99871,1.99871,0,1,1-2.73,2.92c-.92-.86-1.88-1.7-2.87-2.49A1.99062,1.99062,0,0,1,95.13,21.27Zm5.63,41.66L58.31,105.37l-11.3-8.49L92.26,51.63ZM84.91,15.33a1.99572,1.99572,0,0,1,2.67-.93c1.22.59,2.44,1.24,3.62,1.93a2.00273,2.00273,0,0,1-1.01,3.73,1.9173,1.9173,0,0,1-1-.28c-1.1-.63-2.22-1.23-3.35-1.78A1.99571,1.99571,0,0,1,84.91,15.33ZM73.62,11.85A1.98851,1.98851,0,0,1,76.01,10.34c1.32.3,2.65.66,3.96,1.06a1.9996,1.9996,0,0,1-.59,3.91,1.96186,1.96186,0,0,1-.59-.09c-1.21-.37-2.44-.7-3.67-.98A1.99447,1.99447,0,0,1,73.62,11.85Zm.8,51.96L59.19,79.04a34.59388,34.59388,0,0,0-3.13-2.53L71.89,60.68A36.40524,36.40524,0,0,0,74.42,63.81ZM63.83,9H64c1.3,0,2.62.05,3.92.14a1.99752,1.99752,0,0,1-.14,3.99h-.15C66.43,13.04,65.21,13,64,13h-.17a2,2,0,0,1,0-4ZM51.65,10.42c1.33-.31,2.68-.57,4.02-.78a1.99845,1.99845,0,1,1,.61,3.95c-1.24005.19-2.49005.44-3.72.72a1.741,1.741,0,0,1-.45.06,2.0018,2.0018,0,0,1-.46-3.95ZM40.11,14.55c1.22-.6,2.48-1.16,3.74-1.67A1.999,1.999,0,0,1,45.34,16.59c-1.17.47-2.33.99-3.46,1.55a1.95218,1.95218,0,0,1-.88.2,1.997,1.997,0,0,1-.89-3.79ZM29.8,21.17c1.06-.86,2.16-1.69,3.27-2.46a2.00014,2.00014,0,1,1,2.29,3.28c-1.03.72-2.05,1.49-3.03,2.28a2.00629,2.00629,0,0,1-1.26.45,1.97413,1.97413,0,0,1-1.55-.74A1.999,1.999,0,0,1,29.8,21.17Zm-8.58,8.75c.84-1.08,1.73-2.13,2.65-3.13a1.99954,1.99954,0,1,1,2.95,2.7c-.85.92-1.67,1.9-2.45,2.89a1.96865,1.96865,0,0,1-1.57.77,2.03957,2.03957,0,0,1-1.24-.42A2.004,2.004,0,0,1,21.22,29.92ZM14.78,40.35c.59-1.23,1.22-2.46,1.89-3.64a2.00194,2.00194,0,0,1,3.48,1.98c-.62,1.09-1.21,2.23-1.75,3.37a1.99758,1.99758,0,0,1-1.81,1.14,1.95139,1.95139,0,0,1-.85-.19A2.002,2.002,0,0,1,14.78,40.35ZM10.81,51.94c.3-1.32.65-2.65,1.04-3.95a1.99947,1.99947,0,0,1,3.83,1.15c-.37,1.2-.69,2.44-.96,3.67a2.00525,2.00525,0,0,1-1.95,1.57,2.20025,2.20025,0,0,1-.44-.05A2.01022,2.01022,0,0,1,10.81,51.94ZM9.5,64.11V64c0-1.32.05-2.66.14-3.97a1.99991,1.99991,0,0,1,3.99.28c-.09,1.22-.13,2.46-.13,3.69v.11a2,2,0,0,1-4,0Zm1.37,12.18c-.3-1.33-.56-2.68-.76-4.02a2.00188,2.00188,0,1,1,3.96-.59c.18,1.24.42,2.5.7,3.72a2.01893,2.01893,0,0,1-1.51,2.4,2.29519,2.29519,0,0,1-.45.05A1.99361,1.99361,0,0,1,10.87,76.29ZM17.55,88.8a2.03971,2.03971,0,0,1-.86.2,1.99752,1.99752,0,0,1-1.81-1.14c-.58-1.22-1.13-2.49-1.62-3.75a1.99629,1.99629,0,1,1,3.72-1.45c.46,1.17.97,2.34,1.51,3.47A2.00525,2.00525,0,0,1,17.55,88.8Zm6.62,9.78a2.00954,2.00954,0,0,1-1.24.43,1.98829,1.98829,0,0,1-1.57-.76c-.85-1.06-1.66-2.17-2.42-3.3a2.0025,2.0025,0,1,1,3.32-2.24c.7,1.04,1.45,2.08,2.23,3.06A2.00012,2.00012,0,0,1,24.17,98.58ZM28.35,42l9.03-9.03a10.83837,10.83837,0,0,1,7.65-3.22A9.86322,9.86322,0,0,1,52.04,32.61s1.95,1.71,4.34,3.93L31.92,61c-2.22-2.39-3.93-4.35-3.93-4.35A10.36038,10.36038,0,0,1,28.35,42ZM32.78,106.66a1.982,1.982,0,0,1-2.81006.3c-1.05-.85-2.09-1.75-3.09-2.69a1.9985,1.9985,0,0,1,2.74-2.91c.92.86,1.88,1.7,2.86,2.49A1.99158,1.99158,0,0,1,32.78,106.66ZM34.68,63.9l24.6-24.6a43.01068,43.01068,0,0,1,5.2,5.76C65.5,46.62,67.17,52,67.17,52a38.275,38.275,0,0,0,2.5,5.25L52.63,74.29a38.275,38.275,0,0,0-5.25-2.5S42,70.12,40.44,69.1A43.00641,43.00641,0,0,1,34.68,63.9Zm8.31,48.73a2.00334,2.00334,0,0,1-1.8,1.12,2.09369,2.09369,0,0,1-.88-.2c-1.22-.6-2.43-1.25-3.61-1.94a1.99893,1.99893,0,1,1,2.02-3.45c1.09.64,2.21,1.24005,3.34,1.79A2.00709,2.00709,0,0,1,42.99,112.63Zm11.28,3.5a1.99635,1.99635,0,0,1-1.95,1.56,1.72416,1.72416,0,0,1-.44-.06c-1.33-.3-2.66-.66-3.96-1.06a2.00054,2.00054,0,0,1,1.19-3.82c1.2.37,2.43.7,3.66.99A1.9869,1.9869,0,0,1,54.27,116.13ZM64.05,119H64c-1.34,0-2.7-.05-4.03-.15a2.00026,2.00026,0,0,1,.29-3.99c1.24.09,2.5.14,3.74.14a2.03187,2.03187,0,0,1,2.03,2A1.98252,1.98252,0,0,1,64.05,119Zm1.34-15.05L99.33,70.01l3.54,3.54L68.93,107.49Zm10.84,13.66c-1.32.31-2.67.56-4.02.77a1.51278,1.51278,0,0,1-.3.02,1.9959,1.9959,0,0,1-.3-3.97c1.24-.19,2.49-.43,3.72-.72a2.00123,2.00123,0,0,1,.9,3.9Zm11.55-4.11c-1.22.6-2.48,1.16-3.74005,1.66a1.90637,1.90637,0,0,1-.74.14,1.99424,1.99424,0,0,1-.74-3.85c1.16-.47,2.33-.99,3.46-1.54a1.99912,1.99912,0,1,1,1.76,3.59ZM98.1,106.9c-1.05.86-2.15,1.69-3.27,2.46a2.00141,2.00141,0,0,1-2.28-3.29c1.03-.71,2.05-1.48,3.04-2.27A1.99438,1.99438,0,1,1,98.1,106.9Zm8.6-8.72c-.83,1.06-1.72,2.11-2.64,3.12a2.00325,2.00325,0,0,1-2.96-2.7c.86-.94,1.68005-1.91,2.46-2.9a2.00062,2.00062,0,0,1,3.14,2.48Zm6.47-10.42c-.59,1.23-1.23,2.45-1.9,3.63a1.99,1.99,0,0,1-1.74,1.01,2.12213,2.12213,0,0,1-.99005-.26,1.99786,1.99786,0,0,1-.74-2.73c.62-1.1,1.21-2.23,1.75-3.37a2.00393,2.00393,0,0,1,3.62,1.72Zm3.99-11.59c-.3,1.33-.65,2.66-1.04,3.96a2.00092,2.00092,0,0,1-3.83-1.16c.37-1.21.69-2.45.97-3.67a1.99792,1.99792,0,1,1,3.9.87ZM118.5,64c0,1.36-.05,2.73-.15,4.08a1.99761,1.99761,0,0,1-1.99,1.86.75578.75578,0,0,1-.15-.01,1.99669,1.99669,0,0,1-1.85-2.14c.09-1.25.14-2.53.14-3.79v-.21a2.00006,2.00006,0,1,1,4-.03Zm-1.39-12.4c.3,1.32.56,2.68005.76,4.02a2.00626,2.00626,0,0,1-1.68,2.28c-.1.00995-.2.02-.3.02a1.997,1.997,0,0,1-1.97-1.7c-.19-1.25-.43-2.5-.71-3.73a2.00012,2.00012,0,1,1,3.9-.89ZM110.4,39.1a1.99969,1.99969,0,0,1,2.67.94c.59,1.22,1.14,2.48,1.63,3.74005a2.0111,2.0111,0,0,1-1.13,2.6,2.08511,2.08511,0,0,1-.73.13,1.98464,1.98464,0,0,1-1.86-1.27c-.46-1.17-.97-2.34-1.52-3.47A1.99674,1.99674,0,0,1,110.4,39.1Zm-1.94-3.37a1.99132,1.99132,0,0,1-2.78-.53c-.7-1.04-1.46-2.07-2.24-3.06a1.99673,1.99673,0,1,1,3.13-2.48c.85,1.06,1.66,2.17,2.42,3.29A1.99579,1.99579,0,0,1,108.46,35.73Z"></path><path d="M32.72607,54.88037a2.00123,2.00123,0,0,0,1.896-2.63721,8.42762,8.42762,0,0,1,.063-5.4209,2.00006,2.00006,0,0,0-3.77832-1.31348,12.4452,12.4452,0,0,0-.07666,8.00781A2.001,2.001,0,0,0,32.72607,54.88037Z"></path><path d="M58.31982,95.46631a1.99927,1.99927,0,0,0,2.82813,0L90.84668,65.76758a1.99979,1.99979,0,0,0-2.82812-2.82813L58.31982,92.63818A1.99927,1.99927,0,0,0,58.31982,95.46631Z"></path></svg>