<svg width="`100%" height="100%" viewBox="0 0 24 24" fill="none" xmlns="http://www.w3.org/2000/svg">
<rect width="24" height="24" fill="none" rx="0" ry="0"></rect>
<path fill-rule="evenodd" clip-rule="evenodd" d="M13.9898 4.45613C13.8462 7.65359 12.2012 10.4602 9.74276 12.1877C10.9548 13.4132 12.5242 14.2846 14.2819 14.6324C14.9259 11.98 16.6275 9.74117 18.9149 8.38766C19.1013 8.74377 19.261 9.11607 19.3914 9.50189C17.4834 10.6771 16.058 12.5601 15.4811 14.785C15.6528 14.795 15.8258 14.8 16 14.8C17.9371 14.8 19.728 14.1742 21.1815 13.1136C21.5612 13.3086 21.8402 13.5212 21.7205 13.8512C21.6598 14.0187 21.586 14.1861 21.5002 14.3529C19.9223 15.394 18.0319 16 16 16C15.7509 16 15.5039 15.9909 15.2593 15.973C15.2201 16.3099 15.2 16.6526 15.2 17C15.2 17.709 15.2838 18.3983 15.4421 19.0587C15.0593 19.2066 14.6769 19.3352 14.3003 19.4419C14.1041 18.6604 14 17.8424 14 17C14 16.5987 14.0236 16.2029 14.0696 15.8139C11.9686 15.403 10.1032 14.3342 8.69649 12.8308C7.2962 13.5771 5.69749 14 3.99999 14C3.54582 14 3.09871 13.9698 2.66059 13.9111C2.46187 13.4998 2.31574 13.0827 2.23188 12.6657C2.22877 12.6502 2.22774 12.6356 2.22866 12.6217C2.80084 12.7386 3.39325 12.8 3.99999 12.8C5.40585 12.8 6.73472 12.4704 7.91349 11.8841C6.88751 10.4765 6.22011 8.79085 6.04561 6.9614C6.39167 6.55285 6.77903 6.18038 7.20124 5.85045C7.20041 5.90021 7.19999 5.95008 7.19999 6.00004C7.19999 7.97828 7.85275 9.80405 8.95462 11.2737C11.2144 9.73147 12.7184 7.16363 12.7968 4.24024C13.2045 4.28161 13.603 4.35439 13.9898 4.45613Z" fill="#e0e0e08a"></path>
<path fill-rule="evenodd" clip-rule="evenodd" d="M21.9879 12.4965C21.7292 17.7887 17.3564 22 12 22C7.52905 22 3.7434 19.0659 2.46353 15.0182C2.9971 15.079 3.44009 15.083 3.7509 15.0715C4.99711 18.4171 8.22027 20.8 12 20.8C16.3641 20.8 19.9863 17.6232 20.6801 13.456C20.8333 13.3615 20.998 13.2545 21.1716 13.134C21.4991 12.9068 21.7716 12.6869 21.9879 12.4965ZM3.42499 13.9859C3.27779 13.3477 3.2 12.6829 3.2 12C3.2 7.13989 7.13989 3.2 12 3.2C16.8601 3.2 20.8 7.13989 20.8 12C20.8 12.0907 20.7986 12.181 20.7959 12.2711C21.0825 12.1019 21.3374 11.929 21.5108 11.7672C21.671 11.6176 21.8276 11.4487 21.9742 11.2765C21.6035 6.09138 17.2796 2 12 2C6.47715 2 2 6.47715 2 12C2 12.6251 2.05736 13.2368 2.1671 13.8302C2.61782 13.9082 3.07356 13.9716 3.42499 13.9859Z" fill="#e0e0e08a">
</path></svg>