<svg width="49" height="46" viewBox="0 0 49 46" fill="none" xmlns="http://www.w3.org/2000/svg">
<path d="M3.08568 28.0788C2.95932 28.7706 2.87109 29.471 2.87109 30.1875C2.87109 38.9065 12.7218 46 24.5957 46C36.4696 46 46.1289 38.9065 46.1289 30.1875C46.1289 29.471 46.0407 28.7706 45.9143 28.0788C47.776 27.107 49 25.1877 49 23C49 19.8289 46.4246 17.25 43.2578 17.25C41.8107 17.25 40.451 17.7932 39.4084 18.7403C35.8001 16.2213 31.0127 14.6191 25.7195 14.4169L28.4664 3.74686L34.6614 5.91733C34.7522 9.00983 37.2771 11.5 40.3867 11.5C43.5535 11.5 46.1289 8.92111 46.1289 5.75C46.1289 2.57889 43.5535 0 40.3867 0C38.1788 0 36.2805 1.26755 35.3201 3.10148L26.4671 0.0014974L22.7467 14.4439C17.7402 14.7583 13.0351 16.3362 9.59162 18.7403C8.54898 17.7932 7.18932 17.25 5.74219 17.25C2.57539 17.25 0 19.8289 0 23C0 25.1877 1.22395 27.107 3.08568 28.0788ZM33.209 23C35.5836 23 37.5156 24.9346 37.5156 27.3125C37.5156 29.6904 35.5836 31.625 33.209 31.625C30.8344 31.625 28.9023 29.6904 28.9023 27.3125C28.9023 24.9346 30.8344 23 33.209 23ZM32.5951 35.699L33.8228 38.2959C31.1286 39.5747 27.9378 40.25 24.5957 40.25C21.2536 40.25 17.8714 39.5747 15.1772 38.2959L16.4049 35.6987C21.0315 37.8916 27.9685 37.8916 32.5951 35.699ZM15.791 23C18.1656 23 20.0977 24.9346 20.0977 27.3125C20.0977 29.6904 18.1656 31.625 15.791 31.625C13.4164 31.625 11.4844 29.6904 11.4844 27.3125C11.4844 24.9346 13.4164 23 15.791 23Z" class="fill-font-primary"/>
</svg>
