<svg
   xmlns:dc="http://purl.org/dc/elements/1.1/"
   xmlns:cc="http://creativecommons.org/ns#"
   xmlns:rdf="http://www.w3.org/1999/02/22-rdf-syntax-ns#"
   xmlns:svg="http://www.w3.org/2000/svg"
   xmlns="http://www.w3.org/2000/svg"
   id="svg4"
   version="1.1"
   height="24px"
   width="24px"
   viewBox="0 0 24 24"
   fill="#000000">
  <metadata
     id="metadata10">
    <rdf:RDF>
      <cc:Work
         rdf:about="">
        <dc:format>image/svg+xml</dc:format>
        <dc:type
           rdf:resource="http://purl.org/dc/dcmitype/StillImage" />
        <dc:title></dc:title>
      </cc:Work>
    </rdf:RDF>
  </metadata>
  <defs
     id="defs8" />
  <path
     style="fill:#4fb8ff;fill-opacity:1"
     id="path2"
     d="M 7.59375 3 L 9.0625 5 L 13 5 C 16.324219 5 19 7.675781 19 11 L 19 15 L 16 15 L 20 20.46875 L 24 15 L 21 15 L 21 11 C 21 6.59375 17.40625 3 13 3 Z M 4 3.53125 L 0 9 L 3 9 L 3 13 C 3 17.40625 6.59375 21 11 21 L 16.40625 21 L 14.9375 19 L 11 19 C 7.675781 19 5 16.324219 5 13 L 5 9 L 8 9 Z" />
</svg>
