<svg width="24" height="24" viewBox="0 0 24 24" fill="none" xmlns="http://www.w3.org/2000/svg"><rect width="24" height="24" fill="none" rx="0" ry="0"></rect><path fill-rule="evenodd" clip-rule="evenodd" d="M14.3901 7.64306L17.3502 3.88306L20.3101 7.64306H14.3901ZM10.61 18.083L7.64996 21.843L4.68994 18.083H10.61Z" fill="#22a6b3"></path><path fill-rule="evenodd" clip-rule="evenodd" d="M17.95 7.64294V17.1429C17.95 18.8029 16.59 20.1629 14.92 20.1629C13.25 20.1629 11.9 18.8029 11.9 17.1429V8.53294C11.9 7.53294 11.08 6.71294 10.07 6.71294C9.07001 6.71294 8.25 7.53294 8.25 8.53294V18.0829H7.05005V8.53294C7.05005 6.87294 8.41001 5.51294 10.07 5.51294C11.74 5.51294 13.1 6.87294 13.1 8.53294V17.1429C13.1 18.1429 13.92 18.9629 14.92 18.9629C15.93 18.9629 16.75 18.1429 16.75 17.1429V7.64294H17.95Z" fill="#ffffff"></path><path fill-rule="evenodd" clip-rule="evenodd" d="M14.92 20.1629C13.25 20.1629 11.9 18.8029 11.9 17.1429V8.53294C11.9 7.53294 11.08 6.71294 10.07 6.71294V5.51294C11.74 5.51294 13.1 6.87294 13.1 8.53294V17.1429C13.1 18.1429 13.92 18.9629 14.92 18.9629V20.1629Z" fill="white" fill-opacity="0.3"></path></svg>