<svg width="16" height="16" viewBox="0 0 16 16" fill="none" xmlns="http://www.w3.org/2000/svg">
<path d="M13.7051 7.21321H15.8691V8.65586H13.7051V7.21321ZM0 7.21321H2.16396V8.65586H0V7.21321ZM8.65586 0V2.16396H7.21321V0H8.65586ZM2.82758 1.8033L4.36399 3.34693L3.33972 4.36399L1.8033 2.83479L2.82758 1.8033ZM11.5051 3.33972L13.0343 1.8033L14.0658 2.83479L12.5294 4.36399L11.5051 3.33972ZM7.93454 3.60661C9.08237 3.60661 10.1832 4.06258 10.9948 4.87423C11.8065 5.68587 12.2625 6.7867 12.2625 7.93454C12.2625 9.53587 11.3897 10.9352 10.0985 11.6854V12.9838C10.0985 13.1751 10.0225 13.3586 9.88723 13.4938C9.75196 13.6291 9.56848 13.7051 9.37718 13.7051H6.49189C6.30059 13.7051 6.11712 13.6291 5.98184 13.4938C5.84657 13.3586 5.77057 13.1751 5.77057 12.9838V11.6854C4.47941 10.9352 3.60661 9.53587 3.60661 7.93454C3.60661 6.7867 4.06258 5.68587 4.87423 4.87423C5.68587 4.06258 6.7867 3.60661 7.93454 3.60661ZM9.37718 14.4264V15.1477C9.37718 15.3391 9.30118 15.5225 9.16591 15.6578C9.03063 15.7931 8.84716 15.8691 8.65586 15.8691H7.21321C7.02191 15.8691 6.83844 15.7931 6.70316 15.6578C6.56789 15.5225 6.49189 15.3391 6.49189 15.1477V14.4264H9.37718ZM7.21321 12.2625H8.65586V10.726C9.90374 10.4087 10.8198 9.27619 10.8198 7.93454C10.8198 7.16931 10.5158 6.43543 9.97474 5.89433C9.43364 5.35323 8.69976 5.04925 7.93454 5.04925C7.16931 5.04925 6.43543 5.35323 5.89433 5.89433C5.35323 6.43543 5.04925 7.16931 5.04925 7.93454C5.04925 9.27619 5.96533 10.4087 7.21321 10.726V12.2625Z" fill="white"/>
</svg>
