<?xml version="1.0" encoding="UTF-8" standalone="no"?>
<svg
   xmlns:dc="http://purl.org/dc/elements/1.1/"
   xmlns:cc="http://creativecommons.org/ns#"
   xmlns:rdf="http://www.w3.org/1999/02/22-rdf-syntax-ns#"
   xmlns:svg="http://www.w3.org/2000/svg"
   xmlns="http://www.w3.org/2000/svg"
   height="100.00006"
   width="100.0001"
   id="svg10"
   version="1.1"
   y="0px"
   x="0px"
   viewBox="0 0 100.0001 100.00006"
   data-name="Layer 1">
  <metadata
     id="metadata16">
    <rdf:RDF>
      <cc:Work
         rdf:about="">
        <dc:format>image/svg+xml</dc:format>
        <dc:type
           rdf:resource="http://purl.org/dc/dcmitype/StillImage" />
        <dc:title>setng cog</dc:title>
      </cc:Work>
    </rdf:RDF>
  </metadata>
  <defs
     id="defs14" />
  <title
     id="title2">setng cog</title>
  <path
     style="fill:currentColor;fill-opacity:1"
     id="path4"
     d="m 98.44,43.73 c -0.8,-0.51 -7.11,-4.28 -9.61,-5.43 l -3.1,-7.5 c 0.92,-2.48 2.69,-9.43 3,-10.64 a 3.34,3.34 0 0 0 -0.9,-3.1 L 82.94,12.2 a 3.32,3.32 0 0 0 -3.1,-0.9 c -0.92,0.21 -8,2 -10.64,3 L 61.7,11.2 C 60.61,8.8 56.94,2.65 56.27,1.59 A 3.32,3.32 0 0 0 53.44,0 h -6.88 a 3.35,3.35 0 0 0 -2.83,1.56 c -0.51,0.8 -4.28,7.11 -5.43,9.61 l -7.5,3.1 c -2.48,-0.92 -9.43,-2.69 -10.64,-3 a 3.34,3.34 0 0 0 -3.1,0.9 l -4.86,4.89 a 3.32,3.32 0 0 0 -0.9,3.1 c 0.21,0.92 2,8 3,10.64 l -3.1,7.5 C 8.8,39.39 2.65,43.06 1.59,43.73 A 3.32,3.32 0 0 0 0,46.56 v 6.87 a 3.35,3.35 0 0 0 1.56,2.83 c 0.8,0.51 7.11,4.28 9.61,5.43 l 3.1,7.5 c -0.92,2.48 -2.69,9.43 -3,10.64 a 3.34,3.34 0 0 0 0.9,3.1 l 4.86,4.86 a 3.32,3.32 0 0 0 3.1,0.9 c 0.92,-0.21 8,-2 10.64,-3 l 7.5,3.1 c 1.09,2.4 4.76,8.55 5.43,9.61 a 3.32,3.32 0 0 0 2.86,1.6 h 6.87 a 3.35,3.35 0 0 0 2.83,-1.56 c 0.51,-0.8 4.28,-7.11 5.43,-9.61 l 7.5,-3.1 c 2.48,0.92 9.43,2.69 10.64,3 a 3.34,3.34 0 0 0 3.1,-0.9 l 4.86,-4.86 a 3.32,3.32 0 0 0 0.9,-3.1 c -0.21,-0.92 -2,-8 -3,-10.64 l 3.1,-7.5 c 2.4,-1.09 8.55,-4.76 9.61,-5.43 A 3.32,3.32 0 0 0 100,53.44 V 46.56 A 3.3,3.3 0 0 0 98.44,43.73 Z M 50,71.77 A 21.79,21.79 0 1 1 71.81,50 21.82,21.82 0 0 1 50,71.77 Z" />
</svg>
