<svg width="24" height="24" viewBox="0 0 24 24" fill="none" xmlns="http://www.w3.org/2000/svg">
<rect width="24" height="24" fill="none" rx="0" ry="0"></rect>
<path fill-rule="evenodd" clip-rule="evenodd" d="M19.7952 12.6401C20.2651 12.97 20.665 13.3901 20.9951 13.86C21.5552 14.67 21.885 15.66 21.885 16.73C21.885 19.5101 19.625 21.7701 16.8451 21.7701C14.8052 21.7701 13.0352 20.5601 12.2551 18.8101C12.0751 18.4301 11.9451 18.0301 11.875 17.61C11.8251 17.3201 11.7952 17.0301 11.7952 16.73C11.7952 15.3401 12.3551 14.1 13.2451 13.1901C13.5851 12.85 13.9651 12.55 14.385 12.3201C15.1151 11.91 15.9451 11.6801 16.8451 11.6801C17.9451 11.6801 18.9651 12.04 19.7952 12.6401ZM12.9951 16.73C12.9951 18.85 14.7151 20.5701 16.8451 20.5701C18.9651 20.5701 20.6851 18.85 20.6851 16.73C20.6851 14.6 18.9651 12.8801 16.8451 12.8801C14.7151 12.8801 12.9951 14.6 12.9951 16.73ZM17.4407 16.1263H18.4329C18.7639 16.1263 19.0325 16.3949 19.0325 16.726C19.0325 17.057 18.7639 17.3256 18.4329 17.3256H17.4407V18.3177C17.4407 18.6488 17.1721 18.9174 16.8411 18.9174C16.51 18.9174 16.2415 18.6488 16.2415 18.3177V17.3256H15.2493C14.9182 17.3256 14.6497 17.057 14.6497 16.726C14.6497 16.3949 14.9182 16.1263 15.2493 16.1263H16.2415V15.1342C16.2415 14.8031 16.51 14.5345 16.8411 14.5345C17.1721 14.5345 17.4407 14.8031 17.4407 15.1342V16.1263Z
" class="fill-accent"></path>
<path fill-rule="evenodd" clip-rule="evenodd" d="M16.235 4.41998H18.495C19.8749 4.41998 20.995 5.53998 20.995 6.91998V13.86C20.6649 13.39 20.265 12.97 19.795 12.64V10.56H3.31494V16.31C3.31494 17.03 3.8949 17.61 4.61499 17.61H11.8749C11.9449 18.03 12.075 18.43 12.255 18.81H4.61499C3.23499 18.81 2.11499 17.69 2.11499 16.31V6.91998C2.11499 5.53998 3.23499 4.41998 4.61499 4.41998H7.67493V3.94C7.67493 2.98999 8.44495 2.22998 9.38489 2.22998C10.365 2.22998 11.1349 2.98999 11.1349 3.94V4.41998H12.775V3.94C12.775 2.98999 13.545 2.22998 14.485 2.22998C15.465 2.22998 16.235 2.98999 16.235 3.94V4.41998ZM14.525 3.42999C14.205 3.42999 13.975 3.65997 13.975 3.94V6.53998C13.975 6.82001 14.205 7.03998 14.485 7.03998H14.525C14.8051 7.03998 15.035 6.82001 15.035 6.53998V3.94C15.035 3.65997 14.8051 3.42999 14.525 3.42999ZM9.42493 3.42999C9.10498 3.42999 8.87488 3.65997 8.87488 3.94V6.53998C8.87488 6.82001 9.10498 7.03998 9.38489 7.03998H9.42493C9.70496 7.03998 9.93494 6.82001 9.93494 6.53998V3.94C9.93494 3.65997 9.70496 3.42999 9.42493 3.42999ZM3.31494 9.35999H19.795V6.91998C19.795 6.20001 19.215 5.62 18.495 5.62H16.235V6.53998C16.235 7.47998 15.465 8.23999 14.525 8.23999H14.485C13.545 8.23999 12.775 7.47998 12.775 6.53998V5.62H11.1349V6.53998C11.1349 7.47998 10.365 8.23999 9.42493 8.23999H9.38489C8.44495 8.23999 7.67493 7.47998 7.67493 6.53998V5.62H4.61499C3.8949 5.62 3.31494 6.20001 3.31494 6.91998V9.35999ZM14.385 12.3199V12.0499H12.4951V13.1899H13.2451C13.5851 12.8499 13.9651 12.5499 14.385 12.3199ZM6.84241 12.0542H4.95654V13.1857H6.84241V12.0542ZM8.72827 12.0542H10.614V13.1857H8.72827V12.0542ZM6.84241 14.3412H4.95654V15.4727H6.84241V14.3412ZM8.72827 14.3412H10.614V15.4727H8.72827V14.3412Z
" class="fill-font-primary"></path>
<path fill-rule="evenodd" clip-rule="evenodd" d="M14.385 12.0499V12.3199C13.9651 12.5499 13.5851 12.8499 13.2451 13.1899H12.4951V12.0499H14.385ZM6.84241 12.0542H4.95654V13.1857H6.84241V12.0542ZM8.72827 12.0542H10.614V13.1857H8.72827V12.0542ZM6.84241 14.3412H4.95654V15.4727H6.84241V14.3412ZM8.72827 14.3412H10.614V15.4727H8.72827V14.3412Z
" class="fill-font-secondary"></path>
</svg>