<svg width="16" height="16" viewBox="0 0 16 16" fill="none" xmlns="http://www.w3.org/2000/svg">
<path d="M13.7051 15.1477C14.5058 15.1477 15.1477 14.5058 15.1477 13.7051V12.2625H13.7051V13.7051H12.2625V15.1477H13.7051ZM10.8198 15.1477V13.7051H8.65586V15.1477H10.8198ZM7.21321 15.1477V13.7051H5.77057V12.2625H4.32793V13.7051C4.32793 14.5058 4.9699 15.1477 5.77057 15.1477H7.21321ZM15.1477 10.8198V8.65586H13.7051V10.8198H15.1477ZM5.77057 10.8198C5.77057 10.8198 5.77057 7.45125 5.77057 5.77057C7.45125 5.77057 10.8198 5.77057 10.8198 5.77057C10.8198 5.77057 10.8198 2.88529 10.8198 1.44264C10.8198 0.641976 10.1778 0 9.37718 0H1.44264C0.641976 0 0 0.641976 0 1.44264V9.37718C0 10.1778 0.641976 10.8198 1.44264 10.8198C2.88529 10.8198 5.77057 10.8198 5.77057 10.8198ZM4.32793 9.37718H1.44264V1.44264H9.37718V4.32793H5.77057C4.9699 4.32793 4.32793 4.9699 4.32793 5.77057V9.37718ZM15.1477 7.21321V5.77057C15.1477 4.9699 14.5058 4.32793 13.7051 4.32793H12.2625V5.77057H13.7051V7.21321H15.1477Z" class="fill-font-primary"/>
</svg>
