<svg width="14" height="14" viewBox="0 0 14 14" fill="none" xmlns="http://www.w3.org/2000/svg">
<path d="M11.9 5.6C11.9 6.566 10.416 7.35 9.45 7.35C8.484 7.35 7.525 6.566 7.525 5.6H6.475C6.475 6.566 5.516 7.35 4.55 7.35C3.584 7.35 2.1 6.566 2.1 5.6H1.575C1.463 6.048 1.4 6.517 1.4 7C1.4 8.48521 1.99 9.90959 3.0402 10.9598C4.09041 12.01 5.51479 12.6 7 12.6C8.48521 12.6 9.90959 12.01 10.9598 10.9598C12.01 9.90959 12.6 8.48521 12.6 7C12.6 6.517 12.537 6.048 12.425 5.6H11.9ZM7 1.4C4.928 1.4 3.115 2.527 2.149 4.2H11.851C10.885 2.527 9.072 1.4 7 1.4ZM14 7C14 8.85652 13.2625 10.637 11.9497 11.9497C10.637 13.2625 8.85652 14 7 14C6.08075 14 5.17049 13.8189 4.32122 13.4672C3.47194 13.1154 2.70026 12.5998 2.05025 11.9497C0.737498 10.637 0 8.85652 0 7C0 5.14348 0.737498 3.36301 2.05025 2.05025C3.36301 0.737498 5.14348 0 7 0C7.91925 0 8.8295 0.18106 9.67878 0.532843C10.5281 0.884626 11.2997 1.40024 11.9497 2.05025C12.5998 2.70026 13.1154 3.47194 13.4672 4.32122C13.8189 5.17049 14 6.08075 14 7ZM7 10.661C5.775 10.661 4.697 10.15 4.067 9.394L5.061 8.4C5.376 8.904 6.125 9.261 7 9.261C7.875 9.261 8.624 8.904 8.939 8.4L9.933 9.394C9.303 10.15 8.225 10.661 7 10.661Z" class="fill-font-primary"/>
</svg>
