<svg width="24" height="24" viewBox="0 0 24 24" fill="none" xmlns="http://www.w3.org/2000/svg"><rect width="24" height="24" fill="none" rx="0" ry="0"></rect><path fill-rule="evenodd" clip-rule="evenodd" d="M20.6992 5.06267C20.3086 4.67214 19.6755 4.67214 19.2849 5.06267L9.36846 14.9791L5.12944 10.7401C4.73891 10.3496 4.10575 10.3496 3.71522 10.7401L3.00707 11.4483C2.61654 11.8388 2.61654 12.472 3.00707 12.8625L7.96034 17.8158C8.02223 17.8777 8.08717 17.9346 8.15468 17.9867L8.67304 18.5051C9.06357 18.8956 9.69673 18.8956 10.0873 18.5051L10.6506 17.9418C10.6981 17.9023 10.7442 17.8603 10.7888 17.8158L11.4969 17.1076L11.4908 17.1015L21.4073 7.18504C21.7978 6.79451 21.7978 6.16135 21.4073 5.77083L20.6992 5.06267Z" fill="#ffffff"></path></svg>