<svg width="15" height="15" viewBox="0 0 15 15" fill="none" xmlns="http://www.w3.org/2000/svg">
<path d="M10.1124 5.39326C11.6831 5.39326 14.8315 6.18202 14.8315 7.75281V9.4382H10.7865V7.75281C10.7865 6.74157 10.2404 5.99326 9.46517 5.42697L10.1124 5.39326ZM4.7191 5.39326C6.28989 5.39326 9.4382 6.18202 9.4382 7.75281V9.4382H0V7.75281C0 6.18202 3.14831 5.39326 4.7191 5.39326ZM4.7191 4.04494C4.18271 4.04494 3.66828 3.83186 3.289 3.45258C2.90971 3.07329 2.69663 2.55886 2.69663 2.02247C2.69663 1.48608 2.90971 0.971655 3.289 0.592368C3.66828 0.213081 4.18271 0 4.7191 0C5.25549 0 5.76992 0.213081 6.1492 0.592368C6.52849 0.971655 6.74157 1.48608 6.74157 2.02247C6.74157 2.55886 6.52849 3.07329 6.1492 3.45258C5.76992 3.83186 5.25549 4.04494 4.7191 4.04494ZM10.1124 4.04494C9.57597 4.04494 9.06154 3.83186 8.68225 3.45258C8.30297 3.07329 8.08989 2.55886 8.08989 2.02247C8.08989 1.48608 8.30297 0.971655 8.68225 0.592368C9.06154 0.213081 9.57597 0 10.1124 0C10.6488 0 11.1632 0.213081 11.5425 0.592368C11.9218 0.971655 12.1348 1.48608 12.1348 2.02247C12.1348 2.55886 11.9218 3.07329 11.5425 3.45258C11.1632 3.83186 10.6488 4.04494 10.1124 4.04494ZM5.39326 10.618V12.1348H9.4382V10.618L11.6292 12.809L9.4382 15V13.4831H5.39326V15L3.20225 12.809L5.39326 10.618Z" fill="#DFDFDF"/>
</svg>
