<svg
   xmlns:dc="http://purl.org/dc/elements/1.1/"
   xmlns:cc="http://creativecommons.org/ns#"
   xmlns:rdf="http://www.w3.org/1999/02/22-rdf-syntax-ns#"
   xmlns:svg="http://www.w3.org/2000/svg"
   xmlns="http://www.w3.org/2000/svg"
   id="svg4"
   version="1.1"
   fill="none"
   viewBox="0 0 20 20"
   height="20"
   width="20">
  <metadata
     id="metadata10">
    <rdf:RDF>
      <cc:Work
         rdf:about="">
        <dc:format>image/svg+xml</dc:format>
        <dc:type
           rdf:resource="http://purl.org/dc/dcmitype/StillImage" />
        <dc:title></dc:title>
      </cc:Work>
    </rdf:RDF>
  </metadata>
  <defs
     id="defs8" />
  <path
     id="path2"
     d="M 10 0 C 9.6710961 8.6809985e-06 9.3440272 0.016858013 9.0195312 0.048828125 C 8.7916742 0.071277143 8.5665848 0.11060004 8.3417969 0.1484375 C 8.2412776 0.16535869 8.1390068 0.1733751 8.0390625 0.19335938 C 7.8779514 0.2255657 7.7215081 0.27248268 7.5625 0.3125 C 7.4055492 0.35198491 7.2467845 0.38453943 7.0917969 0.43164062 C 6.4687963 0.62103836 5.8654689 0.8711292 5.2910156 1.1777344 C 5.2889702 1.1788261 5.2872009 1.1805474 5.2851562 1.1816406 C 5.0000967 1.3340438 4.7210292 1.4997429 4.4511719 1.6796875 C 4.4484807 1.6814819 4.4460488 1.6837498 4.4433594 1.6855469 C 4.1744114 1.8652639 3.9137938 2.0594067 3.6621094 2.265625 C 3.6602936 2.2671127 3.6580647 2.2680423 3.65625 2.2695312 C 3.4039614 2.4765378 3.1624596 2.6969153 2.9296875 2.9296875 C 2.0011005 3.8582735 1.2642949 4.9606101 0.76171875 6.1738281 C 0.25920625 7.3871251 -6.8e-06 8.686769 0 10 C 3.5499999e-06 10.328306 0.016723966 10.654929 0.048828125 10.980469 C 0.071273827 11.208327 0.11060214 11.433414 0.1484375 11.658203 C 0.16514908 11.757477 0.17366004 11.858318 0.19335938 11.957031 C 0.22575418 12.119417 0.27217074 12.277249 0.3125 12.4375 C 0.35183561 12.593857 0.38474612 12.75184 0.43164062 12.90625 C 0.43182415 12.906854 0.43145699 12.907599 0.43164062 12.908203 C 0.52616183 13.219228 0.63686414 13.524758 0.76171875 13.826172 C 0.88617197 14.126628 1.0244314 14.421758 1.1777344 14.708984 C 1.1788261 14.71103 1.1805474 14.712799 1.1816406 14.714844 C 1.3340442 14.999903 1.4997431 15.278972 1.6796875 15.548828 C 1.6814819 15.551519 1.6837498 15.553951 1.6855469 15.556641 C 1.8652637 15.825587 2.0594083 16.086209 2.265625 16.337891 C 2.4744216 16.592737 2.6958785 16.836503 2.9296875 17.070312 C 3.1618342 17.302459 3.4033612 17.522978 3.65625 17.730469 C 3.6583741 17.732212 3.6599839 17.734587 3.6621094 17.736328 C 3.913047 17.941873 4.1739675 18.134451 4.4433594 18.314453 C 4.4460617 18.316259 4.4484679 18.318509 4.4511719 18.320312 C 4.7203206 18.499774 4.9995402 18.665651 5.2851562 18.818359 C 5.2872203 18.819463 5.2889508 18.821164 5.2910156 18.822266 C 5.5775542 18.975211 5.8726651 19.113536 6.1738281 19.238281 C 6.4742844 19.362734 6.7802958 19.473661 7.0917969 19.568359 C 7.2467822 19.615458 7.4055511 19.648017 7.5625 19.6875 C 7.7215088 19.727517 7.8779504 19.774435 8.0390625 19.806641 C 8.1390059 19.826624 8.2412785 19.834642 8.3417969 19.851562 C 8.5665864 19.889398 8.7916718 19.928725 9.0195312 19.951172 C 9.3450686 19.983274 9.6716955 19.999998 10 20 C 10.328906 19.999999 10.655971 19.983137 10.980469 19.951172 C 11.208327 19.928726 11.433414 19.889398 11.658203 19.851562 C 11.75863 19.834659 11.86123 19.826571 11.960938 19.806641 C 12.121437 19.774546 12.278719 19.727446 12.4375 19.6875 C 12.594669 19.647946 12.753359 19.615433 12.908203 19.568359 C 13.219222 19.473842 13.524755 19.363119 13.826172 19.238281 C 14.733549 18.862401 15.580838 18.356424 16.337891 17.736328 C 16.340016 17.734587 16.341626 17.732212 16.34375 17.730469 C 16.596641 17.522981 16.838166 17.302459 17.070312 17.070312 C 18.945701 15.194923 19.999972 12.652188 20 10 C 20.000002 9.671692 19.983278 9.3450645 19.951172 9.0195312 C 19.928723 8.7916742 19.8894 8.5665848 19.851562 8.3417969 C 19.835208 8.2446345 19.827783 8.1453183 19.808594 8.0488281 C 19.807947 8.0455773 19.807291 8.0423127 19.806641 8.0390625 C 19.743004 7.7207238 19.664225 7.4072548 19.570312 7.0976562 C 19.569715 7.0956873 19.568958 7.0937655 19.568359 7.0917969 C 19.473661 6.7802966 19.362734 6.4742844 19.238281 6.1738281 C 19.113528 5.8726734 18.975213 5.5775521 18.822266 5.2910156 C 18.821164 5.2889508 18.819463 5.2872203 18.818359 5.2851562 C 18.665649 4.9995422 18.499773 4.7203221 18.320312 4.4511719 C 18.318509 4.4484679 18.316259 4.4460617 18.314453 4.4433594 C 18.134453 4.1739661 17.941871 3.9130492 17.736328 3.6621094 C 17.734587 3.6599839 17.732212 3.6583742 17.730469 3.65625 C 17.522981 3.4033589 17.302459 3.1618345 17.070312 2.9296875 C 16.83754 2.6969153 16.596039 2.4765378 16.34375 2.2695312 C 16.341935 2.2680423 16.339706 2.2671126 16.337891 2.265625 C 16.11581 2.0836626 15.884057 1.9152752 15.648438 1.7539062 C 15.077808 1.3631094 14.4682 1.0276793 13.826172 0.76171875 C 13.524755 0.6368808 13.219222 0.52615799 12.908203 0.43164062 C 12.753359 0.38456664 12.594669 0.35205441 12.4375 0.3125 C 12.278719 0.2725536 12.121437 0.22545407 11.960938 0.19335938 C 11.86123 0.17342782 11.758629 0.16534177 11.658203 0.1484375 C 11.433415 0.11060004 11.208326 0.071277143 10.980469 0.048828125 C 10.654936 0.016722016 10.328308 -1.7048573e-06 10 0 z M 10 2.0039062 C 11.280526 2.0039063 12.561678 2.3089177 13.722656 2.9179688 C 14.419243 3.2833993 15.071561 3.7590611 15.65625 4.34375 C 16.046043 4.7335427 16.387343 5.1543058 16.679688 5.5976562 C 17.410548 6.7060324 17.837174 7.9566776 17.958984 9.2324219 C 17.983346 9.4875708 17.996094 9.7438947 17.996094 10 C 17.996094 11.280526 17.691082 12.561679 17.082031 13.722656 C 16.716601 14.419243 16.240939 15.071561 15.65625 15.65625 C 14.291976 17.020524 12.55362 17.78845 10.767578 17.958984 C 8.4712383 18.178243 6.0978168 17.410317 4.34375 15.65625 C 3.9535432 15.266043 3.612864 14.846214 3.3203125 14.402344 C 3.1741403 14.180669 3.0397789 13.954852 2.9179688 13.722656 C 2.3089177 12.561679 2.0039063 11.280526 2.0039062 10 C 2.0039062 9.7438948 2.0166536 9.4875707 2.0410156 9.2324219 C 2.2115499 7.44638 2.9794759 5.7080238 4.34375 4.34375 C 5.9029206 2.784579 7.9511577 2.0039061 10 2.0039062 z M 7.171875 5.7578125 L 5.7578125 7.171875 L 8.5859375 10 L 5.7578125 12.828125 L 7.171875 14.242188 L 10 11.414062 L 12.828125 14.242188 L 14.242188 12.828125 L 11.414062 10 L 14.242188 7.171875 L 12.828125 5.7578125 L 10 8.5859375 L 7.171875 5.7578125 z "
     style="fill:#1c1c1c;fill-opacity:1" />
</svg>
