<svg width="24" height="24" viewBox="0 0 24 24" fill="none" xmlns="http://www.w3.org/2000/svg"><rect width="24" height="24" fill="none" rx="0" ry="0"></rect><path fill-rule="evenodd" clip-rule="evenodd" d="M3 4C3 3.44772 3.44772 3 4 3H5H16H16.5177C16.8214 3 17.1087 3.13802 17.2984 3.37513L20.7807 7.72604C20.9227 7.90338 21 8.12376 21 8.3509V20C21 20.5523 20.5523 21 20 21H4C3.44772 21 3 20.5523 3 20V4ZM5 4.2V10C5 10.5523 5.44772 11 6 11H15C15.5523 11 16 10.5523 16 10V4.2H16.219C16.3742 4.2 16.5206 4.27207 16.6152 4.39506L19.6962 8.39851C19.7635 8.48593 19.8 8.59315 19.8 8.70346V19.3C19.8 19.5761 19.5761 19.8 19.3 19.8H4.7C4.42386 19.8 4.2 19.5761 4.2 19.3V4.7C4.2 4.42386 4.42386 4.2 4.7 4.2H5ZM6.2 4.2H14.8V9.3C14.8 9.57614 14.5761 9.8 14.3 9.8H6.7C6.42386 9.8 6.2 9.57614 6.2 9.3V4.2ZM12.5 5C12.2239 5 12 5.22386 12 5.5V8.5C12 8.77614 12.2239 9 12.5 9H13.5C13.7761 9 14 8.77614 14 8.5V5.5C14 5.22386 13.7761 5 13.5 5H12.5Z" fill="#ffffff"></path></svg>