<?xml version="1.0" encoding="UTF-8" standalone="no"?>
<svg
   xmlns:dc="http://purl.org/dc/elements/1.1/"
   xmlns:cc="http://creativecommons.org/ns#"
   xmlns:rdf="http://www.w3.org/1999/02/22-rdf-syntax-ns#"
   xmlns:svg="http://www.w3.org/2000/svg"
   xmlns="http://www.w3.org/2000/svg"
   xmlns:sodipodi="http://sodipodi.sourceforge.net/DTD/sodipodi-0.dtd"
   xmlns:inkscape="http://www.inkscape.org/namespaces/inkscape"
   width="226.777"
   height="226.777"
   viewBox="0 0 226.777 226.777"
   version="1.1"
   id="svg4609"
   sodipodi:docname="BTA-c.svg"
   inkscape:version="0.92.4 (5da689c313, 2019-01-14)">
  <metadata
     id="metadata4615">
    <rdf:RDF>
      <cc:Work
         rdf:about="">
        <dc:format>image/svg+xml</dc:format>
        <dc:type
           rdf:resource="http://purl.org/dc/dcmitype/StillImage" />
        <dc:title></dc:title>
      </cc:Work>
    </rdf:RDF>
  </metadata>
  <defs
     id="defs4613" />
  <sodipodi:namedview
     pagecolor="#ffffff"
     bordercolor="#666666"
     borderopacity="1"
     objecttolerance="10"
     gridtolerance="10"
     guidetolerance="10"
     inkscape:pageopacity="0"
     inkscape:pageshadow="2"
     inkscape:window-width="716"
     inkscape:window-height="480"
     id="namedview4611"
     showgrid="false"
     inkscape:zoom="1.1817777"
     inkscape:cx="97.403883"
     inkscape:cy="96.164677"
     inkscape:window-x="0"
     inkscape:window-y="0"
     inkscape:window-maximized="1"
     inkscape:current-layer="svg4609" />
  <path
     d="M39.39 136.08V0H10.499C4.7 0 0 4.698 0 10.496v28.417h28.458v51.446H0v126.009c0 5.794 4.701 10.496 10.499 10.496h91.417C65.363 212.908 39.39 177.535 39.39 136.08zm169.618 64.722l-36.516-36.519c6.11-7.77 9.784-17.548 9.784-28.203 0-25.251-20.471-45.721-45.721-45.721h-34.789V38.913h34.789c41 0 76.043 25.409 90.31 61.326V10.496c0-5.797-4.7-10.496-10.498-10.496H90.835v136.08c0 25.249 20.467 45.72 45.72 45.72 10.654 0 20.431-3.674 28.203-9.784l36.518 36.519a97.31 97.31 0 0 1-30.069 18.33h45.16c5.798 0 10.498-4.702 10.498-10.496V171.94a97.25 97.25 0 0 1-17.857 28.862z"
     id="path4607"
     style="fill:#f2a900;fill-opacity:1" />
</svg>
