<?xml version="1.0" encoding="UTF-8" standalone="no"?>
<!-- Created with Inkscape (http://www.inkscape.org/) -->

<svg
   xmlns:dc="http://purl.org/dc/elements/1.1/"
   xmlns:cc="http://creativecommons.org/ns#"
   xmlns:rdf="http://www.w3.org/1999/02/22-rdf-syntax-ns#"
   xmlns:svg="http://www.w3.org/2000/svg"
   xmlns="http://www.w3.org/2000/svg"
   xmlns:sodipodi="http://sodipodi.sourceforge.net/DTD/sodipodi-0.dtd"
   xmlns:inkscape="http://www.inkscape.org/namespaces/inkscape"
   width="69.664787mm"
   height="69.691246mm"
   viewBox="0 0 69.664787 69.691246"
   version="1.1"
   id="svg1005"
   inkscape:version="0.92.4 (5da689c313, 2019-01-14)"
   sodipodi:docname="BTG-c.svg">
  <defs
     id="defs999">
    <linearGradient
       y2="332.2016"
       x2="364.01151"
       y1="93.376503"
       x1="206.2014"
       gradientUnits="userSpaceOnUse"
       id="SVGID_1_">
      <stop
         id="stop6"
         style="stop-color:#F4D933"
         offset="0" />
      <stop
         id="stop8"
         style="stop-color:#E3821F"
         offset="1" />
    </linearGradient>
  </defs>
  <sodipodi:namedview
     id="base"
     pagecolor="#ffffff"
     bordercolor="#666666"
     borderopacity="1.0"
     inkscape:pageopacity="0.0"
     inkscape:pageshadow="2"
     inkscape:zoom="0.35"
     inkscape:cx="-239.77857"
     inkscape:cy="-111.15714"
     inkscape:document-units="mm"
     inkscape:current-layer="layer1"
     showgrid="false"
     inkscape:window-width="1366"
     inkscape:window-height="705"
     inkscape:window-x="-8"
     inkscape:window-y="-8"
     inkscape:window-maximized="1" />
  <metadata
     id="metadata1002">
    <rdf:RDF>
      <cc:Work
         rdf:about="">
        <dc:format>image/svg+xml</dc:format>
        <dc:type
           rdf:resource="http://purl.org/dc/dcmitype/StillImage" />
        <dc:title></dc:title>
      </cc:Work>
    </rdf:RDF>
  </metadata>
  <g
     inkscape:label="Layer 1"
     inkscape:groupmode="layer"
     id="layer1"
     transform="translate(-46.432485,-49.731756)">
    <g
       transform="matrix(0.26458333,0,0,0.26458333,8.0679025,31.660715)"
       id="g52">
      <circle
         style="fill:#ffffff"
         id="circle4"
         r="115.3"
         cy="200"
         cx="276.70001"
         class="st0" />
      <linearGradient
         y2="332.2016"
         x2="364.01151"
         y1="93.376503"
         x1="206.2014"
         gradientUnits="userSpaceOnUse"
         id="linearGradient972">
        <stop
           id="stop968"
           style="stop-color:#F4D933"
           offset="0" />
        <stop
           id="stop970"
           style="stop-color:#E3821F"
           offset="1" />
      </linearGradient>
      <path
         inkscape:connector-curvature="0"
         style="fill:url(#SVGID_1_)"
         id="path11"
         d="m 276.7,68.3 c -72.8,0 -131.7,59 -131.7,131.7 0,72.7 58.9,131.7 131.7,131.7 72.8,0 131.6,-59 131.6,-131.7 0,-72.7 -58.9,-131.7 -131.6,-131.7 z m 0,233.1 c -56,0 -101.4,-45.4 -101.4,-101.4 0,-56 45.4,-101.4 101.4,-101.4 56,0 101.3,45.4 101.3,101.4 0,56 -45.4,101.4 -101.3,101.4 z"
         class="st1" />
      <g
         id="g48">
        <g
           id="g16">
          <path
             style="fill:#152569"
             inkscape:connector-curvature="0"
             d="m 232.8,245 5.1,-10.1 h 60.8 c 8.4,0 15.2,-6.8 15.2,-15.2 v 0 c 0,-8.4 -6.8,-15.2 -15.2,-15.2 H 248 v -10.1 h 50.6 c 14,0 25.3,11.3 25.3,25.3 v 0 c 0,14 -11.3,25.3 -25.3,25.3 z"
             class="st2"
             id="XMLID_145_" />
          <path
             style="fill:#152569"
             inkscape:connector-curvature="0"
             id="path14"
             d="m 298.6,247.8 h -70.4 l 7.9,-15.8 h 62.5 c 6.8,0 12.4,-5.6 12.4,-12.4 0,-6.8 -5.6,-12.4 -12.4,-12.4 h -53.4 v -15.8 h 53.4 c 15.5,0 28.1,12.6 28.1,28.1 0,15.5 -12.6,28.3 -28.1,28.3 z m -61.3,-5.6 h 61.3 c 12.4,0 22.5,-10.1 22.5,-22.5 0,-12.4 -10.1,-22.5 -22.5,-22.5 h -47.8 v 4.5 h 47.8 c 9.9,0 18,8.1 18,18 0,9.9 -8.1,18 -18,18 h -59 z"
             class="st2" />
        </g>
        <g
           id="g21">
          <path
             style="fill:#152569"
             inkscape:connector-curvature="0"
             d="m 232.8,153.3 5.1,10.1 h 54 c 8.4,0 15.2,6.8 15.2,15.2 v 0 c 0,8.4 -6.8,15.2 -15.2,15.2 H 253 v 10.1 h 38.8 c 14,0 25.3,-11.3 25.3,-25.3 v 0 c 0,-14 -11.3,-25.3 -25.3,-25.3 z"
             class="st2"
             id="XMLID_144_" />
          <path
             style="fill:#152569"
             inkscape:connector-curvature="0"
             id="path19"
             d="M 291.8,206.8 H 250.2 V 191 h 41.6 c 6.8,0 12.4,-5.6 12.4,-12.4 0,-6.8 -5.6,-12.4 -12.4,-12.4 H 236 l -7.9,-15.8 h 63.6 c 15.5,0 28.1,12.6 28.1,28.1 0,15.5 -12.4,28.3 -28,28.3 z m -36,-5.7 h 36 c 12.4,0 22.5,-10.1 22.5,-22.5 0,-12.4 -10.1,-22.5 -22.5,-22.5 h -54.5 l 2.3,4.5 h 52.3 c 9.9,0 18,8.1 18,18 0,9.9 -8.1,18 -18,18 h -36 v 4.5 z"
             class="st2" />
        </g>
        <g
           id="g26">
          <rect
             style="fill:#152569"
             height="91.099998"
             width="10.1"
             class="st2"
             y="153.89999"
             x="248"
             id="XMLID_143_" />
          <path
             style="fill:#152569"
             inkscape:connector-curvature="0"
             id="path24"
             d="M 260.9,247.8 H 245.1 V 151 h 15.8 z m -10.1,-5.6 h 4.5 v -85.5 h -4.5 z"
             class="st2" />
        </g>
        <g
           id="g31">
          <rect
             style="fill:#152569"
             height="20.299999"
             width="10.1"
             class="st2"
             y="138.10001"
             x="260.29999"
             id="XMLID_142_" />
          <path
             style="fill:#152569"
             inkscape:connector-curvature="0"
             id="path29"
             d="M 271.9,159.8 H 259 v -23.1 h 12.9 z M 261.7,157 h 7.3 v -17.4 h -7.3 z"
             class="st2" />
        </g>
        <g
           id="g36">
          <rect
             style="fill:#152569"
             height="20.299999"
             width="10.1"
             class="st2"
             y="138.10001"
             x="282.29999"
             id="XMLID_141_" />
          <path
             style="fill:#152569"
             inkscape:connector-curvature="0"
             id="path34"
             d="m 293.8,159.8 h -12.9 v -23.1 h 12.9 z M 283.7,157 h 7.3 v -17.4 h -7.3 z"
             class="st2" />
        </g>
        <g
           id="g41">
          <rect
             style="fill:#152569"
             height="20.299999"
             width="10.1"
             class="st2"
             y="239.39999"
             x="260.29999"
             id="XMLID_140_" />
          <path
             style="fill:#152569"
             inkscape:connector-curvature="0"
             id="path39"
             d="M 271.9,261 H 259 v -23 h 12.9 z m -10.2,-2.8 h 7.3 v -17.4 h -7.3 z"
             class="st2" />
        </g>
        <g
           id="g46">
          <rect
             style="fill:#152569"
             height="20.299999"
             width="10.1"
             class="st2"
             y="239.39999"
             x="282.29999"
             id="XMLID_139_" />
          <path
             style="fill:#152569"
             inkscape:connector-curvature="0"
             id="path44"
             d="m 293.8,261 h -12.9 v -23 h 12.9 z m -10.1,-2.8 h 7.3 v -17.4 h -7.3 z"
             class="st2" />
        </g>
      </g>
      <path
         style="fill:#152569"
         inkscape:connector-curvature="0"
         id="path50"
         d="m 276.7,289.7 c -49.5,0 -89.7,-40.2 -89.7,-89.7 0,-49.5 40.2,-89.7 89.7,-89.7 49.5,0 89.7,40.2 89.7,89.7 0,49.5 -40.3,89.7 -89.7,89.7 z m 0,-170.4 c -44.5,0 -80.7,36.2 -80.7,80.7 0,44.5 36.2,80.7 80.7,80.7 44.5,0 80.7,-36.2 80.7,-80.7 0,-44.5 -36.2,-80.7 -80.7,-80.7 z"
         class="st2" />
    </g>
  </g>
</svg>
