<?xml version="1.0" encoding="UTF-8" standalone="no"?>
<svg
   xmlns:dc="http://purl.org/dc/elements/1.1/"
   xmlns:cc="http://creativecommons.org/ns#"
   xmlns:rdf="http://www.w3.org/1999/02/22-rdf-syntax-ns#"
   xmlns:svg="http://www.w3.org/2000/svg"
   xmlns="http://www.w3.org/2000/svg"
   xmlns:sodipodi="http://sodipodi.sourceforge.net/DTD/sodipodi-0.dtd"
   xmlns:inkscape="http://www.inkscape.org/namespaces/inkscape"
   width="226.777"
   height="226.777"
   viewBox="0 0 226.777 226.777"
   version="1.1"
   id="svg4691"
   sodipodi:docname="DASH-c.svg"
   inkscape:version="0.92.4 (5da689c313, 2019-01-14)">
  <metadata
     id="metadata4697">
    <rdf:RDF>
      <cc:Work
         rdf:about="">
        <dc:format>image/svg+xml</dc:format>
        <dc:type
           rdf:resource="http://purl.org/dc/dcmitype/StillImage" />
        <dc:title></dc:title>
      </cc:Work>
    </rdf:RDF>
  </metadata>
  <defs
     id="defs4695" />
  <sodipodi:namedview
     pagecolor="#ffffff"
     bordercolor="#666666"
     borderopacity="1"
     objecttolerance="10"
     gridtolerance="10"
     guidetolerance="10"
     inkscape:pageopacity="0"
     inkscape:pageshadow="2"
     inkscape:window-width="716"
     inkscape:window-height="480"
     id="namedview4693"
     showgrid="false"
     inkscape:zoom="1.0406699"
     inkscape:cx="113.3885"
     inkscape:cy="113.3885"
     inkscape:window-x="0"
     inkscape:window-y="0"
     inkscape:window-maximized="1"
     inkscape:current-layer="svg4691" />
  <path
     d="M113.388 0C50.766 0 0 50.766 0 113.388c0 62.623 50.766 113.389 113.389 113.389s113.389-50.766 113.389-113.389C226.777 50.766 176.011 0 113.388 0zM56.562 104.802h45.266l-5.238 17.024H51.326l5.236-17.024zm117.268-8.029c-1.801 6.506-7.656 26.023-10.059 32.945-2.4 6.922-6.829 12.734-12.506 16.057-5.676 3.323-7.797 4.712-15.731 4.712H54.303l5.721-18.542h76.395l11.414-37.109h-75.79l5.722-18.541h84.577c3.875 0 8.996 1.792 11.488 6.639 2.491 4.841 1.799 7.333 0 13.839z"
     id="path4689"
     style="fill:#008de4;fill-opacity:1" />
</svg>
