<?xml version="1.0" encoding="UTF-8" standalone="no"?>
<!-- Generator: Adobe Illustrator 21.0.0, SVG Export Plug-In . SVG Version: 6.00 Build 0)  -->

<svg
   xmlns:dc="http://purl.org/dc/elements/1.1/"
   xmlns:cc="http://creativecommons.org/ns#"
   xmlns:rdf="http://www.w3.org/1999/02/22-rdf-syntax-ns#"
   xmlns:svg="http://www.w3.org/2000/svg"
   xmlns="http://www.w3.org/2000/svg"
   xmlns:sodipodi="http://sodipodi.sourceforge.net/DTD/sodipodi-0.dtd"
   xmlns:inkscape="http://www.inkscape.org/namespaces/inkscape"
   version="1.1"
   id="Laag_1"
   x="0px"
   y="0px"
   viewBox="0 0 102.6 79.1"
   style="enable-background:new 0 0 102.6 79.1;"
   xml:space="preserve"
   sodipodi:docname="DCR-c.svg"
   inkscape:version="0.92.4 (5da689c313, 2019-01-14)"><metadata
   id="metadata26"><rdf:RDF><cc:Work
       rdf:about=""><dc:format>image/svg+xml</dc:format><dc:type
         rdf:resource="http://purl.org/dc/dcmitype/StillImage" /><dc:title>dcr</dc:title></cc:Work></rdf:RDF></metadata><defs
   id="defs24" /><sodipodi:namedview
   pagecolor="#ffffff"
   bordercolor="#666666"
   borderopacity="1"
   objecttolerance="10"
   gridtolerance="10"
   guidetolerance="10"
   inkscape:pageopacity="0"
   inkscape:pageshadow="2"
   inkscape:window-width="1366"
   inkscape:window-height="705"
   id="namedview22"
   showgrid="false"
   inkscape:zoom="2.9337232"
   inkscape:cx="51.299999"
   inkscape:cy="39.549999"
   inkscape:window-x="-8"
   inkscape:window-y="-8"
   inkscape:window-maximized="1"
   inkscape:current-layer="Layer_1-2" />
<style
   type="text/css"
   id="style2">
	.st0{fill:url(#_Pad__1_);}
	.st1{fill:#4971FA;}
	.st2{fill:url(#_Pad_3_1_);}
</style>
<title
   id="title4">dcr</title>
<g
   id="Laag_3">
	<g
   id="Layer_1-2">
		
			<linearGradient
   id="_Pad__1_"
   gradientUnits="userSpaceOnUse"
   x1="-7558.0513"
   y1="912.3351"
   x2="-7500.7217"
   y2="912.3351"
   gradientTransform="matrix(1 0 0 1 7603.2002 -872.83)">
			<stop
   offset="0"
   style="stop-color:#62D0C9"
   id="stop6" />
			<stop
   offset="1"
   style="stop-color:#7DE2AC"
   id="stop8" />
		</linearGradient>
		<path
   id="_Pad_"
   class="st0"
   d="M45.1,49.1h25.3c9.4,0,17.1-7.6,17.1-17.1S79.9,15,70.5,15h-8.1L45.1,0h25.3    c17.7-0.1,32.1,14.2,32.1,31.9c0.1,13.1-7.9,24.9-20.1,29.8l20,17.3H79.6L45.1,49.1z" />
		<path
   id="_Pad_2"
   class="st1"
   d="M57.5,30H32.2c-9.4,0-17.1,7.6-17.1,17.1s7.6,17.1,17.1,17.1h8.1l17.2,15H32.2    C14.5,79.2,0.1,64.9,0,47.3c-0.1-13.2,7.9-25,20.1-29.9L0.1,0H23L57.5,30z" />
		
			<linearGradient
   id="_Pad_3_1_"
   gradientUnits="userSpaceOnUse"
   x1="-7603.021"
   y1="912.3806"
   x2="-7545.6909"
   y2="912.3806"
   gradientTransform="matrix(1 0 0 1 7603.2002 -872.83)">
			<stop
   offset="0"
   style="stop-color:#3268FB"
   id="stop13" />
			<stop
   offset="1"
   style="stop-color:#4795FA"
   id="stop15" />
		</linearGradient>
		<path
   id="_Pad_3"
   class="st2"
   d="M57.5,30H32.2c-9.4,0-17.1,7.6-17.1,17.1s7.6,17.1,17.1,17.1h8.1l17.2,15H32.2    C14.5,79.2,0.1,64.9,0,47.3c-0.1-13.2,7.9-25,20.1-29.9L0.1,0H23L57.5,30z" />
	</g>
</g>
</svg>