<?xml version="1.0" encoding="UTF-8" standalone="no"?>
<svg
   xmlns:dc="http://purl.org/dc/elements/1.1/"
   xmlns:cc="http://creativecommons.org/ns#"
   xmlns:rdf="http://www.w3.org/1999/02/22-rdf-syntax-ns#"
   xmlns:svg="http://www.w3.org/2000/svg"
   xmlns="http://www.w3.org/2000/svg"
   xmlns:sodipodi="http://sodipodi.sourceforge.net/DTD/sodipodi-0.dtd"
   xmlns:inkscape="http://www.inkscape.org/namespaces/inkscape"
   viewBox="0 0 226.777 226.777"
   version="1.1"
   id="svg4859"
   sodipodi:docname="ETH-c.svg"
   inkscape:version="0.92.4 (5da689c313, 2019-01-14)">
  <metadata
     id="metadata4865">
    <rdf:RDF>
      <cc:Work
         rdf:about="">
        <dc:format>image/svg+xml</dc:format>
        <dc:type
           rdf:resource="http://purl.org/dc/dcmitype/StillImage" />
        <dc:title></dc:title>
      </cc:Work>
    </rdf:RDF>
  </metadata>
  <defs
     id="defs4863" />
  <sodipodi:namedview
     pagecolor="#ffffff"
     bordercolor="#666666"
     borderopacity="1"
     objecttolerance="10"
     gridtolerance="10"
     guidetolerance="10"
     inkscape:pageopacity="0"
     inkscape:pageshadow="2"
     inkscape:window-width="716"
     inkscape:window-height="480"
     id="namedview4861"
     showgrid="false"
     inkscape:zoom="1.1156335"
     inkscape:cx="113.3885"
     inkscape:cy="113.3885"
     inkscape:window-x="0"
     inkscape:window-y="0"
     inkscape:window-maximized="1"
     inkscape:current-layer="svg4859" />
  <path
     d="M113.313 0C50.732 0 0 50.732 0 113.313s50.732 113.313 113.313 113.313 113.313-50.732 113.313-113.313S175.894 0 113.313 0zm-1.469 188.386l-44.78-63.344 44.78 26.218v37.126zm0-46.41l-45.083-26.408 45.083-19.748v46.156zm0-49.329l-43.631 19.11 43.631-73.306v54.196zm2.906-54.218l44.244 73.6-44.244-19.382V38.429zm0 149.957V151.26l44.78-26.218-44.78 63.344zm0-46.409V95.821l45.116 19.762-45.116 26.394z"
     id="path4857"
     style="fill:#3c3c3d;fill-opacity:1" />
</svg>
