<?xml version="1.0" encoding="UTF-8" standalone="no"?>
<svg
   xmlns:dc="http://purl.org/dc/elements/1.1/"
   xmlns:cc="http://creativecommons.org/ns#"
   xmlns:rdf="http://www.w3.org/1999/02/22-rdf-syntax-ns#"
   xmlns:svg="http://www.w3.org/2000/svg"
   xmlns="http://www.w3.org/2000/svg"
   xmlns:sodipodi="http://sodipodi.sourceforge.net/DTD/sodipodi-0.dtd"
   xmlns:inkscape="http://www.inkscape.org/namespaces/inkscape"
   id="Layer_1"
   viewBox="0 0 563.3 388.8"
   version="1.1"
   sodipodi:docname="MKR-c.svg"
   inkscape:version="0.92.4 (5da689c313, 2019-01-14)">
  <metadata
     id="metadata15">
    <rdf:RDF>
      <cc:Work
         rdf:about="">
        <dc:format>image/svg+xml</dc:format>
        <dc:type
           rdf:resource="http://purl.org/dc/dcmitype/StillImage" />
        <dc:title></dc:title>
      </cc:Work>
    </rdf:RDF>
  </metadata>
  <defs
     id="defs13" />
  <sodipodi:namedview
     pagecolor="#ffffff"
     bordercolor="#666666"
     borderopacity="1"
     objecttolerance="10"
     gridtolerance="10"
     guidetolerance="10"
     inkscape:pageopacity="0"
     inkscape:pageshadow="2"
     inkscape:window-width="1366"
     inkscape:window-height="705"
     id="namedview11"
     showgrid="false"
     inkscape:zoom="0.1204"
     inkscape:cx="1250"
     inkscape:cy="863"
     inkscape:window-x="-8"
     inkscape:window-y="-8"
     inkscape:window-maximized="1"
     inkscape:current-layer="g8" />
  <style
     id="style2">.st0{fill:#1bbc9a}.st1{fill:#54697a}</style>
  <g
     transform="translate(294 -144.393)"
     id="g5">
    <path
       id="path0_fill"
       class="st0"
       d="M-286.9 145.8c4.4-2.2 9.6-1.7 13.5 1.2L-48 316.3c3.2 2.4 5.2 6.3 5.2 10.3v193.6c0 7.1-5.8 12.9-12.9 12.9-7.1 0-12.9-5.8-12.9-12.9V333.1l-199.6-150v337.1c0 7.1-5.8 12.9-12.9 12.9-7.1.1-12.9-5.7-12.9-12.8v-363c0-4.9 2.8-9.4 7.1-11.5z" />
  </g>
  <g
     transform="translate(311.28 -144.393)"
     id="g8">
    <path
       id="path1_fill"
       class="st1"
       d="M244.9 145.8c4.4 2.2 7.1 6.7 7.1 11.5v363c0 7.1-5.8 12.9-12.9 12.9-7.1 0-12.9-5.8-12.9-12.9V183.1l-199.5 150v187.2c0 7.1-5.8 12.9-12.9 12.9S.9 527.4.9 520.3V326.7c0-4.1 1.9-7.9 5.2-10.3L231.3 147c3.9-2.9 9.2-3.4 13.6-1.2z" />
  </g>
</svg>
