<?xml version="1.0" encoding="UTF-8" standalone="no"?>
<svg
   xmlns:dc="http://purl.org/dc/elements/1.1/"
   xmlns:cc="http://creativecommons.org/ns#"
   xmlns:rdf="http://www.w3.org/1999/02/22-rdf-syntax-ns#"
   xmlns:svg="http://www.w3.org/2000/svg"
   xmlns="http://www.w3.org/2000/svg"
   xmlns:sodipodi="http://sodipodi.sourceforge.net/DTD/sodipodi-0.dtd"
   xmlns:inkscape="http://www.inkscape.org/namespaces/inkscape"
   viewBox="0 0 2000 2000"
   width="2500"
   height="2500"
   version="1.1"
   id="svg6"
   sodipodi:docname="OMG-c.svg"
   inkscape:version="0.92.4 (5da689c313, 2019-01-14)">
  <metadata
     id="metadata12">
    <rdf:RDF>
      <cc:Work
         rdf:about="">
        <dc:format>image/svg+xml</dc:format>
        <dc:type
           rdf:resource="http://purl.org/dc/dcmitype/StillImage" />
        <dc:title></dc:title>
      </cc:Work>
    </rdf:RDF>
  </metadata>
  <defs
     id="defs10" />
  <sodipodi:namedview
     pagecolor="#ffffff"
     bordercolor="#666666"
     borderopacity="1"
     objecttolerance="10"
     gridtolerance="10"
     guidetolerance="10"
     inkscape:pageopacity="0"
     inkscape:pageshadow="2"
     inkscape:window-width="699"
     inkscape:window-height="480"
     id="namedview8"
     showgrid="false"
     inkscape:zoom="0.0944"
     inkscape:cx="1250"
     inkscape:cy="1250"
     inkscape:window-x="0"
     inkscape:window-y="0"
     inkscape:window-maximized="0"
     inkscape:current-layer="svg6" />
  <circle
     cx="1000"
     cy="1000"
     r="1000"
     fill="#1a53f0"
     id="circle2" />
  <path
     d="M803.2 1135.44c-127.71 0-231.24 103.83-231.24 231.91s103.54 231.91 231.25 231.91 231.25-103.83 231.25-231.91-103.53-231.91-231.25-231.91zm0 393.67c-89 0-161.21-72.38-161.21-161.68s72.18-161.68 161.21-161.68 161.22 72.38 161.22 161.68c-.15 89.22-72.24 161.57-161.22 161.68zm493.86-888.36c-127.71 0-231.25 103.83-231.25 231.91s103.54 231.91 231.25 231.91 231.25-103.83 231.25-231.91-103.52-231.92-231.24-231.92zm0 393.67c-89 0-161.21-72.38-161.21-161.68s72.15-161.68 161.22-161.68 161.22 72.38 161.22 161.68c-.15 89.26-72.29 161.52-161.22 161.67zM803.2 640.74c-110.09-.07-205 77.69-226.88 185.9S611.63 1043.53 713 1086.5a231.86 231.86 0 0 0 255.82-375.61h65.57v-70.15H803.2zm161.23 231.91c0 89.29-72.18 161.68-161.22 161.68S642 961.94 642 872.65 714.17 711 803.2 711s161.15 72.41 161.31 161.68h-.08z"
     fill="#fff"
     id="path4" />
</svg>
