<?xml version="1.0" encoding="UTF-8" standalone="no"?>
<!-- Created with Inkscape (http://www.inkscape.org/) -->

<svg
   xmlns:dc="http://purl.org/dc/elements/1.1/"
   xmlns:cc="http://creativecommons.org/ns#"
   xmlns:rdf="http://www.w3.org/1999/02/22-rdf-syntax-ns#"
   xmlns:svg="http://www.w3.org/2000/svg"
   xmlns="http://www.w3.org/2000/svg"
   xmlns:sodipodi="http://sodipodi.sourceforge.net/DTD/sodipodi-0.dtd"
   xmlns:inkscape="http://www.inkscape.org/namespaces/inkscape"
   width="51.064587mm"
   height="53.97485mm"
   viewBox="0 0 51.064587 53.97485"
   version="1.1"
   id="svg4733"
   inkscape:version="0.92.4 (5da689c313, 2019-01-14)"
   sodipodi:docname="TUSD-c.svg">
  <defs
     id="defs4727" />
  <sodipodi:namedview
     id="base"
     pagecolor="#ffffff"
     bordercolor="#666666"
     borderopacity="1.0"
     inkscape:pageopacity="0.0"
     inkscape:pageshadow="2"
     inkscape:zoom="0.7"
     inkscape:cx="-7.2934118"
     inkscape:cy="-109.02544"
     inkscape:document-units="mm"
     inkscape:current-layer="layer1"
     showgrid="false"
     inkscape:window-width="1366"
     inkscape:window-height="705"
     inkscape:window-x="-8"
     inkscape:window-y="-8"
     inkscape:window-maximized="1" />
  <metadata
     id="metadata4730">
    <rdf:RDF>
      <cc:Work
         rdf:about="">
        <dc:format>image/svg+xml</dc:format>
        <dc:type
           rdf:resource="http://purl.org/dc/dcmitype/StillImage" />
        <dc:title></dc:title>
      </cc:Work>
    </rdf:RDF>
  </metadata>
  <g
     inkscape:label="Layer 1"
     inkscape:groupmode="layer"
     id="layer1"
     transform="translate(-13.777232,-12.988741)">
    <path
       inkscape:connector-curvature="0"
       id="Fill-9"
       d="m 42.314453,45.744091 c 0,-2.25875 0,-12.51982 0,-12.51982 0,0 -0.94906,0 1.61766,0 5.33982,0 6.64184,-5.0628 6.64184,-5.0628 0,0 -7.36415,0 -13.98799,0 -6.62438,0 -7.7896,5.0628 -7.7896,5.0628 h 8.2595 v 18.81532 c 0,0 5.25859,-1.58195 5.25859,-6.2955"
       style="clip-rule:evenodd;fill:#6eb2fb;fill-opacity:1;fill-rule:nonzero;stroke-width:0.26458332;stroke-linecap:round" />
    <path
       inkscape:connector-curvature="0"
       id="Fill-10"
       d="m 58.805143,58.775081 c 5.21176,-5.3586 7.21439,-12.78704 5.35702,-19.871 -0.96494,-3.6785 -2.95355,-7.06808 -5.74966,-9.80175 -0.25506,-0.24871 -0.51435,-0.48895 -0.77814,-0.72284 l -0.26512,-0.2249 c -0.17806,-0.15293 -0.35639,-0.30639 -0.53869,-0.4527 l -0.32729,-0.25268 c -0.16774,-0.13017 -0.3347,-0.2577 -0.50429,-0.381 l -0.27808,-0.19658 c -0.24289,-0.16907 -0.40719,-0.28231 -0.57415,-0.39185 l -0.37623,-0.23945 c -0.16537,-0.10372 -0.33126,-0.20638 -0.49954,-0.30506 l -0.39105,-0.22543 c -0.16695,-0.0934 -0.33787,-0.186 -0.50853,-0.27596 l -0.39555,-0.20505 c -0.17383,-0.0873 -0.34819,-0.17013 -0.52308,-0.25215 l -0.10478,-0.049 c 0.45667,0.37465 0.89747,0.76888 1.32027,1.18242 8.01714,7.8359 8.01714,20.58617 2.7e-4,28.42181 -10.16874,9.93907 -26.71393,9.93907 -36.88266,0 -0.37121,-0.36327 -0.72575,-0.73819 -1.07156,-1.11839 l -0.29078,-0.32835 c -0.222247,-0.25294 -0.435766,-0.50641 -0.645051,-0.76385 1.296991,2.51195 3.003021,4.82864 5.068621,6.84741 10.63255,10.3931 27.93312,10.3931 38.56567,2.7e-4 0.13335,-0.13018 0.263,-0.26141 0.39238,-0.39397"
       style="clip-rule:evenodd;fill:#27377b;fill-opacity:1;fill-rule:nonzero;stroke-width:0.26458332;stroke-linecap:round" />
    <path
       inkscape:connector-curvature="0"
       id="Fill-11"
       d="m 26.281233,55.024621 c -0.45747,-0.37545 -0.89905,-0.76994 -1.32318,-1.18454 -8.01714,-7.83511 -8.01714,-20.58459 2.6e-4,-28.42022 10.16953,-9.93855 26.71631,-9.93855 36.8861,5.3e-4 0.71014,0.69347 1.37636,1.42372 1.99628,2.18678 -1.2962,-2.5027 -2.99773,-4.81145 -5.05751,-6.8244 -10.63361,-10.39204 -27.93604,-10.39204 -38.56911,0 -0.1352,0.13229 -0.26749,0.26643 -0.39899,0.40031 -7.056705,7.25461 -8.033546,18.10094 -2.37199,26.37235 2.1762,3.18082 5.29934,5.83353 8.83814,7.46919"
       style="clip-rule:evenodd;fill:#6eb2fb;fill-opacity:1;fill-rule:nonzero;stroke-width:0.26458332;stroke-linecap:round" />
  </g>
</svg>
