<?xml version="1.0" encoding="UTF-8" standalone="no"?>
<svg
   xmlns:dc="http://purl.org/dc/elements/1.1/"
   xmlns:cc="http://creativecommons.org/ns#"
   xmlns:rdf="http://www.w3.org/1999/02/22-rdf-syntax-ns#"
   xmlns:svg="http://www.w3.org/2000/svg"
   xmlns="http://www.w3.org/2000/svg"
   xmlns:sodipodi="http://sodipodi.sourceforge.net/DTD/sodipodi-0.dtd"
   xmlns:inkscape="http://www.inkscape.org/namespaces/inkscape"
   id="Layer_1"
   viewBox="0 0 308.1 436.1"
   width="1766"
   height="2500"
   version="1.1"
   sodipodi:docname="ZIL-c.svg"
   inkscape:version="0.92.4 (5da689c313, 2019-01-14)">
  <metadata
     id="metadata24">
    <rdf:RDF>
      <cc:Work
         rdf:about="">
        <dc:format>image/svg+xml</dc:format>
        <dc:type
           rdf:resource="http://purl.org/dc/dcmitype/StillImage" />
        <dc:title></dc:title>
      </cc:Work>
    </rdf:RDF>
  </metadata>
  <defs
     id="defs22" />
  <sodipodi:namedview
     pagecolor="#ffffff"
     bordercolor="#666666"
     borderopacity="1"
     objecttolerance="10"
     gridtolerance="10"
     guidetolerance="10"
     inkscape:pageopacity="0"
     inkscape:pageshadow="2"
     inkscape:window-width="699"
     inkscape:window-height="480"
     id="namedview20"
     showgrid="false"
     inkscape:zoom="0.0944"
     inkscape:cx="883"
     inkscape:cy="1250"
     inkscape:window-x="0"
     inkscape:window-y="0"
     inkscape:window-maximized="0"
     inkscape:current-layer="Layer_1" />
  <style
     id="style2">.st0{fill:#49c1bf}.st1{fill:#077a8f}.st2{fill:#298e97}</style>
  <g
     transform="translate(190.693 -109)"
     id="g5">
    <path
       id="path0_fill"
       class="st0"
       d="M117.4 289.2l-62.8 28L-112 402l166.6 80.1V349.7l62.8-28.3V517l-62.8 28-245.3-117.4v-62.4l169.8-83.3-169.8-81.6V137l63.8-28 244.3 117.6v62.6z" />
  </g>
  <g
     transform="translate(190.693 -109)"
     id="g8">
    <path
       id="path1_fill"
       class="st1"
       d="M-190.7 137L54.6 254.6l62.8-28L-126.9 109l-63.8 28z" />
  </g>
  <g
     transform="translate(208.695 -100.365)"
     id="g11">
    <path
       id="path2_fill"
       class="st2"
       d="M36.6 245.7l62.8-28v62.6l-62.8 28v-62.6z" />
  </g>
  <g
     transform="translate(190.693 -106.944)"
     id="g14">
    <path
       id="path3_fill"
       class="st0"
       d="M-190.7 135v63.3l169.8 81.6-169.8 83.3v62.4L54.6 543v-62.8L-112 400l166.6-84.8v-62.6L-190.7 135z" />
  </g>
  <g
     transform="translate(208.695 -93.411)"
     id="g17">
    <path
       id="path4_fill"
       class="st2"
       d="M36.6 529l62.8-28V305.4l-62.8 28.3V529z" />
  </g>
</svg>
