<?xml version="1.0" encoding="UTF-8" standalone="no"?><!-- Generator: Gravit.io --><svg xmlns="http://www.w3.org/2000/svg" xmlns:xlink="http://www.w3.org/1999/xlink" style="isolation:isolate" viewBox="0 0 100 100" width="100pt" height="100pt"><defs><clipPath id="_clipPath_PECQ0tbxuIwAZtnDRO4uInO7od89Runb"><rect width="100" height="100"/></clipPath></defs><g clip-path="url(#_clipPath_PECQ0tbxuIwAZtnDRO4uInO7od89Runb)"><path d=" M 53.62 7.42 C 52.873 6.127 51.493 5.33 50 5.33 C 48.507 5.33 47.127 6.127 46.38 7.42 L 28.69 38.04 C 27.945 39.335 27.945 40.928 28.691 42.223 C 29.437 43.517 30.816 44.316 32.31 44.32 L 40.82 44.32 C 43.129 44.32 45 46.191 45 48.5 L 45 71.91 C 45 74.219 46.871 76.09 49.18 76.09 L 50.82 76.09 C 53.129 76.09 55 74.219 55 71.91 L 55 48.5 C 55 46.191 56.871 44.32 59.18 44.32 L 67.69 44.32 C 69.184 44.316 70.563 43.517 71.309 42.223 C 72.055 40.928 72.055 39.335 71.31 38.04 L 53.62 7.42 Z " fill="rgb(255,255,255)"/><path d=" M 71.66 88.87 L 28.34 88.87 C 26.683 88.87 25.34 90.213 25.34 91.87 C 25.34 93.527 26.683 94.87 28.34 94.87 L 71.66 94.87 C 73.317 94.87 74.66 93.527 74.66 91.87 C 74.66 90.213 73.317 88.87 71.66 88.87 Z " fill="rgb(255,255,255)"/></g></svg>