<svg width="15" height="15" viewBox="0 0 15 15" fill="none" xmlns="http://www.w3.org/2000/svg">
<path d="M7.5 5V7.5L8.75 8.75" stroke="white" stroke-width="1.5" stroke-linecap="round" stroke-linejoin="round"/>
<path style="fill: none" d="M1.90625 12.5003V9.37529H5.03125M1.90625 6.87529C2.04631 5.50032 2.68766 4.22505 3.70796 3.29277C4.72825 2.36049 6.05606 1.83646 7.43805 1.82068C8.82004 1.80489 10.1595 2.29845 11.2008 3.20718C12.2421 4.11592 12.9124 5.37621 13.0839 6.74762C13.2553 8.11902 12.9158 9.50554 12.1302 10.6426C11.3446 11.7797 10.1679 12.5878 8.82455 12.9127C7.4812 13.2376 6.06526 13.0565 4.84687 12.4041C3.62849 11.7516 2.69295 10.6735 2.21875 9.37529L1.90625 6.87529Z" stroke="white" stroke-width="1.5" stroke-linecap="round" stroke-linejoin="round"/>
</svg>

