<svg width="236" height="45" viewBox="0 0 236 45" fill="none" xmlns="http://www.w3.org/2000/svg">
<path fill-rule="evenodd" clip-rule="evenodd" d="M22.5 10.9954L10.9954 22.5L22.5 34.0046L34.0046 22.5L22.5 10.9954ZM0 22.5L22.5 45L45 22.5L22.5 -2.85449e-06L0 22.5Z" fill="#F6F9FC"/>
<path d="M185.828 26.7695L189.695 13.9375H193.609L187.668 31H184L178.082 13.9375H181.984L185.828 26.7695ZM202.252 31C202.096 30.6953 201.983 30.3164 201.913 29.8633C201.092 30.7773 200.026 31.2344 198.713 31.2344C197.471 31.2344 196.44 30.875 195.62 30.1562C194.807 29.4375 194.401 28.5312 194.401 27.4375C194.401 26.0938 194.897 25.0625 195.889 24.3438C196.889 23.625 198.331 23.2617 200.213 23.2539H201.772V22.5273C201.772 21.9414 201.62 21.4727 201.315 21.1211C201.018 20.7695 200.545 20.5938 199.897 20.5938C199.327 20.5938 198.877 20.7305 198.549 21.0039C198.229 21.2773 198.069 21.6523 198.069 22.1289H194.682C194.682 21.3945 194.909 20.7148 195.362 20.0898C195.815 19.4648 196.456 18.9766 197.284 18.625C198.112 18.2656 199.042 18.0859 200.073 18.0859C201.635 18.0859 202.874 18.4805 203.788 19.2695C204.71 20.0508 205.17 21.1523 205.17 22.5742V28.0703C205.178 29.2734 205.346 30.1836 205.674 30.8008V31H202.252ZM199.452 28.6445C199.952 28.6445 200.413 28.5352 200.835 28.3164C201.256 28.0898 201.569 27.7891 201.772 27.4141V25.2344H200.506C198.811 25.2344 197.909 25.8203 197.799 26.9922L197.788 27.1914C197.788 27.6133 197.936 27.9609 198.233 28.2344C198.53 28.5078 198.936 28.6445 199.452 28.6445ZM215.806 29.7109C214.97 30.7266 213.814 31.2344 212.337 31.2344C210.978 31.2344 209.939 30.8438 209.22 30.0625C208.509 29.2812 208.146 28.1367 208.13 26.6289V18.3203H211.517V26.5117C211.517 27.832 212.118 28.4922 213.321 28.4922C214.47 28.4922 215.259 28.0938 215.689 27.2969V18.3203H219.087V31H215.9L215.806 29.7109ZM225.656 31H222.257V13H225.656V31ZM232.951 15.2031V18.3203H235.119V20.8047H232.951V27.1328C232.951 27.6016 233.041 27.9375 233.221 28.1406C233.401 28.3438 233.744 28.4453 234.252 28.4453C234.627 28.4453 234.959 28.418 235.248 28.3633V30.9297C234.584 31.1328 233.901 31.2344 233.197 31.2344C230.822 31.2344 229.612 30.0352 229.565 27.6367V20.8047H227.713V18.3203H229.565V15.2031H232.951Z" fill="#F6F9FC"/>
<path d="M162.386 32.1684L163.58 32.9045V32.9043C163.706 32.9824 163.851 33.0234 164 33.0234C164.148 33.0234 164.294 32.9824 164.42 32.9043L165.613 32.1682V32.1684C168.047 30.6563 170.057 28.5505 171.454 26.0486C172.851 23.5468 173.59 20.7311 173.6 17.8658V17.2002C173.6 17.0077 173.531 16.8217 173.405 16.6761C173.278 16.5308 173.104 16.4356 172.914 16.4083C169.822 15.9945 166.919 14.6824 164.566 12.6347C164.416 12.4847 164.212 12.4004 164 12.4004C163.788 12.4004 163.585 12.4847 163.435 12.6347C161.085 14.6888 158.181 16.0018 155.087 16.4083C154.896 16.4356 154.722 16.5308 154.596 16.6761C154.47 16.8216 154.4 17.0077 154.4 17.2002V17.8658C154.411 20.7311 155.149 23.5467 156.546 26.0486C157.943 28.5504 159.953 30.6562 162.387 32.1684H162.386ZM164 14.2685C166.322 16.1232 169.073 17.3653 172 17.8812C171.988 20.4712 171.318 23.0158 170.055 25.2764C168.791 27.5369 166.974 29.4399 164.774 30.8069L164 31.2805L163.225 30.8004C161.026 29.4342 159.21 27.5324 157.946 25.2727C156.682 23.0132 156.013 20.4699 156 17.8811C158.927 17.3653 161.678 16.1231 164 14.2685L164 14.2685Z" fill="#F6F9FC"/>
<path d="M162.818 28.9762L163.579 29.4482C163.705 29.5266 163.851 29.5682 164 29.5682C164.149 29.5682 164.295 29.5266 164.422 29.4482L165.181 28.9769H165.181C166.781 27.9974 168.102 26.6224 169.016 24.9842C169.93 23.3462 170.407 21.5001 170.4 19.6242V19.2082V19.2083C170.4 19.0123 170.328 18.8232 170.198 18.6767C170.068 18.5303 169.888 18.4369 169.694 18.4139C169.459 18.3626 169.213 18.4224 169.028 18.576C168.842 18.7294 168.738 18.9598 168.744 19.2003C168.744 19.301 168.763 19.401 168.8 19.4948V19.6244V19.6242C168.806 21.2276 168.398 22.8053 167.616 24.2052C166.835 25.6052 165.706 26.7804 164.339 27.6172L164 27.8269L163.66 27.6156C162.329 26.8022 161.224 25.6678 160.444 24.3165C159.665 22.9651 159.237 21.4399 159.2 19.8804C160.945 19.5304 162.586 18.787 164 17.7069C164.666 18.2195 165.388 18.6556 166.151 19.0069C166.411 19.1269 166.715 19.0994 166.948 18.9346C167.182 18.7699 167.31 18.493 167.284 18.2083C167.259 17.9235 167.083 17.674 166.823 17.554C165.999 17.186 165.238 16.6924 164.565 16.0908C164.415 15.9414 164.212 15.8574 164 15.8574C163.788 15.8574 163.585 15.9413 163.435 16.0908C161.982 17.3517 160.192 18.1608 158.286 18.4189C158.096 18.4464 157.922 18.5412 157.796 18.6862C157.67 18.8312 157.601 19.0165 157.6 19.2085V19.6246V19.6244C157.594 21.5001 158.07 23.3458 158.984 24.984C159.898 26.622 161.218 27.997 162.818 28.9766L162.818 28.9762Z" fill="#F6F9FC"/>
<path d="M65.0391 28.1758H72.5039V31H61.5234V13.9375H65.0391V28.1758ZM82.0962 31C81.94 30.6953 81.8267 30.3164 81.7564 29.8633C80.9361 30.7773 79.8697 31.2344 78.5572 31.2344C77.315 31.2344 76.2837 30.875 75.4634 30.1562C74.6509 29.4375 74.2447 28.5312 74.2447 27.4375C74.2447 26.0938 74.7408 25.0625 75.733 24.3438C76.733 23.625 78.1744 23.2617 80.0572 23.2539H81.6158V22.5273C81.6158 21.9414 81.4634 21.4727 81.1587 21.1211C80.8619 20.7695 80.3892 20.5938 79.7408 20.5938C79.1705 20.5938 78.7212 20.7305 78.3931 21.0039C78.0728 21.2773 77.9127 21.6523 77.9127 22.1289H74.5259C74.5259 21.3945 74.7525 20.7148 75.2056 20.0898C75.6587 19.4648 76.2994 18.9766 77.1275 18.625C77.9556 18.2656 78.8853 18.0859 79.9166 18.0859C81.4791 18.0859 82.7173 18.4805 83.6314 19.2695C84.5533 20.0508 85.0142 21.1523 85.0142 22.5742V28.0703C85.022 29.2734 85.19 30.1836 85.5181 30.8008V31H82.0962ZM79.2955 28.6445C79.7955 28.6445 80.2564 28.5352 80.6783 28.3164C81.1002 28.0898 81.4127 27.7891 81.6158 27.4141V25.2344H80.3502C78.6548 25.2344 77.7525 25.8203 77.6431 26.9922L77.6314 27.1914C77.6314 27.6133 77.7798 27.9609 78.0767 28.2344C78.3736 28.5078 78.7798 28.6445 79.2955 28.6445ZM91.2316 18.3203L91.337 19.7383C92.2355 18.6367 93.4503 18.0859 94.9816 18.0859C96.6144 18.0859 97.7355 18.7305 98.3448 20.0195C99.2355 18.7305 100.505 18.0859 102.153 18.0859C103.528 18.0859 104.552 18.4883 105.224 19.293C105.896 20.0898 106.232 21.293 106.232 22.9023V31H102.833V22.9141C102.833 22.1953 102.692 21.6719 102.411 21.3438C102.13 21.0078 101.634 20.8398 100.923 20.8398C99.9073 20.8398 99.2042 21.3242 98.8136 22.293L98.8253 31H95.4386V22.9258C95.4386 22.1914 95.2941 21.6602 95.005 21.332C94.7159 21.0039 94.2237 20.8398 93.5284 20.8398C92.5675 20.8398 91.8722 21.2383 91.4425 22.0352V31H88.0558V18.3203H91.2316ZM108.757 24.5664C108.757 22.5898 109.199 21.0156 110.082 19.8438C110.972 18.6719 112.187 18.0859 113.726 18.0859C114.961 18.0859 115.98 18.5469 116.785 19.4688V13H120.183V31H117.125L116.961 29.6523C116.117 30.707 115.031 31.2344 113.703 31.2344C112.211 31.2344 111.011 30.6484 110.105 29.4766C109.207 28.2969 108.757 26.6602 108.757 24.5664ZM112.144 24.8125C112.144 26 112.351 26.9102 112.765 27.543C113.179 28.1758 113.781 28.4922 114.57 28.4922C115.617 28.4922 116.355 28.0508 116.785 27.168V22.1641C116.363 21.2812 115.632 20.8398 114.593 20.8398C112.961 20.8398 112.144 22.1641 112.144 24.8125ZM129.084 31.2344C127.225 31.2344 125.709 30.6641 124.537 29.5234C123.373 28.3828 122.791 26.8633 122.791 24.9648V24.6367C122.791 23.3633 123.037 22.2266 123.53 21.2266C124.022 20.2188 124.717 19.4453 125.615 18.9062C126.522 18.3594 127.553 18.0859 128.709 18.0859C130.444 18.0859 131.807 18.6328 132.799 19.7266C133.799 20.8203 134.299 22.3711 134.299 24.3789V25.7617H126.225C126.334 26.5898 126.662 27.2539 127.209 27.7539C127.764 28.2539 128.463 28.5039 129.307 28.5039C130.612 28.5039 131.631 28.0312 132.365 27.0859L134.03 28.9492C133.522 29.668 132.834 30.2305 131.967 30.6367C131.1 31.0352 130.139 31.2344 129.084 31.2344ZM128.697 20.8281C128.026 20.8281 127.479 21.0547 127.057 21.5078C126.643 21.9609 126.377 22.6094 126.26 23.4531H130.971V23.1836C130.955 22.4336 130.752 21.8555 130.362 21.4492C129.971 21.0352 129.416 20.8281 128.697 20.8281ZM139.79 18.3203L139.895 19.7852C140.802 18.6523 142.016 18.0859 143.54 18.0859C144.884 18.0859 145.884 18.4805 146.54 19.2695C147.196 20.0586 147.532 21.2383 147.548 22.8086V31H144.161V22.8906C144.161 22.1719 144.005 21.6523 143.692 21.332C143.38 21.0039 142.86 20.8398 142.134 20.8398C141.18 20.8398 140.466 21.2461 139.989 22.0586V31H136.602V18.3203H139.79Z" fill="#F6F9FC"/>
</svg>
