<?xml version="1.0" encoding="UTF-8" standalone="no"?>
<svg class="fill-font-primary" xmlns="http://www.w3.org/2000/svg" xmlns:xlink="http://www.w3.org/1999/xlink" style="isolation:isolate" viewBox="0 0 110 24" width="110pt" height="24pt">
    <defs>
        <clipPath id="_clipPath_8Zu7mh7d4n9CXeoQAzBVhhZ847Wneqfq">
            <rect width="110" height="24"/>
        </clipPath>
    </defs>
    <g clip-path="url(#_clipPath_8Zu7mh7d4n9CXeoQAzBVhhZ847Wneqfq)">
        <path d=" M 35.042 17.541 L 41.869 17.541 L 41.869 20.124 L 31.827 20.124 L 31.827 4.519 L 35.042 4.519 L 35.042 17.541 Z " 
        />
        <path d=" M 50.541 20.124 C 50.399 19.845 50.296 19.499 50.23 19.084 C 49.481 19.921 48.506 20.338 47.305 20.338 C 46.169 20.338 45.226 20.009 44.475 19.352 C 43.733 18.695 43.361 17.866 43.361 16.866 C 43.361 15.637 43.814 14.694 44.722 14.036 C 45.636 13.379 46.955 13.047 48.677 13.04 L 50.102 13.04 L 50.102 12.375 C 50.102 11.839 49.963 11.411 49.684 11.089 C 49.412 10.767 48.981 10.607 48.388 10.607 C 47.866 10.607 47.455 10.732 47.155 10.982 C 46.862 11.232 46.716 11.575 46.716 12.011 L 43.618 12.011 C 43.618 11.339 43.826 10.718 44.24 10.145 C 44.654 9.574 45.24 9.128 45.998 8.806 C 46.755 8.477 47.605 8.313 48.548 8.313 C 49.977 8.313 51.109 8.674 51.946 9.396 C 52.789 10.11 53.21 11.117 53.21 12.418 L 53.21 17.445 C 53.218 18.545 53.371 19.377 53.671 19.942 L 53.671 20.124 L 50.541 20.124 Z  M 47.98 17.969 C 48.437 17.969 48.859 17.869 49.245 17.67 C 49.63 17.462 49.916 17.188 50.102 16.845 L 50.102 14.851 L 48.945 14.851 C 47.394 14.851 46.569 15.387 46.469 16.458 L 46.458 16.641 C 46.458 17.026 46.594 17.345 46.865 17.595 C 47.137 17.844 47.509 17.969 47.98 17.969 Z " 
        />
        <path d=" M 58.796 8.527 L 58.892 9.824 C 59.714 8.817 60.826 8.313 62.225 8.313 C 63.719 8.313 64.744 8.903 65.302 10.081 C 66.116 8.903 67.277 8.313 68.785 8.313 C 70.042 8.313 70.979 8.681 71.593 9.417 C 72.207 10.145 72.515 11.246 72.515 12.718 L 72.515 20.124 L 69.407 20.124 L 69.407 12.729 C 69.407 12.072 69.278 11.592 69.021 11.293 C 68.763 10.985 68.31 10.831 67.659 10.831 C 66.731 10.831 66.088 11.274 65.731 12.161 L 65.741 20.124 L 62.644 20.124 L 62.644 12.739 C 62.644 12.068 62.511 11.582 62.247 11.282 C 61.982 10.982 61.532 10.831 60.897 10.831 C 60.018 10.831 59.382 11.196 58.989 11.925 L 58.989 20.124 L 55.892 20.124 L 55.892 8.527 L 58.796 8.527 Z " 
        />
        <path d=" M 74.724 14.24 C 74.724 12.432 75.128 10.992 75.936 9.92 C 76.75 8.849 77.861 8.313 79.269 8.313 C 80.398 8.313 81.33 8.734 82.066 9.577 L 82.066 3.662 L 85.174 3.662 L 85.174 20.124 L 82.377 20.124 L 82.227 18.892 C 81.455 19.856 80.462 20.338 79.247 20.338 C 77.883 20.338 76.786 19.803 75.957 18.731 C 75.135 17.651 74.724 16.155 74.724 14.24 Z  M 77.822 14.465 C 77.822 15.551 78.011 16.384 78.39 16.962 C 78.769 17.541 79.318 17.83 80.04 17.83 C 80.998 17.83 81.673 17.427 82.066 16.619 L 82.066 12.043 C 81.68 11.235 81.012 10.831 80.062 10.831 C 78.568 10.831 77.822 12.043 77.822 14.465 Z " 
        />
        <path d=" M 93.215 20.338 C 91.513 20.338 90.127 19.817 89.055 18.774 C 87.991 17.73 87.458 16.341 87.458 14.604 L 87.458 14.304 C 87.458 13.14 87.683 12.1 88.134 11.186 C 88.584 10.264 89.22 9.557 90.042 9.063 C 90.871 8.563 91.814 8.313 92.871 8.313 C 94.457 8.313 95.704 8.813 96.612 9.814 C 97.526 10.814 97.983 12.232 97.983 14.068 L 97.983 15.334 L 90.599 15.334 C 90.699 16.091 90.999 16.698 91.499 17.156 C 92.007 17.612 92.646 17.841 93.418 17.841 C 94.611 17.841 95.544 17.409 96.215 16.544 L 97.737 18.248 C 97.273 18.906 96.644 19.421 95.85 19.791 C 95.057 20.156 94.179 20.338 93.215 20.338 Z  M 92.86 10.821 C 92.246 10.821 91.746 11.028 91.36 11.443 C 90.981 11.857 90.739 12.45 90.631 13.221 L 94.939 13.221 L 94.939 12.975 C 94.925 12.29 94.74 11.761 94.383 11.389 C 94.025 11.01 93.518 10.821 92.86 10.821 Z " 
        />
        <path d=" M 102.905 8.527 L 103.001 9.868 C 103.83 8.831 104.941 8.313 106.334 8.313 C 107.563 8.313 108.478 8.674 109.078 9.396 C 109.679 10.117 109.985 11.196 110 12.633 L 110 20.124 L 106.902 20.124 L 106.902 12.707 C 106.902 12.05 106.76 11.575 106.474 11.282 C 106.187 10.982 105.712 10.831 105.048 10.831 C 104.176 10.831 103.523 11.203 103.087 11.947 L 103.087 20.124 L 99.989 20.124 L 99.989 8.527 L 102.905 8.527 Z " 
        />
        <path d=" M 11.906 6.131 L 5.819 12.218 L 11.906 18.306 L 17.994 12.218 L 11.906 6.131 Z  M 0 12.218 L 11.906 24.125 L 23.813 12.218 L 11.906 0.312 L 0 12.218 Z " fill-rule="evenodd" 
        />
    </g>
</svg>