<svg width="20" height="22" viewBox="0 0 20 22" fill="none" xmlns="http://www.w3.org/2000/svg">
<path d="M8.38629 20.1684L9.57984 20.9045V20.9043C9.70609 20.9824 9.85145 21.0234 9.99984 21.0234C10.1482 21.0234 10.2936 20.9824 10.4198 20.9043L11.6134 20.1682V20.1684C14.0473 18.6563 16.0571 16.5505 17.4543 14.0486C18.8513 11.5468 19.5897 8.73115 19.6 5.86578V5.20023C19.6 5.00773 19.5308 4.82166 19.4045 4.67611C19.2784 4.53075 19.1042 4.43558 18.9136 4.40825C15.8217 3.9945 12.9191 2.68236 10.5657 0.634676C10.4157 0.484679 10.2124 0.400391 10.0002 0.400391C9.78808 0.400391 9.58468 0.484679 9.43468 0.634676C7.08538 2.6888 4.18074 4.00181 1.0868 4.40825C0.896266 4.43557 0.721981 4.53075 0.595924 4.67611C0.469675 4.82165 0.400391 5.00772 0.400391 5.20023V5.86578C0.410748 8.73115 1.14914 11.5467 2.54613 14.0486C3.94311 16.5504 5.95289 18.6562 8.38704 20.1684H8.38629ZM9.99986 2.26852C12.3222 4.12315 15.0728 5.3653 17.9999 5.88118C17.9877 8.47117 17.3184 11.0158 16.0547 13.2764C14.7909 15.5369 12.9741 17.4399 10.7742 18.8069L9.99977 19.2804L9.22533 18.8005C7.02638 17.4342 5.20997 15.5324 3.94624 13.2727C2.68247 11.0132 2.01285 8.46994 1.99982 5.88114C4.92677 5.36525 7.67753 4.12311 9.99982 2.26848L9.99986 2.26852Z" fill="#F6F9FC"/>
<path d="M8.81783 16.9762L9.57856 17.4482C9.70517 17.5266 9.85124 17.5682 10.0002 17.5682C10.1491 17.5682 10.2952 17.5266 10.4218 17.4482L11.181 16.9769H11.1809C12.7811 15.9974 14.1018 14.6225 15.0159 12.9842C15.93 11.3462 16.4068 9.50012 16.4002 7.62424V7.20816V7.20834C16.4002 7.01227 16.3282 6.82316 16.198 6.67673C16.0678 6.5303 15.8884 6.43691 15.6937 6.41387C15.4586 6.36262 15.2128 6.42244 15.0275 6.57602C14.8421 6.72941 14.7377 6.95977 14.7441 7.20029C14.7441 7.301 14.7632 7.401 14.8002 7.49476V7.6244V7.62422C14.8055 9.2276 14.398 10.8053 13.6164 12.2052C12.835 13.6052 11.7061 14.7804 10.3386 15.6172L10.0002 15.8269L9.66017 15.6156C8.32929 14.8022 7.22355 13.6678 6.44426 12.3165C5.66515 10.9651 5.23731 9.43989 5.20015 7.88044C6.9446 7.53044 8.58639 6.78704 10.0001 5.70686C10.666 6.21955 11.3878 6.65562 12.1514 7.00688C12.4109 7.12688 12.7148 7.09938 12.9484 6.93456C13.1822 6.76992 13.3102 6.49295 13.2845 6.2083C13.2586 5.92348 13.0829 5.67399 12.8234 5.55404C11.9995 5.186 11.2377 4.69242 10.565 4.09082C10.415 3.94135 10.212 3.85742 10.0002 3.85742C9.78846 3.85742 9.5854 3.94135 9.43542 4.09082C7.98221 5.35171 6.1924 6.1608 4.28571 6.41886C4.09571 6.44636 3.92196 6.54118 3.79606 6.68618C3.67016 6.83119 3.6007 7.01654 3.60017 7.20852V7.62459V7.62441C3.59356 9.50011 4.07015 11.3458 4.98394 12.984C5.89786 14.622 7.21822 15.997 8.81786 16.9766L8.81783 16.9762Z" fill="#F6F9FC"/>
</svg>
