<?xml version="1.0" encoding="UTF-8" standalone="no"?><!-- Generator: Gravit.io --><svg xmlns="http://www.w3.org/2000/svg" xmlns:xlink="http://www.w3.org/1999/xlink" style="isolation:isolate" viewBox="0 0 100 100" width="100pt" height="100pt"><defs><clipPath id="_clipPath_KtxA0BZPLiUvTiMjZzupfChqjEJ3Q15y"><rect width="100" height="100"/></clipPath></defs><g clip-path="url(#_clipPath_KtxA0BZPLiUvTiMjZzupfChqjEJ3Q15y)"><path d=" M 47.154 65.47 L 48.497 66.441 L 34.771 76.413 L 35.598 73.867 L 47.154 65.47 Z  M 43.981 43.194 L 45.637 43.194 L 47.683 36.897 L 49.047 32.697 L 50.05 29.61 L 49.228 27.046 L 43.981 43.194 Z  M 38.343 54.933 L 26.583 46.389 L 23.998 46.389 L 23.966 46.433 L 37.832 56.509 L 38.343 54.933 Z  M 59.827 60.007 L 64.343 73.904 L 66.507 75.469 L 61.172 59.053 L 59.827 60.007 Z  M 68.396 60.083 L 77.518 88.159 L 73.883 90.8 L 50.001 73.448 L 26.117 90.8 L 22.482 88.159 L 31.604 60.083 L 7.721 42.73 L 9.11 38.457 L 38.632 38.457 L 47.753 10.38 L 52.246 10.38 L 61.369 38.457 L 90.889 38.457 L 92.278 42.73 L 68.396 60.083 Z  M 63.372 59.911 L 64.229 57.27 L 83.619 43.181 L 59.652 43.181 L 57.407 41.549 L 50 18.756 L 42.594 41.55 L 40.348 43.182 L 16.38 43.182 L 35.77 57.271 L 36.628 59.912 L 29.222 82.706 L 48.613 68.617 L 51.391 68.617 L 70.778 82.704 L 63.372 59.911 Z  M 75.383 45.009 L 58.387 45.009 L 58.892 46.584 L 73.161 46.584 L 75.383 45.009 Z " fill="rgb(234,234,234)"/></g></svg>