<?xml version="1.0" encoding="UTF-8" standalone="no"?><!-- Generator: Gravit.io --><svg xmlns="http://www.w3.org/2000/svg" xmlns:xlink="http://www.w3.org/1999/xlink" style="isolation:isolate" viewBox="0 0 257.112 257.112" width="257.112pt" height="257.112pt"><defs><clipPath id="_clipPath_4tftv2y8KMvSmxs68sVTyUBgzu3nbGI7"><rect width="257.112" height="257.112"/></clipPath></defs><g clip-path="url(#_clipPath_4tftv2y8KMvSmxs68sVTyUBgzu3nbGI7)"><g><path d=" M 69.48 187.704 L 17.64 135.864 L 10.368 128.592 L 17.64 121.248 L 69.48 69.48 L 121.248 17.64 L 128.592 10.368 L 135.864 17.64 L 187.704 69.48 L 239.472 121.248 L 246.816 128.592 L 239.472 135.864 L 187.704 187.704 L 135.864 239.472 L 128.592 246.816 L 121.248 239.472 L 69.48 187.704 Z  M 128.592 257.112 C 131.184 257.112 133.56 256.176 135.288 254.52 L 136.368 253.584 L 194.976 194.976 L 253.512 136.368 L 254.592 135.36 C 256.176 133.488 257.112 131.184 257.112 128.592 C 257.112 126 256.176 123.624 254.592 121.824 L 253.512 120.816 L 194.976 62.208 L 136.368 3.6 L 135.288 2.592 C 133.56 1.008 131.184 0 128.592 0 C 125.928 0 123.552 1.008 121.824 2.592 L 120.744 3.6 L 62.136 62.208 L 3.6 120.816 L 2.592 121.824 C 0.936 123.624 0 126 0 128.592 C 0 131.184 0.936 133.488 2.592 135.36 L 3.6 136.368 L 62.136 194.976 L 120.744 253.584 L 121.824 254.52 C 123.552 256.176 125.928 257.112 128.592 257.112 Z " fill-rule="evenodd" fill="rgb(0,0,0)"/><path d=" M 128.592 10.368 L 187.704 69.552 L 246.888 128.736 L 187.704 187.92 L 128.592 247.104 L 69.408 187.92 L 10.224 128.736 L 69.408 69.552 L 128.592 10.368 Z  M 128.592 69.624 L 158.112 99.144 L 187.704 128.736 L 158.112 158.256 L 128.592 187.848 L 99 158.256 L 69.48 128.736 L 99 99.144 L 128.592 69.624 Z " fill-rule="evenodd" fill="rgb(254,254,254)"/><path d=" M 99 158.256 L 128.592 187.848 L 158.112 158.256 L 187.704 128.736 L 158.112 99.144 L 128.592 69.624 L 99 99.144 L 69.48 128.736 L 99 158.256 Z  M 106.2 151.056 L 128.592 173.448 L 150.912 151.056 L 173.304 128.736 L 150.912 106.344 L 128.592 84.024 L 106.2 106.344 L 83.808 128.736 L 106.2 151.056 Z " fill-rule="evenodd" fill="rgb(0,0,0)"/></g><g><ellipse vector-effect="non-scaling-stroke" cx="209.77150000000012" cy="209.77149999999997" rx="42" ry="43.16666666666666" fill="rgb(255,255,255)"/><path d=" M 209.772 162.431 C 192.906 162.431 178.101 171.25 169.715 184.528 C 165.101 191.835 162.431 200.491 162.431 209.772 C 162.431 235.917 183.626 257.112 209.772 257.112 C 235.917 257.112 257.112 235.917 257.112 209.772 C 257.11 183.627 235.916 162.433 209.772 162.431 L 209.772 162.431 Z  M 201.829 237.282 C 196.425 242.685 187.665 242.685 182.261 237.282 C 176.858 231.878 176.858 223.118 182.261 217.714 L 196.937 203.039 C 197.97 201.997 199.17 201.135 200.488 200.488 C 201.624 199.923 202.825 199.499 204.064 199.225 L 204.748 199.146 L 204.801 199.146 C 205.376 199.063 205.956 199.019 206.537 199.015 C 206.967 198.98 207.399 198.997 207.825 199.067 L 207.852 199.067 C 208.117 199.086 208.38 199.121 208.641 199.172 C 208.961 199.163 209.281 199.207 209.587 199.304 C 209.827 199.353 210.064 199.415 210.298 199.488 C 212.644 200.103 214.785 201.328 216.504 203.039 C 217.312 203.88 218.026 204.805 218.635 205.8 L 215.268 209.167 C 214.729 209.704 214.025 210.047 213.269 210.14 C 213.217 210.14 213.138 210.166 213.085 210.166 C 212.755 209.326 212.254 208.565 211.613 207.93 C 210.84 207.183 209.916 206.609 208.904 206.247 C 208.005 205.957 207.057 205.85 206.116 205.932 C 205.715 205.961 205.319 206.031 204.932 206.142 C 204.63 206.208 204.338 206.314 204.064 206.458 C 203.228 206.794 202.468 207.295 201.829 207.93 L 187.153 222.606 C 184.452 225.308 184.452 229.688 187.153 232.39 C 189.855 235.091 194.235 235.091 196.937 232.39 L 206.537 222.79 C 207.117 223.035 207.715 223.237 208.325 223.395 C 210.587 224.002 212.947 224.154 215.268 223.842 L 201.829 237.282 Z  M 237.282 201.829 L 223.842 215.268 L 222.606 216.504 C 222.29 216.82 221.922 217.136 221.58 217.425 L 221.554 217.451 C 220.787 218.083 219.949 218.621 219.055 219.055 C 216.024 220.597 212.526 220.953 209.245 220.055 C 208.629 219.908 208.029 219.696 207.457 219.424 C 206.881 219.214 206.326 218.95 205.8 218.635 C 203.776 217.452 202.091 215.767 200.908 213.743 L 204.275 210.376 C 204.862 209.796 205.635 209.443 206.458 209.377 C 207.133 211.069 208.474 212.41 210.166 213.085 C 210.688 213.329 211.249 213.48 211.823 213.532 C 212.405 213.629 212.998 213.646 213.585 213.585 C 215.145 213.414 216.601 212.719 217.714 211.613 L 220.055 209.245 L 221.449 207.852 L 222.816 206.484 L 232.39 196.937 C 234.142 195.19 234.827 192.641 234.188 190.251 C 233.549 187.861 231.682 185.994 229.292 185.355 C 226.902 184.716 224.353 185.401 222.606 187.153 L 213.059 196.727 C 210.263 195.655 207.243 195.302 204.275 195.701 L 217.714 182.261 C 223.118 176.858 231.878 176.858 237.282 182.261 C 242.685 187.665 242.685 196.425 237.282 201.829 Z " fill="rgb(79,184,255)"/></g></g></svg>