<?xml version="1.0" encoding="UTF-8" standalone="no"?>
<svg xmlns="http://www.w3.org/2000/svg" xmlns:xlink="http://www.w3.org/1999/xlink" style="isolation:isolate" viewBox="0 0 257.112 257.112" width="257.112pt" height="257.112pt">
    <g>
        <ellipse vector-effect="non-scaling-stroke" cx="128.55600075032783" cy="128.55600075032726" rx="114.05354830786845" ry="117.22170242753143" 
            class="fill-font-primary" />
        <path d=" M 128.557 0 C 82.757 0 42.553 23.949 19.78 60.006 C 7.251 79.848 0 103.354 0 128.557 C 0 199.556 57.556 257.112 128.557 257.112 C 199.556 257.112 257.112 199.556 257.112 128.557 C 257.107 57.559 199.553 0.005 128.557 0 L 128.557 0 Z  M 106.988 203.262 C 92.313 217.935 68.524 217.935 53.85 203.262 C 39.177 188.588 39.177 164.799 53.85 150.124 L 93.703 110.273 C 96.508 107.444 99.767 105.103 103.346 103.346 C 106.431 101.812 109.692 100.66 113.057 99.916 L 114.914 99.702 L 115.058 99.702 C 116.62 99.476 118.195 99.357 119.773 99.346 C 120.94 99.251 122.113 99.297 123.27 99.487 L 123.343 99.487 C 124.063 99.539 124.777 99.634 125.486 99.772 C 126.355 99.748 127.224 99.867 128.055 100.131 C 128.707 100.264 129.35 100.432 129.986 100.631 C 136.356 102.301 142.17 105.627 146.839 110.273 C 149.033 112.557 150.972 115.069 152.625 117.771 L 143.482 126.914 C 142.018 128.373 140.107 129.304 138.054 129.557 C 137.912 129.557 137.698 129.627 137.554 129.627 C 136.658 127.346 135.297 125.28 133.557 123.555 C 131.458 121.527 128.948 119.968 126.2 118.985 C 123.759 118.197 121.185 117.907 118.629 118.13 C 117.54 118.208 116.465 118.398 115.414 118.7 C 114.594 118.879 113.801 119.167 113.057 119.558 C 110.787 120.47 108.723 121.831 106.988 123.555 L 67.134 163.409 C 59.799 170.746 59.799 182.64 67.134 189.978 C 74.472 197.313 86.366 197.313 93.703 189.978 L 119.773 163.909 C 121.348 164.574 122.971 165.122 124.628 165.551 C 130.771 167.2 137.179 167.613 143.482 166.765 L 106.988 203.262 Z  M 203.262 106.988 L 166.765 143.482 L 163.409 146.839 C 162.551 147.697 161.551 148.555 160.623 149.34 L 160.552 149.41 C 158.469 151.126 156.194 152.587 153.766 153.766 C 145.535 157.953 136.036 158.92 127.126 156.481 C 125.453 156.082 123.824 155.507 122.271 154.768 C 120.707 154.198 119.2 153.481 117.771 152.625 C 112.275 149.413 107.699 144.837 104.487 139.341 L 113.63 130.198 C 115.224 128.623 117.323 127.664 119.558 127.485 C 121.391 132.079 125.033 135.721 129.627 137.554 C 131.045 138.217 132.568 138.627 134.127 138.768 C 135.707 139.031 137.318 139.077 138.912 138.912 C 143.148 138.447 147.102 136.56 150.124 133.557 L 156.481 127.126 L 160.267 123.343 L 163.979 119.629 L 189.978 93.703 C 194.736 88.959 196.596 82.037 194.86 75.547 C 193.125 69.057 188.055 63.987 181.565 62.252 C 175.075 60.516 168.153 62.376 163.409 67.134 L 137.483 93.133 C 129.891 90.222 121.69 89.263 113.63 90.347 L 150.124 53.85 C 164.799 39.177 188.588 39.177 203.262 53.85 C 217.935 68.524 217.935 92.313 203.262 106.988 Z " 
            class="fill-accent"/>
    </g>
</svg>